<?xml version="1.0" encoding="UTF-8"?>
<!-- Created with Inkscape (http://www.inkscape.org/) -->
<svg width="300" height="300" version="1.1" viewBox="0 0 79.375 79.375" xmlns="http://www.w3.org/2000/svg" xmlns:xlink="http://www.w3.org/1999/xlink">
 <defs>
  <linearGradient id="linearGradient57454">
   <stop stop-color="#7f00e4" offset="0"/>
   <stop stop-color="#e17337" stop-opacity=".91765" offset="1"/>
  </linearGradient>
  <filter id="filter966" x="-1.1282" y="-1.3603" width="3.2564" height="3.7207" color-interpolation-filters="sRGB">
   <feGaussianBlur stdDeviation="30.43952"/>
  </filter>
  <linearGradient id="linearGradient38987" x1="-67.982" x2="38.253" y1="-39.561" y2="-34.246" gradientTransform="matrix(1.1437 0 0 1.1437 63.376 99.669)" gradientUnits="userSpaceOnUse" spreadMethod="repeat" xlink:href="#linearGradient57454"/>
  <filter id="filter58561" x="-.0060351" y="-.006143" width="1.0121" height="1.0123" color-interpolation-filters="sRGB">
   <feGaussianBlur stdDeviation="0.073789341"/>
  </filter>
  <filter id="filter2655" x="-.0014406" y="-.0071838" width="1.0029" height="1.0144" color-interpolation-filters="sRGB">
   <feGaussianBlur stdDeviation="0.067255318"/>
  </filter>
 </defs>
 <g transform="matrix(.79189 0 0 .79189 .731 -2.6208)">
  <g transform="matrix(1.5065 0 0 1.5065 -38.208 -32.528)">
   <g transform="matrix(1.247 .078027 -.052803 .99205 -6.0051 3.6286)" fill="#474747" fill-opacity=".62353">
    <rect transform="matrix(.99893 .046296 -.1077 .99418 0 0)" x="46.155" y="18.177" width="28.135" height=".13584" rx="0" ry=".13584" style="paint-order:markers stroke fill"/>
    <rect transform="matrix(-.97398 .22662 .10064 -.99492 0 0)" x="-48.756" y="-31.547" width="12.829" height=".14513" rx="0" ry=".14513" style="paint-order:markers stroke fill"/>
   </g>
   <g transform="matrix(1.1348 -.080799 -.073846 .70684 -4.0617 31.735)" fill="#474747" fill-opacity=".62353">
    <path d="m85.026 48.615 0.7291 25.178c0.0018 0.06259-0.01619 0.11659-0.04037 0.12108-0.02418 0.0045-0.04511-0.04227-0.04693-0.10487l-0.7291-25.178c-0.0018-0.06259 0.01619-0.11659 0.04038-0.12108 0.02418-0.0045 0.04511 0.04227 0.04692 0.10487z" stroke-linejoin="round" stroke-width=".12102" style="paint-order:markers stroke fill"/>
    <rect transform="matrix(-.49173 .87075 -.56178 -.82729 0 0)" x="-32.888" y="-123.91" width="14.779" height=".13305" rx="0" ry=".13305" style="paint-order:markers stroke fill"/>
   </g>
   <g fill="none" stroke-linejoin="round">
    <rect transform="matrix(.99352 .11369 -.010087 .99995 0 0)" x="29.535" y="25.379" width="53.424" height="52.486" rx="3.6671" ry="25.121" stroke="#434343" stroke-width=".19847" style="paint-order:markers stroke fill"/>
    <rect transform="matrix(.99352 .11369 -.010087 .99995 0 0)" x="30.994" y="26.813" width="50.505" height="49.618" rx="3.4668" ry="23.748" filter="url(#filter58561)" stroke="#2e2e2e" stroke-width=".25542" style="mix-blend-mode:normal;paint-order:markers stroke fill"/>
   </g>
  </g>
  <g transform="matrix(.53302 .031375 -.14907 .54369 21.499 29.218)" filter="url(#filter2655)">
   <g fill="#eee" stroke-width=".22878" aria-label="$ computer programmer;">
    <path d="m2.656 45.514q-0.4465 0-0.83303-0.11996-0.38653-0.12662-0.61311-0.3532-0.00666-0.01333-0.013329-0.01999-0.00666-0.01333-0.00666-0.03999 0-0.06664 0-0.15328 0-0.0933 0-0.17327h0.079971q0.30655 0.29323 0.62644 0.41318 0.31988 0.11329 0.75972 0.11329 0.55313 0 0.86635-0.21326 0.31322-0.21992 0.31322-0.59978v-0.24658q0-0.23325-0.066642-0.37986-0.066647-0.14661-0.23992-0.24658-0.16661-0.10663-0.4665-0.19326l-0.65309-0.19326q-0.30655-0.093299-0.52647-0.19993-0.21992-0.11329-0.35987-0.23991-0.13328-0.13328-0.19993-0.28656-0.059978-0.15328-0.059978-0.33321v-0.31322q0-0.23991 0.10663-0.43984 0.11329-0.20659 0.31322-0.3532 0.20659-0.15328 0.47982-0.23325 0.2799-0.07997 0.61311-0.07997 0.39319 0 0.73307 0.11329 0.33988 0.11329 0.5398 0.31322 0.013329 0.0067 0.013329 0.01999 0.00666 0.01333 0.00666 0.03332 0 0.06664 0 0.15994 0 0.0933 0 0.17327h-0.079967q-0.27323-0.26657-0.55313-0.37319-0.27323-0.10663-0.65976-0.10663-0.36653 0-0.6331 0.09996-0.26657 0.0933-0.41318 0.2799-0.13995 0.17993-0.13995 0.43318v0.21326q0 0.20659 0.073307 0.34654 0.079971 0.13328 0.27323 0.23991 0.19326 0.09996 0.53314 0.19993l0.64643 0.1866q0.37986 0.10663 0.60644 0.2599 0.23325 0.14661 0.33988 0.3532 0.10663 0.19993 0.10663 0.47316v0.35987q0 0.31988-0.19326 0.57312-0.19326 0.24658-0.53314 0.39319-0.33988 0.13995-0.78638 0.13995zm0.19993-3.1322q-0.04665-0.01333-0.093299-0.01999-0.04665-0.01333-0.086635-0.03332-0.033321 0-0.053314-0.01999t-0.019993-0.05331q0-0.19326 0-0.41985 0-0.23325 0-0.45317 0-0.22658 0-0.39985 0-0.17993 0-0.2599 0-0.07331 0-0.21326 0-0.13995 0-0.29989 0-0.15994 0-0.29989 0-0.14661 0-0.21326 0.066642 0 0.11329 0 0.04665 0 0.093299 0 0.053314 0 0.11996 0 0.033321 0 0.053314 0.01999t0.013328 0.06664q-0.00666 0.05331-0.019993 0.26657-0.00666 0.21326-0.026657 0.51981-0.013329 0.29989-0.033321 0.63977-0.013328 0.33988-0.033321 0.65309-0.013329 0.30656-0.026657 0.51981zm-0.32655 1.2929q0.04665 0.01333 0.086635 0.02666 0.04665 0.01333 0.093299 0.02666 0.039985 0.0067 0.053314 0.03999 0.019993 0.02666 0.019993 0.07331 0 0.05331 0 0.21326 0 0.15328 0 0.35987t0 0.41318 0 0.36653q0 0.15328 0 0.20659 0 0.06664 0 0.24658 0 0.1866 0 0.39319 0 0.21326 0 0.38653t0 0.21992q-0.053314 0-0.11329 0-0.053314 0-0.10663 0-0.053314 0-0.10663 0-0.019993 0-0.039985-0.01333-0.013329-0.0067-0.019993-0.02666-0.00666-0.01999-0.00666-0.04665 0.00666-0.05331 0.013328-0.29323 0.013329-0.23991 0.026657-0.58645 0.019993-0.33988 0.033321-0.71974 0.019993-0.37986 0.033321-0.71974 0.019993-0.34654 0.033321-0.56646z"/>
    <g fill="#afafaf">
     <path d="m9.3753 40.402q0.4301 0 0.76869 0.06406 0.33859 0.06406 0.55822 0.15557 0.21963 0.09151 0.29284 0.16472 0.0183 0.0092 0.02745 0.0366 0.0092 0.0183 0.0092 0.04576 0 0.22878 0 0.45755 0 0.21963 0 0.43925h-0.16472q-0.33859-0.15557-0.67718-0.24708-0.32944-0.09151-0.74124-0.09151-0.4301 0-0.72294 0.12812-0.28368 0.11896-0.4301 0.38434-0.13727 0.26538-0.13727 0.69548v0.67718q0 0.28368 0.064058 0.49416 0.073209 0.21048 0.22878 0.36604 0.14642 0.14642 0.38435 0.22878 0.24708 0.08236 0.60397 0.08236 0.27453 0 0.51246-0.0366 0.23793-0.04575 0.45755-0.11896 0.22878-0.08236 0.45756-0.18302h0.16472q0 0.22878 0 0.45755 0 0.21963 0 0.4484 0 0.0183-0.0092 0.0366 0 0.0183-0.0183 0.03661-0.09151 0.08236-0.32029 0.17387t-0.57652 0.14642q-0.33859 0.06406-0.76869 0.06406-0.53991 0-0.97002-0.14642-0.4301-0.15558-0.73209-0.43926-0.30199-0.28368-0.46671-0.67718-0.15557-0.3935-0.15557-0.86935v-0.8236q0-0.65888 0.28368-1.1439 0.29283-0.48501 0.8236-0.74124 0.53076-0.26538 1.2537-0.26538z"/>
     <path d="m14.564 40.402q0.48501 0 0.8785 0.15557 0.40265 0.14642 0.68633 0.42095 0.29284 0.27453 0.4484 0.64973 0.16472 0.3752 0.16472 0.83275v0.96086q0 0.62227-0.28368 1.0981-0.27453 0.4667-0.76869 0.73209-0.48501 0.25623-1.1256 0.25623-0.48501 0-0.88766-0.14642-0.40265-0.15557-0.68633-0.4301-0.28368-0.27453-0.4484-0.64973-0.15557-0.37519-0.15557-0.83275v-0.96086q0-0.62227 0.27453-1.089 0.28368-0.4667 0.77784-0.73209t1.1256-0.26538zm0.02745 0.99747q-0.35689 0-0.60397 0.14642-0.23793 0.13727-0.36604 0.3935-0.12812 0.24708-0.12812 0.59482v0.85105q0 0.26538 0.07321 0.48501 0.08236 0.21048 0.22878 0.35689 0.12812 0.13727 0.32029 0.21048 0.19217 0.07321 0.42095 0.07321 0.35689 0 0.59482-0.13727 0.24708-0.14642 0.37519-0.40265 0.12812-0.25623 0.12812-0.59482v-0.85105q0-0.29284-0.07321-0.50331t-0.21048-0.35689q-0.13727-0.12812-0.32944-0.19217-0.18302-0.07321-0.4301-0.07321z"/>
     <path d="m22.443 45.407q-0.14642 0-0.30199 0-0.15557 0-0.30199 0-0.14642 0-0.28368 0-0.02745 0-0.05491-0.0092-0.0183-0.0183-0.0366-0.0366-0.0092-0.0183-0.0092-0.05491 0-0.34774 0-0.69548 0-0.34774 0-0.69548 0-0.34774 0-0.69548 0-0.35689 0-0.70463t0-0.69548q0-0.19217-0.08236-0.26538-0.07321-0.07321-0.21048-0.07321-0.11896 0-0.24708 0.05491-0.11896 0.05491-0.25623 0.17387-0.12812 0.11896-0.27453 0.32029l-0.15557-0.8419h0.4301q0.10981-0.24708 0.24708-0.42095 0.14642-0.17387 0.32029-0.26538 0.18302-0.10066 0.4118-0.10066 0.17387 0 0.32029 0.06406 0.15557 0.05491 0.26538 0.17387 0.10981 0.10981 0.16472 0.27453 0.05491 0.16472 0.05491 0.3752 0 0.40265 0 0.8053t0 0.8053q0 0.3935 0 0.79614t0 0.79614q0 0.22878 0 0.45756t0 0.45755zm-1.9492 0q-0.12812 0-0.26538 0-0.13727 0-0.26538 0t-0.24708 0q-0.02745 0-0.05491-0.0092-0.0183-0.0183-0.0366-0.0366-0.0092-0.0183-0.0092-0.05491 0-0.34774 0-0.69548 0-0.35689 0-0.69548 0-0.34774 0-0.69548 0-0.35689 0-0.70463t0-0.69548q0-0.12812-0.0366-0.20132-0.02745-0.07321-0.09151-0.10066-0.06406-0.0366-0.16472-0.0366-0.10981 0-0.24708 0.05491-0.12812 0.05491-0.26538 0.18302-0.12812 0.11896-0.28368 0.32029l-0.19217-0.85105h0.38435q0.10981-0.25623 0.24708-0.4301 0.13727-0.18302 0.32029-0.26538 0.19217-0.09151 0.42095-0.09151 0.17387 0 0.32029 0.06406 0.14642 0.05491 0.24708 0.17387 0.10981 0.11896 0.16472 0.28368 0.05491 0.16472 0.05491 0.36604 0 0.33859 0 0.75039t0 0.91511 0 1.1164q0 0.60397 0 1.3361zm-1.8394 0q-0.10981 0-0.22878 0-0.10981 0-0.21963 0-0.10066 0-0.21963 0-0.10981 0-0.21963 0-0.02745 0-0.04575 0-0.0183-0.0092-0.0366-0.0183-0.0092-0.0183-0.0183-0.0366 0-0.0183 0-0.04576 0-0.64973 0-1.2995 0-0.64973 0-1.2903 0-0.64973 0-1.2995 0-0.25623 0-0.48501 0-0.23793 0-0.4301 0.09151 0 0.17387 0 0.09151 0 0.17387 0 0.09151 0 0.17387 0 0.09151 0 0.18302 0 0 0 0.04576 0.15557 0.04575 0.14642 0.09151 0.34774 0.05491 0.19217 0.10066 0.34774 0.04575 0.14642 0.04575 0.14642 0 0.58567 0 1.2354 0 0.64973 0 1.3178 0 0.66803 0 1.3544z"/>
     <path d="m23.55 40.502q0.17387 0 0.33859 0 0.16472 0 0.32944 0 0.16472 0 0.32944 0 0.0366 0 0.05491 0.0183 0.0183 0.0092 0.02745 0.02745 0.0183 0.0183 0.0183 0.05491 0 0.8236 0 1.6563 0 0.83275 0 1.6655 0 0.8236 0 1.6563t0 1.6563q-0.16472 0-0.32944 0-0.16472 0-0.32944 0-0.16472 0-0.33859 0-0.02745 0-0.05491-0.0183-0.0183-0.0092-0.0366-0.0366-0.0092-0.0183-0.0092-0.04576 0-0.71378 0-1.4276t0-1.4276 0-1.4276 0-1.4276q0-0.24708 0-0.47586 0-0.23793 0-0.4484zm2.6447-0.10066q0.45755 0 0.8053 0.21048 0.34774 0.21048 0.53991 0.61312t0.19217 0.95171v1.5099q0 0.4301-0.10981 0.76869-0.10981 0.32944-0.31114 0.56737-0.20132 0.22878-0.49416 0.35689-0.28368 0.11896-0.64058 0.11896-0.27453 0-0.53076-0.09151-0.24708-0.09151-0.46671-0.25623-0.21048-0.16472-0.3752-0.3935h-0.26538v-0.95171q0.25623 0.32029 0.59482 0.47586 0.34774 0.15557 0.70463 0.15557 0.24708 0 0.42095-0.10066 0.17387-0.10981 0.26538-0.32029 0.10066-0.21048 0.10066-0.50331v-1.153q0-0.23793-0.05491-0.4118-0.05491-0.17387-0.16472-0.28368-0.10066-0.10066-0.24708-0.14642-0.13727-0.05491-0.32029-0.05491-0.21963 0-0.4484 0.10066t-0.4484 0.30199q-0.21048 0.19217-0.40265 0.48501v-1.089h0.26538q0.14642-0.27453 0.35689-0.46671 0.21963-0.19217 0.47586-0.29284 0.26538-0.10066 0.55822-0.10066z"/>
     <path d="m30.038 40.502q0.0366 0 0.05491 0.0183 0.0183 0.0092 0.02745 0.02745 0.0183 0.0183 0.0183 0.05491 0 0.4118 0 0.8419 0 0.42095 0 0.8419 0 0.4118 0 0.81445t0 0.77784q0 0.24708 0.12812 0.38435 0.13727 0.12812 0.35689 0.12812 0.21048 0 0.40265-0.04575 0.20132-0.04576 0.3752-0.13727 0.17387-0.10066 0.34774-0.24708 0.17387-0.15557 0.33859-0.36604v1.0158h-0.30198q-0.18302 0.27453-0.3935 0.48501-0.21048 0.20132-0.47586 0.31114-0.25623 0.10066-0.59482 0.10066-0.28368 0-0.53076-0.10066-0.23793-0.09151-0.40265-0.27453t-0.26538-0.4301q-0.09151-0.24708-0.09151-0.55822 0-0.4118 0-0.8236t0-0.8236 0-0.81445q0-0.29284 0-0.58567 0-0.30199 0-0.59482 0.25623 0 0.50331 0 0.25623 0 0.50331 0zm2.9009 0q0.0366 0 0.05491 0.0183 0.0183 0.0092 0.02745 0.02745 0.0183 0.0183 0.0183 0.05491 0 0.64973 0 1.2995t0 1.3086q0 0.64973 0 1.2903 0 0.18302 0 0.34774t0 0.31114q0 0.13727 0 0.24708-0.17387 0-0.34774 0-0.17387 0-0.33859 0-0.15557 0-0.31114 0-0.02745 0-0.05491-0.0092-0.0183-0.0183-0.0366-0.0366-0.0092-0.0183-0.0092-0.05491 0-0.8053 0-1.6014 0-0.8053 0-1.6014 0-0.8053 0-1.6014 0.17387 0 0.33859 0 0.16472 0 0.32944 0 0.16472 0 0.32944 0z"/>
     <path d="m34.385 40.502h3.8709q0.04575 0 0.07321 0.02745 0.02745 0.02745 0.02745 0.07321 0 0.15557 0 0.29284 0 0.13727 0 0.28368 0 0.13727 0 0.29284h-3.8709q-0.0183 0-0.04576 0-0.0183-0.0092-0.0366-0.0183-0.0092-0.0183-0.0183-0.03661 0-0.0183 0-0.04575 0-0.15557 0-0.29284 0-0.14642 0-0.28368 0-0.13727 0-0.29284zm3.9716 3.9258q0 0.21963 0 0.43925t0 0.43925q0 0.03661-0.02745 0.07321-0.02745 0.02745-0.07321 0.02745-0.02745 0-0.11896 0-0.08236 0-0.21048 0-0.11896 0-0.23793 0t-0.21963 0q-0.4484 0-0.81445-0.10066-0.35689-0.10066-0.62227-0.32944-0.25623-0.22878-0.3935-0.59482-0.13727-0.37519-0.13727-0.89681 0-0.4484 0-0.89681 0-0.4484 0-0.88766t0-0.88766q0-0.4484 0-0.89681 0-0.22878 0-0.45756t0-0.45755q0.25623 0 0.50331 0 0.25623 0 0.50331 0 0.0366 0 0.05491 0.0183 0.0183 0.0092 0.02745 0.02745 0.0183 0.0183 0.0183 0.05491 0 0.53991 0 1.089 0 0.53992 0 1.089 0 0.53991 0 1.0798 0 0.53991 0 1.089 0 0.28368 0.04575 0.47586 0.05491 0.19217 0.16472 0.30199 0.11896 0.10981 0.28368 0.15557 0.17387 0.04576 0.4118 0.04576 0.11896 0 0.22878 0t0.21963 0q0.11896 0 0.23793 0z"/>
     <path d="m42.035 40.402q0.60397 0 1.0615 0.24708 0.45756 0.23793 0.71378 0.69548 0.25623 0.4484 0.25623 1.0981v0.73209q0 0.02745-0.0092 0.05491-0.0092 0.0183-0.03661 0.02745-0.0183 0.0092-0.04575 0.0092h-2.1963q-0.14642 0-0.31114 0-0.15557 0-0.31114 0h-0.33859l-0.06406-0.70463h2.242q0-0.04575 0-0.07321 0-0.03661 0-0.08236 0-0.29284-0.06406-0.50331t-0.19217-0.33859q-0.11896-0.11896-0.29284-0.17387-0.17387-0.05491-0.4118-0.05491-0.49416 0-0.75039 0.25623-0.25623 0.24708-0.25623 0.83275v1.0524q0 0.17387 0.02745 0.32029 0.02745 0.13727 0.08236 0.24708t0.13727 0.19217q0.16472 0.16472 0.42095 0.23793 0.25623 0.07321 0.60397 0.07321 0.32944 0 0.58567-0.0366 0.25623-0.03661 0.47586-0.10066 0.22878-0.07321 0.43925-0.16472h0.16472q0 0.21048 0 0.4301 0 0.21048 0 0.4118 0 0.0183-0.0092 0.03661-0.0092 0.0183-0.02745 0.0366-0.08236 0.09151-0.33859 0.17387-0.25623 0.07321-0.60397 0.11896-0.33859 0.05491-0.69548 0.05491-0.58567 0-1.0341-0.13727-0.4484-0.13727-0.74124-0.40265t-0.4484-0.64058q-0.14642-0.3752-0.14642-0.85105v-1.0158q0-0.49416 0.14642-0.86935 0.15557-0.38435 0.43925-0.64973 0.29284-0.26538 0.67718-0.40265 0.3935-0.13727 0.85105-0.13727z"/>
     <path d="m46.501 44.858v-0.55822q0-0.15557 0-0.30199 0-0.14642 0-0.30199 0-0.15557 0-0.31114 0-0.32029 0-0.64058t0-0.64058 0-0.63142h-0.15557q-0.21048 0-0.42095 0-0.20132 0-0.40265 0-0.04576 0-0.07321-0.02745t-0.02745-0.07321q0-0.21963 0-0.4301 0-0.21963 0-0.43925 0.10981 0 0.23793 0 0.13727 0 0.28368 0 0.15557 0 0.31114 0t0.32944 0q0.17387 0 0.34774 0 0.18302 0 0.35689 0 0 0 0.02745 0.09151 0.03661 0.09151 0.07321 0.24708 0.04576 0.14642 0.09151 0.30199 0.05491 0.15557 0.08236 0.29283 0.0366 0.12812 0.04575 0.18302 0 0.3752 0 0.77784 0 0.3935 0 0.81445 0 0.4118 0 0.83275t0 0.8419zm0.8602-3.4408h0.32029q0.24708-0.4484 0.63142-0.72294 0.3935-0.28368 0.93341-0.28368 0.22878 0 0.35689 0.03661 0.13727 0.0366 0.18302 0.09151 0.0183 0.0092 0.02745 0.0366 0.0092 0.0183 0.0092 0.06406 0 0.25623 0 0.51246 0 0.25623 0 0.52161h-0.16472q-0.19217-0.06406-0.34774-0.08236-0.15557-0.0183-0.34774-0.0183-0.25623 0-0.52161 0.07321-0.26538 0.07321-0.51246 0.22878-0.24708 0.15557-0.47586 0.4118zm-1.9949 3.029h3.7245q0.0366 0 0.05491 0.0183 0.0183 0.0092 0.02745 0.02745 0.0183 0.0183 0.0183 0.05491 0 0.14642 0 0.28368 0 0.13727 0 0.28368 0 0.13727 0 0.29283h-3.7245q-0.04575 0-0.07321-0.02745-0.02745-0.02745-0.02745-0.07321 0-0.15557 0-0.29283 0-0.14642 0-0.28368 0-0.13727 0-0.28368z"/>
    </g>
    <g fill="#b2f">
     <path d="m56.494 40.502q0.17387 0 0.33859 0 0.16472 0 0.32944 0 0.16472 0 0.32944 0 0.0366 0 0.05491 0.0183 0.0183 0.0092 0.02745 0.02745 0.0183 0.0183 0.0183 0.05491 0 0.8236 0 1.6563 0 0.83275 0 1.6655 0 0.8236 0 1.6563t0 1.6563q-0.16472 0-0.32944 0-0.16472 0-0.32944 0-0.16472 0-0.33859 0-0.02745 0-0.05491-0.0183-0.0183-0.0092-0.0366-0.0366-0.0092-0.0183-0.0092-0.04576 0-0.71378 0-1.4276t0-1.4276 0-1.4276 0-1.4276q0-0.24708 0-0.47586 0-0.23793 0-0.4484zm2.6447-0.10066q0.45755 0 0.8053 0.21048 0.34774 0.21048 0.53991 0.61312t0.19217 0.95171v1.5099q0 0.4301-0.10981 0.76869-0.10981 0.32944-0.31114 0.56737-0.20132 0.22878-0.49416 0.35689-0.28368 0.11896-0.64058 0.11896-0.27453 0-0.53076-0.09151-0.24708-0.09151-0.46671-0.25623-0.21048-0.16472-0.3752-0.3935h-0.26538v-0.95171q0.25623 0.32029 0.59482 0.47586 0.34774 0.15557 0.70463 0.15557 0.24708 0 0.42095-0.10066 0.17387-0.10981 0.26538-0.32029 0.10066-0.21048 0.10066-0.50331v-1.153q0-0.23793-0.05491-0.4118-0.05491-0.17387-0.16472-0.28368-0.10066-0.10066-0.24708-0.14642-0.13727-0.05491-0.32029-0.05491-0.21963 0-0.4484 0.10066t-0.4484 0.30199q-0.21048 0.19217-0.40265 0.48501v-1.089h0.26538q0.14642-0.27453 0.35689-0.46671 0.21963-0.19217 0.47586-0.29284 0.26538-0.10066 0.55822-0.10066z"/>
     <path d="m62.973 44.858v-0.55822q0-0.15557 0-0.30199 0-0.14642 0-0.30199 0-0.15557 0-0.31114 0-0.32029 0-0.64058t0-0.64058 0-0.63142h-0.15557q-0.21048 0-0.42095 0-0.20132 0-0.40265 0-0.04576 0-0.07321-0.02745t-0.02745-0.07321q0-0.21963 0-0.4301 0-0.21963 0-0.43925 0.10981 0 0.23793 0 0.13727 0 0.28368 0 0.15557 0 0.31114 0t0.32944 0q0.17387 0 0.34774 0 0.18302 0 0.35689 0 0 0 0.02745 0.09151 0.03661 0.09151 0.07321 0.24708 0.04576 0.14642 0.09151 0.30199 0.05491 0.15557 0.08236 0.29283 0.0366 0.12812 0.04575 0.18302 0 0.3752 0 0.77784 0 0.3935 0 0.81445 0 0.4118 0 0.83275t0 0.8419zm0.8602-3.4408h0.32029q0.24708-0.4484 0.63142-0.72294 0.3935-0.28368 0.93341-0.28368 0.22878 0 0.35689 0.03661 0.13727 0.0366 0.18302 0.09151 0.0183 0.0092 0.02745 0.0366 0.0092 0.0183 0.0092 0.06406 0 0.25623 0 0.51246 0 0.25623 0 0.52161h-0.16472q-0.19217-0.06406-0.34774-0.08236-0.15557-0.0183-0.34774-0.0183-0.25623 0-0.52161 0.07321-0.26538 0.07321-0.51246 0.22878-0.24708 0.15557-0.47586 0.4118zm-1.9949 3.029h3.7245q0.0366 0 0.05491 0.0183 0.0183 0.0092 0.02745 0.02745 0.0183 0.0183 0.0183 0.05491 0 0.14642 0 0.28368 0 0.13727 0 0.28368 0 0.13727 0 0.29283h-3.7245q-0.04575 0-0.07321-0.02745-0.02745-0.02745-0.02745-0.07321 0-0.15557 0-0.29283 0-0.14642 0-0.28368 0-0.13727 0-0.28368z"/>
     <path d="m69.47 40.402q0.48501 0 0.8785 0.15557 0.40265 0.14642 0.68633 0.42095 0.29284 0.27453 0.4484 0.64973 0.16472 0.3752 0.16472 0.83275v0.96086q0 0.62227-0.28368 1.0981-0.27453 0.4667-0.76869 0.73209-0.48501 0.25623-1.1256 0.25623-0.48501 0-0.88766-0.14642-0.40265-0.15557-0.68633-0.4301-0.28368-0.27453-0.4484-0.64973-0.15557-0.37519-0.15557-0.83275v-0.96086q0-0.62227 0.27453-1.089 0.28368-0.4667 0.77784-0.73209t1.1256-0.26538zm0.02745 0.99747q-0.35689 0-0.60397 0.14642-0.23793 0.13727-0.36604 0.3935-0.12812 0.24708-0.12812 0.59482v0.85105q0 0.26538 0.07321 0.48501 0.08236 0.21048 0.22878 0.35689 0.12812 0.13727 0.32029 0.21048 0.19217 0.07321 0.42095 0.07321 0.35689 0 0.59482-0.13727 0.24708-0.14642 0.3752-0.40265 0.12812-0.25623 0.12812-0.59482v-0.85105q0-0.29284-0.07321-0.50331t-0.21048-0.35689q-0.13727-0.12812-0.32944-0.19217-0.18302-0.07321-0.4301-0.07321z"/>
     <path d="m75.73 40.75 0.35689-0.3935q0.0366-0.0366 0.04575-0.07321 0.0092-0.04575 0.0092-0.10981 0-0.21963 0-0.27453 0-0.06406 0-0.12812 0.27453 0 0.61312 0 0.34774 0 0.62227 0 0.04576 0 0.07321 0.02745t0.02745 0.07321v0.58567q0 0.09151-0.0366 0.13727-0.02745 0.0366-0.14642 0.06406-0.11896 0.02745-0.3935 0.08236l-0.43925 0.08236v0.29284zm-0.90596-0.34774q0.65888 0 1.1164 0.19217 0.45756 0.19217 0.69548 0.55822 0.24708 0.35689 0.24708 0.85105v0.21048q0 0.48501-0.24708 0.85105-0.23793 0.35689-0.69548 0.54907-0.45755 0.19217-1.1164 0.19217-0.65888 0-1.1256-0.19217-0.45755-0.19217-0.69548-0.54907-0.23793-0.36604-0.23793-0.85105v-0.21048q0-0.49416 0.23793-0.85105 0.23793-0.36604 0.69548-0.55822 0.46671-0.19217 1.1256-0.19217zm0 0.86935q-0.4667 0-0.73209 0.19217-0.25623 0.18302-0.25623 0.53991v0.21048q0 0.14642 0.04575 0.27453 0.05491 0.11896 0.13727 0.21048 0.12812 0.11896 0.32944 0.18302 0.20132 0.06406 0.47586 0.06406 0.47586 0 0.72294-0.18302 0.25623-0.19217 0.25623-0.54906v-0.21048q0-0.15557-0.04576-0.27453-0.04575-0.12812-0.13727-0.21963-0.11896-0.11896-0.32029-0.17387-0.20132-0.06406-0.47586-0.06406zm-0.91511 2.2146 0.54907 0.05491q-0.05491 0.28368-0.09151 0.47586-0.02745 0.18302-0.02745 0.33859 0 0.12812 0.05491 0.18302 0.06406 0.05491 0.19217 0.05491h1.2354q0.53076 0 0.86935 0.18302 0.34774 0.17387 0.51246 0.49416 0.17387 0.32029 0.17387 0.73209v0.31114q0 0.31114-0.10066 0.55822-0.09151 0.25623-0.28368 0.43925-0.19217 0.18302-0.48501 0.28368t-0.68633 0.10066h-1.8577q-0.35689 0-0.62227-0.07321-0.26538-0.07321-0.4484-0.21048-0.17387-0.13727-0.26538-0.34774-0.09151-0.20132-0.09151-0.45756v-0.16473q0-0.27453 0.10981-0.49416 0.11896-0.21048 0.32944-0.35689 0.21048-0.13727 0.49416-0.18302v-0.32029l0.64973 0.40265q-0.18302 0.03661-0.29284 0.12812-0.10066 0.10066-0.14642 0.21963-0.04575 0.12812-0.04575 0.28368v0.25623q0 0.16472 0.05491 0.27453 0.05491 0.11896 0.18302 0.17387 0.12812 0.06406 0.33859 0.06406h1.4916q0.10981 0 0.19217-0.0183t0.14642-0.05491q0.06406-0.02745 0.10066-0.07321 0.07321-0.07321 0.10066-0.19217 0.0366-0.10981 0.0366-0.23793v-0.23793q0-0.27453-0.12812-0.4118-0.12812-0.12812-0.4484-0.12812h-1.6197q-0.21963 0-0.4118-0.10981-0.19217-0.10981-0.31114-0.29284-0.11896-0.19217-0.11896-0.43925 0-0.30199 0.16472-0.53076 0.17387-0.22878 0.50331-0.34774z"/>
     <path d="m79.445 44.858v-0.55822q0-0.15557 0-0.30199 0-0.14642 0-0.30199 0-0.15557 0-0.31114 0-0.32029 0-0.64058t0-0.64058 0-0.63142h-0.15557q-0.21048 0-0.42095 0-0.20132 0-0.40265 0-0.04576 0-0.07321-0.02745t-0.02745-0.07321q0-0.21963 0-0.4301 0-0.21963 0-0.43925 0.10981 0 0.23793 0 0.13727 0 0.28368 0 0.15557 0 0.31114 0 0.15557 0 0.32944 0 0.17387 0 0.34774 0 0.18302 0 0.35689 0 0 0 0.02745 0.09151 0.03661 0.09151 0.07321 0.24708 0.04576 0.14642 0.09151 0.30199 0.05491 0.15557 0.08236 0.29283 0.0366 0.12812 0.04575 0.18302 0 0.3752 0 0.77784 0 0.3935 0 0.81445 0 0.4118 0 0.83275t0 0.8419zm0.8602-3.4408h0.32029q0.24708-0.4484 0.63142-0.72294 0.3935-0.28368 0.93341-0.28368 0.22878 0 0.35689 0.03661 0.13727 0.0366 0.18302 0.09151 0.0183 0.0092 0.02745 0.0366 0.0092 0.0183 0.0092 0.06406 0 0.25623 0 0.51246 0 0.25623 0 0.52161h-0.16472q-0.19217-0.06406-0.34774-0.08236t-0.34774-0.0183q-0.25623 0-0.52161 0.07321-0.26538 0.07321-0.51246 0.22878-0.24708 0.15557-0.47586 0.4118zm-1.9949 3.029h3.7245q0.0366 0 0.05491 0.0183 0.0183 0.0092 0.02745 0.02745 0.0183 0.0183 0.0183 0.05491 0 0.14642 0 0.28368 0 0.13727 0 0.28368 0 0.13727 0 0.29283h-3.7245q-0.04575 0-0.07321-0.02745-0.02745-0.02745-0.02745-0.07321 0-0.15557 0-0.29283 0-0.14642 0-0.28368 0-0.13727 0-0.28368z"/>
     <path d="m87.827 42.259q0 0.22878 0 0.4667 0 0.22878 0 0.46671 0 0.22878 0 0.4667 0 0.23793 0 0.45756 0 0.09151 0.0092 0.15557 0.0183 0.06406 0.06406 0.10066 0.02745 0.03661 0.08236 0.05491t0.13727 0.0183q0.0183 0 0.03661 0 0.02745 0 0.05491 0h0.16472q0 0.21048 0 0.4301 0 0.21048 0 0.4301 0 0.04576-0.02745 0.07321t-0.07321 0.02745-0.20132 0q-0.14642 0-0.26538 0-0.24708 0-0.43925-0.07321t-0.34774-0.21963q-0.14642-0.14642-0.22878-0.34774-0.07321-0.21048-0.07321-0.4667 0-0.29284 0-0.60397t0-0.60397q0-0.15557 0-0.30199 0-0.14642 0-0.29284 0-0.14642 0-0.29284 0-0.29284-0.10066-0.45755-0.09151-0.17387-0.31114-0.23793-0.21963-0.07321-0.59482-0.07321-0.26538 0-0.51246 0.02745-0.23793 0.0183-0.46671 0.07321-0.22878 0.04576-0.47586 0.12812h-0.15557q0-0.21048 0-0.4301 0-0.22878 0-0.4301 0-0.0366 0.0092-0.05491 0.0092-0.02745 0.0183-0.03661 0.04576-0.04575 0.29284-0.11896 0.24708-0.07321 0.59482-0.12812 0.34774-0.05491 0.69548-0.05491 0.55822 0 0.95171 0.10981 0.40265 0.10066 0.65888 0.32029 0.25623 0.21963 0.37519 0.57652 0.12812 0.34774 0.12812 0.8419zm-2.9741 1.7936q0 0.21963 0.12812 0.34774 0.12812 0.11896 0.3935 0.11896 0.26538 0 0.51246-0.06406 0.25623-0.07321 0.50331-0.21963 0.24708-0.14642 0.49416-0.40265v0.78699h-0.26538q-0.13727 0.28368-0.35689 0.48501-0.21048 0.19217-0.50331 0.29284t-0.64058 0.10066q-0.42095 0-0.73209-0.16472-0.30199-0.16472-0.47586-0.45756-0.16472-0.29284-0.16472-0.68633v-0.31114q0-0.30199 0.10066-0.53991 0.10066-0.24708 0.28368-0.4118 0.19217-0.17387 0.45756-0.26538 0.26538-0.10066 0.59482-0.10066 0.32029 0 0.62227 0t0.58567 0q0.28368 0 0.55822 0 0.07321 0 0.10981 0.13727 0.04575 0.12812 0.05491 0.29284 0.0092 0.16472 0.0092 0.28368-0.31114 0-0.59482 0-0.27453 0-0.55822 0-0.28368 0-0.59482 0-0.13727 0-0.23793 0.0366-0.09151 0.02745-0.16472 0.10066-0.05491 0.05491-0.09151 0.14642-0.02745 0.08236-0.02745 0.18302z"/>
     <path d="m93.821 45.407q-0.14642 0-0.30199 0-0.15557 0-0.30199 0-0.14642 0-0.28368 0-0.02745 0-0.05491-0.0092-0.0183-0.0183-0.0366-0.0366-0.0092-0.0183-0.0092-0.05491 0-0.34774 0-0.69548 0-0.34774 0-0.69548 0-0.34774 0-0.69548 0-0.35689 0-0.70463t0-0.69548q0-0.19217-0.08236-0.26538-0.07321-0.07321-0.21048-0.07321-0.11896 0-0.24708 0.05491-0.11896 0.05491-0.25623 0.17387-0.12812 0.11896-0.27453 0.32029l-0.15557-0.8419h0.4301q0.10981-0.24708 0.24708-0.42095 0.14642-0.17387 0.32029-0.26538 0.18302-0.10066 0.4118-0.10066 0.17387 0 0.32029 0.06406 0.15557 0.05491 0.26538 0.17387 0.10981 0.10981 0.16472 0.27453 0.05491 0.16472 0.05491 0.3752 0 0.40265 0 0.8053t0 0.8053q0 0.3935 0 0.79614t0 0.79614q0 0.22878 0 0.45756t0 0.45755zm-1.9492 0q-0.12812 0-0.26538 0-0.13727 0-0.26538 0t-0.24708 0q-0.02745 0-0.05491-0.0092-0.0183-0.0183-0.0366-0.0366-0.0092-0.0183-0.0092-0.05491 0-0.34774 0-0.69548 0-0.35689 0-0.69548 0-0.34774 0-0.69548 0-0.35689 0-0.70463t0-0.69548q0-0.12812-0.0366-0.20132-0.02745-0.07321-0.09151-0.10066-0.06406-0.0366-0.16472-0.0366-0.10981 0-0.24708 0.05491-0.12812 0.05491-0.26538 0.18302-0.12812 0.11896-0.28368 0.32029l-0.19217-0.85105h0.38435q0.10981-0.25623 0.24708-0.4301 0.13727-0.18302 0.32029-0.26538 0.19217-0.09151 0.42095-0.09151 0.17387 0 0.32029 0.06406 0.14642 0.05491 0.24708 0.17387 0.10981 0.11896 0.16472 0.28368 0.05491 0.16472 0.05491 0.36604 0 0.33859 0 0.75039t0 0.91511 0 1.1164q0 0.60397 0 1.3361zm-1.8394 0q-0.10981 0-0.22878 0-0.10981 0-0.21963 0-0.10066 0-0.21963 0-0.10981 0-0.21963 0-0.02745 0-0.04575 0-0.0183-0.0092-0.0366-0.0183-0.0092-0.0183-0.0183-0.0366 0-0.0183 0-0.04576 0-0.64973 0-1.2995 0-0.64973 0-1.2903 0-0.64973 0-1.2995 0-0.25623 0-0.48501 0-0.23793 0-0.4301 0.09151 0 0.17387 0 0.09151 0 0.17387 0 0.09151 0 0.17387 0 0.09151 0 0.18302 0 0 0 0.04576 0.15557 0.04575 0.14642 0.09151 0.34774 0.05491 0.19217 0.10066 0.34774 0.04575 0.14642 0.04575 0.14642 0 0.58567 0 1.2354 0 0.64973 0 1.3178 0 0.66803 0 1.3544z"/>
     <path d="m99.312 45.407q-0.14642 0-0.30199 0-0.15557 0-0.30199 0t-0.28368 0q-0.02745 0-0.05491-0.0092-0.0183-0.0183-0.03661-0.0366-0.0092-0.0183-0.0092-0.05491 0-0.34774 0-0.69548 0-0.34774 0-0.69548 0-0.34774 0-0.69548 0-0.35689 0-0.70463t0-0.69548q0-0.19217-0.08236-0.26538-0.07321-0.07321-0.21048-0.07321-0.11896 0-0.24708 0.05491-0.11896 0.05491-0.25623 0.17387-0.12812 0.11896-0.27453 0.32029l-0.15557-0.8419h0.4301q0.10981-0.24708 0.24708-0.42095 0.14642-0.17387 0.32029-0.26538 0.18302-0.10066 0.4118-0.10066 0.17387 0 0.32029 0.06406 0.15557 0.05491 0.26538 0.17387 0.10981 0.10981 0.16472 0.27453 0.05491 0.16472 0.05491 0.3752 0 0.40265 0 0.8053t0 0.8053q0 0.3935 0 0.79614t0 0.79614q0 0.22878 0 0.45756t0 0.45755zm-1.9492 0q-0.12812 0-0.26538 0-0.13727 0-0.26538 0-0.12812 0-0.24708 0-0.02745 0-0.05491-0.0092-0.0183-0.0183-0.0366-0.0366-0.0092-0.0183-0.0092-0.05491 0-0.34774 0-0.69548 0-0.35689 0-0.69548 0-0.34774 0-0.69548 0-0.35689 0-0.70463t0-0.69548q0-0.12812-0.0366-0.20132-0.02745-0.07321-0.09151-0.10066-0.06406-0.0366-0.16472-0.0366-0.10981 0-0.24708 0.05491-0.12812 0.05491-0.26538 0.18302-0.12812 0.11896-0.28368 0.32029l-0.19217-0.85105h0.38434q0.10981-0.25623 0.24708-0.4301 0.13727-0.18302 0.32029-0.26538 0.19217-0.09151 0.42095-0.09151 0.17387 0 0.32029 0.06406 0.14642 0.05491 0.24708 0.17387 0.10981 0.11896 0.16472 0.28368 0.05491 0.16472 0.05491 0.36604 0 0.33859 0 0.75039t0 0.91511 0 1.1164q0 0.60397 0 1.3361zm-1.8394 0q-0.10981 0-0.22878 0-0.10981 0-0.21963 0-0.10066 0-0.21963 0-0.10981 0-0.21963 0-0.02745 0-0.04575 0-0.0183-0.0092-0.0366-0.0183-0.0092-0.0183-0.0183-0.0366 0-0.0183 0-0.04576 0-0.64973 0-1.2995 0-0.64973 0-1.2903 0-0.64973 0-1.2995 0-0.25623 0-0.48501 0-0.23793 0-0.4301 0.09151 0 0.17387 0 0.09151 0 0.17387 0 0.09151 0 0.17387 0 0.09151 0 0.18302 0 0 0 0.04575 0.15557 0.04576 0.14642 0.09151 0.34774 0.05491 0.19217 0.10066 0.34774 0.04576 0.14642 0.04576 0.14642 0 0.58567 0 1.2354 0 0.64973 0 1.3178 0 0.66803 0 1.3544z"/>
     <path d="m102.43 40.402q0.60397 0 1.0615 0.24708 0.45755 0.23793 0.71378 0.69548 0.25623 0.4484 0.25623 1.0981v0.73209q0 0.02745-9e-3 0.05491-9e-3 0.0183-0.0366 0.02745-0.0183 0.0092-0.0458 0.0092h-2.1963q-0.14642 0-0.31114 0-0.15556 0-0.31113 0h-0.33859l-0.0641-0.70463h2.242q0-0.04575 0-0.07321 0-0.03661 0-0.08236 0-0.29284-0.0641-0.50331t-0.19217-0.33859q-0.11897-0.11896-0.29284-0.17387-0.17387-0.05491-0.4118-0.05491-0.49416 0-0.75039 0.25623-0.25623 0.24708-0.25623 0.83275v1.0524q0 0.17387 0.0275 0.32029 0.0275 0.13727 0.0824 0.24708t0.13726 0.19217q0.16472 0.16472 0.42095 0.23793 0.25623 0.07321 0.60397 0.07321 0.32944 0 0.58567-0.0366 0.25623-0.03661 0.47586-0.10066 0.22878-0.07321 0.43925-0.16472h0.16472q0 0.21048 0 0.4301 0 0.21048 0 0.4118 0 0.0183-9e-3 0.03661-9e-3 0.0183-0.0275 0.0366-0.0824 0.09151-0.33859 0.17387-0.25623 0.07321-0.60397 0.11896-0.33859 0.05491-0.69549 0.05491-0.58567 0-1.0341-0.13727t-0.74124-0.40265q-0.29283-0.26538-0.4484-0.64058-0.14642-0.3752-0.14642-0.85105v-1.0158q0-0.49416 0.14642-0.86935 0.15557-0.38435 0.43925-0.64973 0.29284-0.26538 0.67718-0.40265 0.3935-0.13727 0.85105-0.13727z"/>
     <path d="m106.9 44.858v-0.55822q0-0.15557 0-0.30199 0-0.14642 0-0.30199 0-0.15557 0-0.31114 0-0.32029 0-0.64058t0-0.64058 0-0.63142h-0.15557q-0.21047 0-0.42095 0-0.20132 0-0.40265 0-0.0458 0-0.0732-0.02745-0.0275-0.02745-0.0275-0.07321 0-0.21963 0-0.4301 0-0.21963 0-0.43925 0.10981 0 0.23793 0 0.13727 0 0.28368 0 0.15557 0 0.31114 0t0.32944 0 0.34774 0q0.18302 0 0.35689 0 0 0 0.0275 0.09151 0.0366 0.09151 0.0732 0.24708 0.0458 0.14642 0.0915 0.30199 0.0549 0.15557 0.0824 0.29283 0.0366 0.12812 0.0458 0.18302 0 0.3752 0 0.77784 0 0.3935 0 0.81445 0 0.4118 0 0.83275t0 0.8419zm0.8602-3.4408h0.32029q0.24708-0.4484 0.63142-0.72294 0.3935-0.28368 0.93342-0.28368 0.22877 0 0.35689 0.03661 0.13726 0.0366 0.18302 0.09151 0.0183 0.0092 0.0275 0.0366 9e-3 0.0183 9e-3 0.06406 0 0.25623 0 0.51246 0 0.25623 0 0.52161h-0.16471q-0.19218-0.06406-0.34775-0.08236-0.15556-0.0183-0.34774-0.0183-0.25623 0-0.52161 0.07321t-0.51246 0.22878q-0.24708 0.15557-0.47586 0.4118zm-1.9949 3.029h3.7245q0.0366 0 0.0549 0.0183 0.0183 0.0092 0.0275 0.02745 0.0183 0.0183 0.0183 0.05491 0 0.14642 0 0.28368 0 0.13727 0 0.28368 0 0.13727 0 0.29283h-3.7245q-0.0458 0-0.0732-0.02745-0.0275-0.02745-0.0275-0.07321 0-0.15557 0-0.29283 0-0.14642 0-0.28368 0-0.13727 0-0.28368z"/>
    </g>
    <path d="m113.18 42.835q-0.14661 0-0.31322 0-0.1666 0-0.33987 0-0.16661 0-0.31322 0-0.02 0-0.04-0.0067-0.0133-0.01333-0.0266-0.02666-7e-3 -0.01999-7e-3 -0.03999v-0.94632q0.14661 0 0.31322 0 0.17327 0 0.33988 0 0.1666 0 0.31322 0 0.0267 0 0.04 0.01333 0.0133 0.0067 0.02 0.01999 0.0133 0.01333 0.0133 0.03999zm-0.83303 3.9052q-0.1866 0-0.31988 0t-0.25324 0q0.06-0.30655 0.11996-0.61977 0.06-0.30656 0.11995-0.61977 0.06-0.30656 0.11996-0.61311 0.06-0.31322 0.11995-0.61977 0.19993 0 0.33988 0t0.27323 0q0.13995 0 0.30656 0 0.0267 0 0.04 0.01333 0.02 0.01333 0.02 0.03332 7e-3 0.01999-7e-3 0.05331-0.0933 0.2599-0.19326 0.55313-0.1 0.28656-0.20659 0.57979-0.1 0.29989-0.20659 0.59312-0.10663 0.29989-0.20659 0.59312-7e-3 0.03332-0.0267 0.03999-0.0133 0.01333-0.04 0.01333z" fill="#575757"/>
   </g>
   <g fill="url(#linearGradient38987)" stroke-width=".24356" aria-label="graphic designer">
    <path d="m14.508 54.076 0.37995-0.41892q0.03897-0.03897 0.04871-0.07794 0.0097-0.04871 0.0097-0.11691 0-0.23382 0-0.29227 0-0.0682 0-0.13639 0.29227 0 0.65274 0 0.37021 0 0.66248 0 0.04871 0 0.07794 0.02923t0.02923 0.07794v0.62351q0 0.09742-0.03897 0.14614-0.02923 0.03897-0.15588 0.0682-0.12665 0.02923-0.41892 0.08768l-0.46764 0.08768v0.31176zm-0.9645-0.37021q0.70145 0 1.1886 0.20459 0.48712 0.20459 0.74042 0.59429 0.26304 0.37995 0.26304 0.90604v0.22408q0 0.51635-0.26304 0.90604-0.2533 0.37995-0.74042 0.58454-0.48712 0.20459-1.1886 0.20459t-1.1983-0.20459q-0.48712-0.20459-0.74042-0.58454-0.2533-0.3897-0.2533-0.90604v-0.22408q0-0.52609 0.2533-0.90604 0.2533-0.3897 0.74042-0.59429 0.49686-0.20459 1.1983-0.20459zm0 0.92553q-0.49686 0-0.77939 0.20459-0.27279 0.19485-0.27279 0.5748v0.22408q0 0.15588 0.04871 0.29227 0.05845 0.12665 0.14614 0.22407 0.13639 0.12665 0.35073 0.19485 0.21433 0.0682 0.5066 0.0682 0.5066 0 0.76965-0.19485 0.27279-0.20459 0.27279-0.58454v-0.22408q0-0.16562-0.04871-0.29227-0.04871-0.13639-0.14614-0.23382-0.12665-0.12665-0.34098-0.18511-0.21433-0.0682-0.5066-0.0682zm-0.97424 2.3577 0.58454 0.05845q-0.05845 0.30201-0.09742 0.5066-0.02923 0.19485-0.02923 0.36047 0 0.13639 0.05845 0.19485 0.0682 0.05845 0.20459 0.05845h1.3152q0.56506 0 0.92553 0.19485 0.37021 0.1851 0.54557 0.52609 0.1851 0.34098 0.1851 0.77939v0.33124q0 0.33124-0.10717 0.59429-0.09742 0.27279-0.30201 0.46764-0.20459 0.19485-0.51635 0.30201-0.31176 0.10717-0.73068 0.10717h-1.9777q-0.37995 0-0.66248-0.07794-0.28253-0.07794-0.47738-0.22408-0.1851-0.14614-0.28253-0.37021-0.09742-0.21433-0.09742-0.48712v-0.17536q0-0.29227 0.11691-0.52609 0.12665-0.22408 0.35073-0.37995 0.22408-0.14614 0.52609-0.19485v-0.34098l0.69171 0.42866q-0.19485 0.03897-0.31176 0.13639-0.10717 0.10717-0.15588 0.23382-0.04871 0.13639-0.04871 0.30201v0.27279q0 0.17536 0.05845 0.29227 0.05845 0.12665 0.19485 0.1851 0.13639 0.0682 0.36047 0.0682h1.588q0.11691 0 0.20459-0.01949 0.08768-0.01948 0.15588-0.05845 0.0682-0.02923 0.10717-0.07794 0.07794-0.07794 0.10717-0.20459 0.03897-0.11691 0.03897-0.2533v-0.2533q0-0.29227-0.13639-0.43841-0.13639-0.13639-0.47738-0.13639h-1.7244q-0.23382 0-0.43841-0.11691-0.20459-0.11691-0.33124-0.31176-0.12665-0.20459-0.12665-0.46764 0-0.3215 0.17536-0.56506 0.18511-0.24356 0.53583-0.37021z"/>
    <path d="m18.464 58.45v-0.59428q0-0.16562 0-0.3215t0-0.3215 0-0.33124q0-0.34098 0-0.68197 0-0.34098 0-0.68197t0-0.67222h-0.16562q-0.22408 0-0.44815 0-0.21433 0-0.42866 0-0.04871 0-0.07794-0.02923t-0.02923-0.07794q0-0.23382 0-0.45789 0-0.23382 0-0.46764 0.11691 0 0.2533 0 0.14614 0 0.30201 0 0.16562 0 0.33124 0t0.35073 0q0.18511 0 0.37021 0 0.19485 0 0.37995 0 0 0 0.02923 0.09742 0.03897 0.09742 0.07794 0.26304 0.04871 0.15588 0.09742 0.3215 0.05845 0.16562 0.08768 0.31176 0.03897 0.13639 0.04871 0.19485 0 0.39944 0 0.8281 0 0.41892 0 0.86707 0 0.43841 0 0.88656t0 0.8963zm0.91578-3.6631h0.34098q0.26304-0.47738 0.67222-0.76965 0.41892-0.30201 0.99372-0.30201 0.24356 0 0.37995 0.03897 0.14614 0.03897 0.19485 0.09742 0.01949 0.0097 0.02923 0.03897 0.0097 0.01948 0.0097 0.0682 0 0.27279 0 0.54557t0 0.55532h-0.17536q-0.20459-0.0682-0.37021-0.08768-0.16562-0.01948-0.37021-0.01948-0.27279 0-0.55532 0.07794-0.28253 0.07794-0.54557 0.24356-0.26304 0.16562-0.5066 0.43841zm-2.1238 3.2247h3.9652q0.03897 0 0.05845 0.01949 0.01949 0.0097 0.02923 0.02923 0.01948 0.01949 0.01948 0.05845 0 0.15588 0 0.30201t0 0.30201q0 0.14614 0 0.31176h-3.9652q-0.04871 0-0.07794-0.02923t-0.02923-0.07794q0-0.16562 0-0.31176 0-0.15588 0-0.30201t0-0.30201z"/>
    <path d="m27.388 55.684q0 0.24356 0 0.49686 0 0.24356 0 0.49686 0 0.24356 0 0.49686 0 0.2533 0 0.48712 0 0.09742 0.0097 0.16562 0.01948 0.0682 0.0682 0.10717 0.02923 0.03897 0.08768 0.05845t0.14614 0.01948q0.01948 0 0.03897 0 0.02923 0 0.05845 0h0.17536q0 0.22408 0 0.45789 0 0.22408 0 0.45789 0 0.04871-0.02923 0.07794t-0.07794 0.02923-0.21433 0q-0.15588 0-0.28253 0-0.26304 0-0.46764-0.07794t-0.37021-0.23382q-0.15588-0.15588-0.24356-0.37021-0.07794-0.22408-0.07794-0.49686 0-0.31176 0-0.643t0-0.643q0-0.16562 0-0.3215 0-0.15588 0-0.31176t0-0.31176q0-0.31176-0.10717-0.48712-0.09742-0.1851-0.33124-0.2533-0.23382-0.07794-0.63326-0.07794-0.28253 0-0.54557 0.02923-0.2533 0.01948-0.49686 0.07794-0.24356 0.04871-0.5066 0.13639h-0.16562q0-0.22408 0-0.45789 0-0.24356 0-0.45789 0-0.03897 0.0097-0.05845 0.0097-0.02923 0.01948-0.03897 0.04871-0.04871 0.31176-0.12665 0.26304-0.07794 0.63326-0.13639 0.37021-0.05845 0.74042-0.05845 0.59428 0 1.0132 0.11691 0.42866 0.10717 0.70145 0.34098 0.27279 0.23382 0.39944 0.61377 0.13639 0.37021 0.13639 0.8963zm-3.1663 1.9095q0 0.23382 0.13639 0.37021 0.13639 0.12665 0.41892 0.12665 0.28253 0 0.54557-0.0682 0.27279-0.07794 0.53583-0.23382 0.26304-0.15588 0.52609-0.42866v0.83784h-0.28253q-0.14614 0.30201-0.37995 0.51635-0.22408 0.20459-0.53583 0.31176-0.31176 0.10717-0.68197 0.10717-0.44815 0-0.77939-0.17536-0.3215-0.17536-0.5066-0.48712-0.17536-0.31176-0.17536-0.73068v-0.33124q0-0.3215 0.10717-0.5748 0.10717-0.26304 0.30201-0.43841 0.20459-0.1851 0.48712-0.28253 0.28253-0.10717 0.63326-0.10717 0.34098 0 0.66248 0 0.3215 0 0.62351 0 0.30202 0 0.59429 0 0.07794 0 0.11691 0.14614 0.04871 0.13639 0.05845 0.31176 0.0097 0.17536 0.0097 0.30201-0.33124 0-0.63326 0-0.29227 0-0.59428 0-0.30202 0-0.63326 0-0.14614 0-0.2533 0.03897-0.09742 0.02923-0.17536 0.10717-0.05845 0.05845-0.09742 0.15588-0.02923 0.08768-0.02923 0.19485z"/>
    <path d="m29.102 53.813q0.18511 0 0.36047 0t0.35073 0 0.35073 0q0.03897 0 0.05845 0.01948 0.01948 0.0097 0.02923 0.02923 0.01949 0.01949 0.01949 0.05845 0 0.87682 0 1.7634 0 0.88656 0 1.7731 0 0.87682 0 1.7634 0 0.88656 0 1.7634-0.17536 0-0.35073 0t-0.35073 0-0.36047 0q-0.02923 0-0.05846-0.01948-0.01948-0.0097-0.03897-0.03897-0.0097-0.01948-0.0097-0.04871 0-0.75991 0-1.5198 0-0.75991 0-1.5198 0-0.75991 0-1.5198t0-1.5198q0-0.26304 0-0.5066 0-0.2533 0-0.47738zm2.8156-0.10717q0.48712 0 0.85733 0.22408t0.5748 0.65274 0.20459 1.0132v1.6075q0 0.45789-0.11691 0.81836-0.11691 0.35073-0.33124 0.60403-0.21433 0.24356-0.52609 0.37995-0.30201 0.12665-0.68197 0.12665-0.29227 0-0.56506-0.09742-0.26304-0.09742-0.49686-0.27279-0.22408-0.17536-0.39944-0.41892h-0.28253v-1.0132q0.27279 0.34098 0.63326 0.5066 0.37021 0.16562 0.75016 0.16562 0.26304 0 0.44815-0.10717 0.1851-0.11691 0.28253-0.34098 0.10717-0.22408 0.10717-0.53583v-1.2275q0-0.2533-0.05845-0.43841-0.05845-0.18511-0.17536-0.30202-0.10717-0.10717-0.26304-0.15588-0.14614-0.05845-0.34098-0.05845-0.23382 0-0.47738 0.10717-0.24356 0.10717-0.47738 0.3215-0.22408 0.20459-0.42867 0.51635v-1.1593h0.28253q0.15588-0.29227 0.37995-0.49686 0.23382-0.20459 0.5066-0.31176 0.28253-0.10717 0.59429-0.10717z"/>
    <path d="m35.055 59.035q-0.02923 0-0.05846-0.0097-0.01948-0.01948-0.03897-0.03897-0.0097-0.01949-0.0097-0.05845 0-0.77939 0-1.5588t0-1.5588q0-0.78913 0-1.5685t0-1.549q0-0.29227 0-0.53583 0-0.2533 0-0.42866 0.21433 0 0.3897 0t0.34098 0q0.16562 0 0.33124 0 0.03897 0 0.05845 0.01948 0.01949 0.0097 0.02923 0.02923 0.01949 0.01949 0.01949 0.05846 0 0.8963 0 1.8023 0 0.8963 0 1.8023 0 0.8963 0 1.8023 0 0.8963 0 1.7926-0.1851 0-0.36047 0-0.16562 0-0.34098 0t-0.36047 0zm0.91578-3.2929v-1.0717h0.3215q0.15588-0.22408 0.33124-0.39944t0.37021-0.30201q0.20459-0.12665 0.42866-0.19485 0.23382-0.0682 0.48712-0.0682 0.3215 0 0.5748 0.10717 0.2533 0.09742 0.42866 0.30201 0.17536 0.19485 0.27279 0.46764 0.09742 0.27279 0.09742 0.61377 0 0.46764 0 0.94501t0 0.95475 0 0.95475q0 0.2533 0 0.49686 0 0.24356 0 0.48712-0.28253 0-0.53583 0-0.24356 0-0.53583 0-0.02923 0-0.05845-0.0097-0.01948-0.01948-0.03897-0.03897-0.0097-0.01949-0.0097-0.05845 0-0.58454 0-1.1593 0-0.58454 0-1.1691 0-0.58454 0-1.1593 0-0.31176-0.14614-0.45789-0.13639-0.14614-0.42866-0.14614-0.17536 0-0.37995 0.05845-0.19485 0.04871-0.40918 0.16562-0.20459 0.11691-0.39944 0.28253t-0.37021 0.39944z"/>
    <path d="m42.449 58.343v-0.5066q0-0.19485 0-0.3897t0-0.3897q0-0.22408 0-0.43841 0-0.22408 0-0.44815t0-0.43841q0-0.22408 0-0.44815t0-0.43841h-0.17536q-0.23382 0-0.45789 0t-0.44815 0-0.45789 0q-0.02923 0-0.05845-0.0097-0.01948-0.01949-0.03897-0.03897-0.0097-0.02923-0.0097-0.05845 0-0.23382 0-0.45789 0-0.23382 0-0.46764 0.44815 0 0.90604 0t0.90604 0 0.8963 0q0.03897 0 0.05845 0.01948 0.01949 0.0097 0.02923 0.02923 0.01948 0.01949 0.01948 0.05845 0 0.46764 0 0.92553 0 0.45789 0 0.91578 0 0.44815 0 0.88656 0 0.43841 0 0.86707t0 0.8281zm-1.8121-0.33124h4.4815q0.03897 0 0.05845 0.01949 0.01948 0.0097 0.02923 0.02923 0.01948 0.01949 0.01948 0.05845 0 0.14614 0 0.30201 0 0.14614 0 0.30201 0 0.14614 0 0.31176h-4.4815q-0.02923 0-0.05845-0.0097-0.01948-0.01948-0.03897-0.03897-0.0097-0.01949-0.0097-0.05845 0-0.16562 0-0.31176 0-0.15588 0-0.30201 0-0.15588 0-0.30201zm1.627-6.6443q0.17536 0 0.35073 0t0.36047 0q0.19485 0 0.37021 0t0.35073 0q0.04871 0 0.07794 0.02923t0.02923 0.07794v1.1496q-0.17536 0-0.35073 0t-0.37021 0q-0.18511 0-0.36047 0t-0.35073 0q-0.04871 0-0.07794-0.02923t-0.02923-0.07794z"/>
    <path d="m49.084 53.706q0.45789 0 0.81836 0.0682 0.36047 0.0682 0.59428 0.16562 0.23382 0.09742 0.31176 0.17536 0.01949 0.0097 0.02923 0.03897 0.0097 0.01948 0.0097 0.04871 0 0.24356 0 0.48712 0 0.23382 0 0.46764h-0.17536q-0.36047-0.16562-0.72094-0.26304-0.35073-0.09742-0.78913-0.09742-0.45789 0-0.76965 0.13639-0.30201 0.12665-0.45789 0.40918-0.14614 0.28253-0.14614 0.74042v0.72094q0 0.30201 0.0682 0.52609 0.07794 0.22408 0.24356 0.3897 0.15588 0.15588 0.40918 0.24356 0.26304 0.08768 0.643 0.08768 0.29227 0 0.54557-0.03897 0.2533-0.04871 0.48712-0.12665 0.24356-0.08768 0.48712-0.19485h0.17536q0 0.24356 0 0.48712 0 0.23382 0 0.47738 0 0.01948-0.0097 0.03897 0 0.01949-0.01948 0.03897-0.09742 0.08768-0.34098 0.1851-0.24356 0.09742-0.61377 0.15588-0.36047 0.0682-0.81836 0.0682-0.5748 0-1.0327-0.15588-0.45789-0.16562-0.77939-0.46764t-0.49686-0.72094q-0.16562-0.41892-0.16562-0.92553v-0.87682q0-0.70145 0.30202-1.2178 0.31176-0.51635 0.87682-0.78913 0.56506-0.28253 1.3347-0.28253z"/>
    <path d="m59.781 53.706q0.33124 0 0.59429 0.10717 0.27279 0.09742 0.48712 0.28253 0.21433 0.18511 0.37021 0.44815h0.3215v1.1301q-0.31176-0.42866-0.68197-0.63326-0.36047-0.20459-0.73068-0.20459-0.26304 0-0.45789 0.11691-0.1851 0.10717-0.28253 0.33124-0.09742 0.21433-0.09742 0.53583v1.2275q0 0.2533 0.05845 0.43841 0.05846 0.1851 0.17536 0.30201 0.10717 0.09742 0.2533 0.15588 0.15588 0.05846 0.35073 0.05846 0.24356 0 0.48712-0.07794 0.24356-0.08768 0.47738-0.27279 0.23382-0.19485 0.44815-0.5066v1.1204h-0.3215q-0.16562 0.27279-0.3897 0.46764t-0.49686 0.30201q-0.26304 0.09742-0.58454 0.09742-0.36047 0-0.67222-0.12665-0.30201-0.12665-0.51635-0.37021-0.21433-0.2533-0.33124-0.60403-0.11691-0.35073-0.11691-0.79888v-1.6075q0-0.44815 0.11691-0.80862 0.11691-0.36047 0.33124-0.60403 0.21433-0.2533 0.51635-0.37995 0.31176-0.12665 0.69171-0.12665zm2.6889-1.9777q0.03897 0 0.05845 0.01948 0.01949 0.0097 0.02923 0.02923 0.01949 0.01949 0.01949 0.05846 0 0.73068 0 1.4808t0 1.5003q0 0.74042 0 1.4711t0 1.4321q0 0.35073 0 0.68197 0 0.3215 0 0.63326-0.12665 0-0.26304 0-0.13639 0-0.27279 0-0.12665 0-0.26304 0t-0.26304 0q-0.02923 0-0.05845-0.0097-0.01948-0.01948-0.03897-0.03897-0.0097-0.01949-0.0097-0.05845 0-0.77939 0-1.5588t0-1.549q0-0.77939 0-1.5588t0-1.5588q0-0.24356 0-0.48712t0-0.48712q0.12665 0 0.26304 0 0.13639 0 0.26304 0 0.13639 0 0.27279 0 0.13639 0 0.26304 0z"/>
    <path d="m66.318 53.706q0.643 0 1.1301 0.26304 0.48712 0.2533 0.75991 0.74042 0.27279 0.47738 0.27279 1.1691v0.77939q0 0.02923-0.0097 0.05845-0.0097 0.01949-0.03897 0.02923-0.01949 0.0097-0.04871 0.0097h-2.3382q-0.15588 0-0.33124 0-0.16562 0-0.33124 0h-0.36047l-0.0682-0.75016h2.3869q0-0.04871 0-0.07794 0-0.03897 0-0.08768 0-0.31176-0.0682-0.53583t-0.20459-0.36047q-0.12665-0.12665-0.31176-0.1851-0.1851-0.05846-0.43841-0.05846-0.52609 0-0.79888 0.27279-0.27279 0.26304-0.27279 0.88656v1.1204q0 0.1851 0.02923 0.34098 0.02923 0.14614 0.08768 0.26304 0.05845 0.11691 0.14614 0.20459 0.17536 0.17536 0.44815 0.2533 0.27279 0.07794 0.643 0.07794 0.35073 0 0.62351-0.03897t0.5066-0.10717q0.24356-0.07794 0.46764-0.17536h0.17536q0 0.22408 0 0.45789 0 0.22408 0 0.43841 0 0.01949-0.0097 0.03897-0.0097 0.01949-0.02923 0.03897-0.08768 0.09742-0.36047 0.18511-0.27279 0.07794-0.643 0.12665-0.36047 0.05845-0.74042 0.05845-0.62351 0-1.1009-0.14614-0.47738-0.14614-0.78913-0.42866-0.31176-0.28253-0.47738-0.68197-0.15588-0.39944-0.15588-0.90604v-1.0814q0-0.52609 0.15588-0.92553 0.16562-0.40918 0.46764-0.69171 0.31176-0.28253 0.72094-0.42867 0.41892-0.14614 0.90604-0.14614z"/>
    <path d="m72.076 58.022q0.63326 0 0.87682-0.16562 0.24356-0.16562 0.24356-0.44815 0-0.14614-0.05845-0.24356-0.05845-0.09742-0.21433-0.17536-0.15588-0.07794-0.44815-0.12665l-0.98398-0.16562q-0.47738-0.08768-0.78913-0.2533-0.31176-0.16562-0.46764-0.42866-0.14614-0.27279-0.14614-0.62351 0-0.37995 0.15588-0.68197 0.15588-0.31176 0.44815-0.52609 0.29227-0.22408 0.71119-0.34098 0.42866-0.11691 0.9645-0.11691 0.46764 0 0.80862 0.05845 0.35073 0.04871 0.55532 0.12665 0.20459 0.07794 0.2533 0.12665 0.01948 0.0097 0.01948 0.02923 0.0097 0.0097 0.0097 0.02923 0 0.0097 0 0.03897 0 0.23382 0 0.47738 0 0.23382 0 0.46764h-0.16562q-0.27279-0.09742-0.49686-0.14614-0.22408-0.05845-0.46764-0.07794-0.23382-0.02923-0.53583-0.02923-0.3897 0-0.63326 0.07794-0.23382 0.0682-0.35073 0.20459-0.10717 0.13639-0.10717 0.3215 0 0.13639 0.05845 0.23382 0.05845 0.09742 0.20459 0.16562 0.14614 0.05845 0.39944 0.09742l0.94501 0.15588q0.52609 0.08768 0.84759 0.27279 0.33124 0.17536 0.48712 0.45789t0.15588 0.67222q0 0.53583-0.26304 0.90604-0.26304 0.36047-0.77939 0.54557-0.51635 0.1851-1.2568 0.1851-0.40918 0-0.75991-0.04871-0.35073-0.03897-0.62351-0.10717-0.27279-0.0682-0.44815-0.13639-0.17536-0.07794-0.23382-0.13639-0.0097-0.01948-0.01949-0.02923 0-0.01948 0-0.04871 0-0.24356 0-0.49686 0-0.26304 0-0.52609h0.16562q0.22408 0.11691 0.43841 0.19485 0.21433 0.07794 0.43841 0.13639 0.23382 0.04871 0.48712 0.07794 0.26304 0.01948 0.5748 0.01948z"/>
    <path d="m77.522 58.343v-0.5066q0-0.19485 0-0.3897t0-0.3897q0-0.22408 0-0.43841 0-0.22408 0-0.44815t0-0.43841q0-0.22408 0-0.44815t0-0.43841h-0.17536q-0.23382 0-0.45789 0t-0.44815 0-0.45789 0q-0.02923 0-0.05846-0.0097-0.01949-0.01949-0.03897-0.03897-0.0097-0.02923-0.0097-0.05845 0-0.23382 0-0.45789 0-0.23382 0-0.46764 0.44815 0 0.90604 0 0.45789 0 0.90604 0t0.8963 0q0.03897 0 0.05845 0.01948 0.01948 0.0097 0.02923 0.02923 0.01949 0.01949 0.01949 0.05845 0 0.46764 0 0.92553 0 0.45789 0 0.91578 0 0.44815 0 0.88656 0 0.43841 0 0.86707t0 0.8281zm-1.8121-0.33124h4.4815q0.03897 0 0.05845 0.01949 0.01949 0.0097 0.02923 0.02923 0.01949 0.01949 0.01949 0.05845 0 0.14614 0 0.30201 0 0.14614 0 0.30201 0 0.14614 0 0.31176h-4.4815q-0.02923 0-0.05845-0.0097-0.01948-0.01948-0.03897-0.03897-0.0097-0.01949-0.0097-0.05845 0-0.16562 0-0.31176 0-0.15588 0-0.30201 0-0.15588 0-0.30201zm1.627-6.6443q0.17536 0 0.35073 0t0.36047 0q0.19485 0 0.37021 0t0.35073 0q0.04871 0 0.07794 0.02923t0.02923 0.07794v1.1496q-0.17536 0-0.35073 0t-0.37021 0q-0.1851 0-0.36047 0t-0.35073 0q-0.04871 0-0.07794-0.02923t-0.02923-0.07794z"/>
    <path d="m84.653 54.076 0.37995-0.41892q0.03897-0.03897 0.04871-0.07794 0.0097-0.04871 0.0097-0.11691 0-0.23382 0-0.29227 0-0.0682 0-0.13639 0.29227 0 0.65274 0 0.37021 0 0.66248 0 0.04871 0 0.07794 0.02923t0.02923 0.07794v0.62351q0 0.09742-0.03897 0.14614-0.02923 0.03897-0.15588 0.0682-0.12665 0.02923-0.41892 0.08768l-0.46763 0.08768v0.31176zm-0.9645-0.37021q0.70145 0 1.1886 0.20459 0.48712 0.20459 0.74042 0.59429 0.26304 0.37995 0.26304 0.90604v0.22408q0 0.51635-0.26304 0.90604-0.2533 0.37995-0.74042 0.58454-0.48712 0.20459-1.1886 0.20459t-1.1983-0.20459q-0.48712-0.20459-0.74042-0.58454-0.2533-0.3897-0.2533-0.90604v-0.22408q0-0.52609 0.2533-0.90604 0.2533-0.3897 0.74042-0.59429 0.49686-0.20459 1.1983-0.20459zm0 0.92553q-0.49686 0-0.77939 0.20459-0.27279 0.19485-0.27279 0.5748v0.22408q0 0.15588 0.04871 0.29227 0.05845 0.12665 0.14614 0.22407 0.13639 0.12665 0.35073 0.19485 0.21433 0.0682 0.5066 0.0682 0.5066 0 0.76965-0.19485 0.27279-0.20459 0.27279-0.58454v-0.22408q0-0.16562-0.04871-0.29227-0.04871-0.13639-0.14614-0.23382-0.12665-0.12665-0.34098-0.18511-0.21433-0.0682-0.5066-0.0682zm-0.97424 2.3577 0.58454 0.05845q-0.05845 0.30201-0.09742 0.5066-0.02923 0.19485-0.02923 0.36047 0 0.13639 0.05845 0.19485 0.0682 0.05845 0.20459 0.05845h1.3152q0.56506 0 0.92553 0.19485 0.37021 0.1851 0.54557 0.52609 0.18511 0.34098 0.18511 0.77939v0.33124q0 0.33124-0.10717 0.59429-0.09742 0.27279-0.30201 0.46764-0.20459 0.19485-0.51635 0.30201-0.31176 0.10717-0.73068 0.10717h-1.9777q-0.37995 0-0.66248-0.07794-0.28253-0.07794-0.47738-0.22408-0.18511-0.14614-0.28253-0.37021-0.09742-0.21433-0.09742-0.48712v-0.17536q0-0.29227 0.11691-0.52609 0.12665-0.22408 0.35073-0.37995 0.22408-0.14614 0.52609-0.19485v-0.34098l0.69171 0.42866q-0.19485 0.03897-0.31176 0.13639-0.10717 0.10717-0.15588 0.23382-0.04871 0.13639-0.04871 0.30201v0.27279q0 0.17536 0.05846 0.29227 0.05845 0.12665 0.19485 0.1851 0.13639 0.0682 0.36047 0.0682h1.588q0.11691 0 0.20459-0.01949 0.08768-0.01948 0.15588-0.05845 0.0682-0.02923 0.10717-0.07794 0.07794-0.07794 0.10717-0.20459 0.03897-0.11691 0.03897-0.2533v-0.2533q0-0.29227-0.13639-0.43841-0.13639-0.13639-0.47738-0.13639h-1.7244q-0.23382 0-0.43841-0.11691-0.20459-0.11691-0.33124-0.31176-0.12665-0.20459-0.12665-0.46764 0-0.3215 0.17536-0.56506 0.18511-0.24356 0.53583-0.37021z"/>
    <path d="m91.892 59.035q-0.28253 0-0.53583 0-0.24356 0-0.53583 0-0.02923 0-0.05845-0.0097-0.01949-0.01948-0.03897-0.03897-0.0097-0.01949-0.0097-0.05845 0-0.58454 0-1.1593 0-0.58454 0-1.1691 0-0.58454 0-1.1593 0-0.31176-0.14614-0.45789-0.13639-0.14614-0.42866-0.14614-0.17536 0-0.37995 0.05845-0.19485 0.04871-0.40918 0.16562-0.20459 0.11691-0.39944 0.28253-0.19485 0.16562-0.37021 0.39944v-1.0717h0.3215q0.20459-0.29227 0.44815-0.5066 0.2533-0.21433 0.54557-0.33124 0.29227-0.12665 0.62351-0.12665 0.3215 0 0.5748 0.10717 0.2533 0.09742 0.42866 0.30201 0.17536 0.19485 0.27279 0.46764 0.09742 0.27279 0.09742 0.61377 0 0.46764 0 0.94501t0 0.95475 0 0.95475q0 0.2533 0 0.49686 0 0.24356 0 0.48712zm-3.1663 0q-0.1851 0-0.36047 0-0.16562 0-0.34098 0t-0.36047 0q-0.02923 0-0.04871 0-0.01949-0.0097-0.03897-0.01948-0.0097-0.01949-0.01948-0.03897 0-0.01948 0-0.04871 0-0.52609 0-1.0424 0-0.51635 0-1.0327 0-0.51635 0-1.0327 0-0.52609 0-1.0424 0-0.29227 0-0.53583 0-0.2533 0-0.42866 0.21433 0 0.3897 0t0.34098 0q0.16562 0 0.33124 0 0.03897 0 0.05845 0.01948 0.01949 0.0097 0.02923 0.02923 0.01948 0.01949 0.01948 0.05845 0 0.84759 0 1.7049 0 0.84759 0 1.7049 0 0.84759 0 1.7049z"/>
    <path d="m95.545 53.706q0.643 0 1.1301 0.26304 0.48712 0.2533 0.75991 0.74042 0.27279 0.47738 0.27279 1.1691v0.77939q0 0.02923-0.0097 0.05845-0.0097 0.01949-0.03897 0.02923-0.01949 0.0097-0.04871 0.0097h-2.3382q-0.15588 0-0.33124 0-0.16562 0-0.33124 0h-0.36047l-0.0682-0.75016h2.3869q0-0.04871 0-0.07794 0-0.03897 0-0.08768 0-0.31176-0.0682-0.53583t-0.20459-0.36047q-0.12665-0.12665-0.31176-0.1851-0.1851-0.05846-0.43841-0.05846-0.52609 0-0.79888 0.27279-0.27279 0.26304-0.27279 0.88656v1.1204q0 0.1851 0.02923 0.34098 0.02923 0.14614 0.08768 0.26304 0.05845 0.11691 0.14614 0.20459 0.17536 0.17536 0.44815 0.2533 0.27279 0.07794 0.643 0.07794 0.35073 0 0.62351-0.03897t0.5066-0.10717q0.24356-0.07794 0.46764-0.17536h0.17536q0 0.22408 0 0.45789 0 0.22408 0 0.43841 0 0.01949-0.0097 0.03897-0.0097 0.01949-0.02923 0.03897-0.08768 0.09742-0.36047 0.18511-0.27279 0.07794-0.643 0.12665-0.36047 0.05845-0.74042 0.05845-0.62351 0-1.1009-0.14614-0.47746-0.14608-0.78921-0.42861-0.31176-0.28253-0.47738-0.68197-0.15588-0.39944-0.15588-0.90604v-1.0814q0-0.52609 0.15588-0.92553 0.16562-0.40918 0.46763-0.69171 0.31176-0.28253 0.72094-0.42867 0.41892-0.14614 0.90604-0.14614z"/>
    <path d="m100.3 58.45v-0.59428q0-0.16562 0-0.3215t0-0.3215 0-0.33124q0-0.34098 0-0.68197 0-0.34098 0-0.68197t0-0.67222h-0.16562q-0.22408 0-0.44815 0-0.21433 0-0.42866 0-0.04871 0-0.07794-0.02923t-0.02923-0.07794q0-0.23382 0-0.45789 0-0.23382 0-0.46764 0.11691 0 0.2533 0 0.14614 0 0.30201 0 0.16562 0 0.33124 0 0.16562 0 0.35073 0 0.1851 0 0.37021 0 0.19485 0 0.37995 0 0 0 0.0292 0.09742 0.039 0.09742 0.0779 0.26304 0.0487 0.15588 0.0974 0.3215 0.0585 0.16562 0.0877 0.31176 0.039 0.13639 0.0487 0.19485 0 0.39944 0 0.8281 0 0.41892 0 0.86707 0 0.43841 0 0.88656t0 0.8963zm0.91578-3.6631h0.34098q0.26305-0.47738 0.67223-0.76965 0.41892-0.30201 0.99372-0.30201 0.24356 0 0.37996 0.03897 0.14613 0.03897 0.19484 0.09742 0.0195 0.0097 0.0292 0.03897 0.01 0.01948 0.01 0.0682 0 0.27279 0 0.54557t0 0.55532h-0.17536q-0.20459-0.0682-0.37021-0.08768t-0.37021-0.01948q-0.27279 0-0.55532 0.07794t-0.54557 0.24356q-0.26305 0.16562-0.5066 0.43841zm-2.1238 3.2247h3.9652q0.039 0 0.0585 0.01949 0.0195 0.0097 0.0292 0.02923 0.0195 0.01949 0.0195 0.05845 0 0.15588 0 0.30201t0 0.30201q0 0.14614 0 0.31176h-3.9652q-0.04871 0-0.07794-0.02923t-0.02923-0.07794q0-0.16562 0-0.31176 0-0.15588 0-0.30201t0-0.30201z"/>
   </g>
  </g>
  <rect transform="matrix(.31637 .02492 0 .31735 31.415 37.303)" x="13.241" y="23.157" width="64.87" height="53.801" ry="13.23" fill="#ea2b5c" fill-opacity=".6321" filter="url(#filter966)" opacity=".48885" stroke="#7d7d7d" stroke-linejoin="round" stroke-width=".26499" style="mix-blend-mode:screen;paint-order:markers stroke fill"/>
 </g>
 <g transform="matrix(.65881 0 0 .65881 8.4463 11.406)" opacity=".77119">
  <g transform="matrix(.42174 0 0 .42174 93.306 95.983)" fill="#bbb">
   <g stroke-width=".87029">
    <path d="m21.771 5.7905q0.14307 0.22074 0.25247 0.41331 0.11782 0.18278 0.25247 0.40489 0.06733 0.098434 0.11782 0.11545 0.05049 0.01702 0.13465 0.00331 0.03366-0.00548 0.05049-0.00822 0.02525-0.00412 0.05891-0.0096l0.16831-0.027424q0 0.28613 0 0.51336 0 0.23564 0 0.53019 0 0.042078-0.02525 0.071439t-0.06733 0.036217q-0.05891 0.0096-0.16831 0.027424-0.10099 0.016455-0.18514 0.030166-0.30296 0.049363-0.50494 0.031778-0.19355-0.018962-0.33662-0.1303-0.13465-0.11271-0.26088-0.32778-0.1599-0.2685-0.28613-0.50881-0.12623-0.24032-0.28613-0.50881zm-1.2371-4.8815q0.63959-0.10421 1.094 0.057383 0.46286 0.16022 0.71533 0.58195 0.25247 0.41331 0.25247 1.0697v2.1376q0 0.65642-0.25247 1.1604-0.25247 0.49558-0.71533 0.80664-0.45444 0.30968-1.094 0.41389-0.63117 0.10284-1.094-0.057383-0.46286-0.16022-0.71533-0.57353-0.25247-0.42173-0.25247-1.0781v-2.1376q0-0.65642 0.25247-1.152 0.25247-0.504 0.71533-0.81505 0.46286-0.31105 1.094-0.41389zm-0.79949 4.3128q0 0.23564 0.05049 0.41256 0.05049 0.1685 0.16831 0.26712 0.09257 0.07749 0.23564 0.10467 0.15148 0.025813 0.34504-0.00573 0.28613-0.04662 0.45445-0.17503 0.17673-0.1382 0.26088-0.35389 0.08416-0.21569 0.08416-0.51024v-2.1376q0-0.1599-0.02525-0.29043-0.01683-0.13191-0.06733-0.22467-0.05049-0.10118-0.12623-0.16458-0.10099-0.084533-0.24405-0.1033-0.14307-0.027183-0.33663 0.00435-0.27772 0.04525-0.45444 0.18345-0.17673 0.12978-0.26089 0.34547-0.08416 0.21569-0.08416 0.51024z"/>
    <path d="m17.048 4.8601q0.21039 0.33601 0.3787 0.61155 0.17673 0.27417 0.3787 0.61155 0.06733 0.098434 0.11782 0.13229 0.05891 0.03248 0.14307 0.018768 0.03366-0.00548 0.05049-0.00822 0.02525-0.00412 0.05891-0.0096l0.16831-0.027424q0 0.28613 0 0.52177 0 0.23564 0 0.52177 0 0.042079-0.02525 0.071439-0.02525 0.029361-0.06733 0.036216-0.05891 0.0096-0.16831 0.027424-0.10099 0.016455-0.18514 0.030166-0.30296 0.049363-0.50494 0.040193-0.20196-0.0091743-0.34503-0.10368-0.14307-0.094509-0.26088-0.30254-0.21039-0.37809-0.42078-0.75617-0.20198-0.37946-0.42078-0.75617zm-3.1643-2.6992q0.57226-0.093241 1.1529-0.18785 0.58068-0.094612 1.1529-0.18785 0.53019-0.086385 0.90048-0.020482 0.37029 0.057487 0.59751 0.2561 0.23564 0.19725 0.33663 0.509 0.1094 0.30197 0.1094 0.70592v0.49652q0 0.38712-0.11782 0.7177-0.11782 0.33058-0.34504 0.58641-0.22722 0.24741-0.54702 0.41734-0.3198 0.16151-0.72375 0.22733-0.23564 0.038394-0.47969 0.078158-0.23564 0.038394-0.47128 0.076786l-0.09257 0.057161v-1.1361q0.21881-0.035651 0.43762-0.071302 0.22722-0.037022 0.44603-0.072673 0.20198-0.032908 0.32821-0.11239 0.13465-0.080849 0.19356-0.21668 0.06733-0.1372 0.06733-0.32235v-0.5891q0-0.14307-0.03366-0.23857-0.03366-0.095503-0.10099-0.15186-0.06733-0.056356-0.18514-0.070822-0.1094-0.024253-0.2693 0.0018-0.37029 0.060333-0.75741 0.12341-0.3787 0.061703-0.75741 0.12341-0.37029 0.060333-0.74899 0.12204-0.04208 0.00686-0.06733-0.014277-0.02525-0.021133-0.02525-0.063212 0-0.27772 0-0.52177 0-0.24405 0-0.52177zm1.6831 5.6167q-0.31138 0.050734-0.60593 0.098726-0.28613 0.04662-0.60593 0.098726-0.04208 0.00688-0.06733-0.014273-0.02525-0.021134-0.02525-0.063212 0-0.67325 0-1.296 0-0.63117 0-1.2455 0-0.62276 0-1.2539 0-0.63117 0-1.296l1.4054-0.22899-0.10099 0.26892q0 0.24405 0 0.47969 0 0.23564 0 0.45445 0 0.53019 0 1.0351 0 0.50494 0 1.0267 0 0.52177 0 1.1109 0 0.22722 0 0.43761 0 0.21039 0 0.38712z"/>
    <path d="m9.471 2.8799q0.31979-0.052105 0.60593-0.098726 0.29455-0.047992 0.60593-0.098726 0.04208-0.00686 0.06732 0.014277 0.02525 0.021133 0.02525 0.063212 0 0.72375 0 1.4475t0 1.4559q0 0.72375 0 1.4475 0 0.72375 0 1.4475-0.31138 0.050729-0.60593 0.098726-0.28613 0.046621-0.60593 0.098725-0.02525 0.00409-0.050494-1.879e-4 -0.016831-0.01409-0.033663-0.02818-0.00844-0.015456-0.00844-0.049119 0-0.81632 0-1.6326 0-0.81632 0-1.6326 0-0.81632 0-1.6326 0-0.22722 0-0.44603 0-0.22722 0-0.45445zm0.55543 2.2995 1.6495-0.26875q0.14307-0.023311 0.27772-0.04525 0.14307-0.023311 0.27772-0.04525l0.31138-0.12648 0.27772 1.1666-2.7014 0.44015q-0.02525 0.00412-0.04208 0.00686-0.01683-0.00567-0.03366-0.011347-0.0084-0.015456-0.01683-0.03092 0-0.016831 0-0.042078zm3.4841 2.9332q-0.31138 0.050729-0.60593 0.098726-0.28613 0.046621-0.60593 0.098726-0.02525 0.00409-0.05049-1.888e-4 -0.01683-0.01409-0.03366-0.02818-0.0084-0.015456-0.0084-0.049119 0-0.72375 0-1.4475t0-1.4475q0-0.73216 0-1.4559t0-1.4475q0.3198-0.052105 0.60593-0.098726 0.29455-0.047992 0.60593-0.098726 0.02525-0.00412 0.04208 0.00156 0.01683-0.00274 0.02525 0.012717 0.01683 0.00567 0.01683 0.022505 0.0084 0.015455 0.0084 0.040703 0 0.60593 0 1.2203 0 0.60593 0 1.2203 0 0.60593 0 1.2203 0 0.60593 0 1.2119 0 0.25247 0 0.48811 0 0.23564 0 0.43761z"/>
    <path d="m7.258 3.0721q0.59751-0.097355 1.0099-0.021477 0.42078 0.074506 0.61434 0.23653 0.033663 0.028178 0.042078 0.060469 0.00842 0.032291 0.00842 0.082785 0 0.1599 0 0.37029 0 0.20198 0 0.41237 0 0.20198 0 0.39554-0.2693 0.043878-0.55543 0.090499-0.27772 0.04525-0.54702 0.089128-0.042078 0.00686-0.067325-0.014278-0.025247-0.021133-0.025247-0.063212 0-0.067325 0-0.14307 0-0.075741 0-0.1599 0-0.092572 0-0.19356 0-0.1094 0-0.24405l0.23563 0.23932q-0.19356-0.027372-0.39554-0.019711-0.20198-7.542e-4 -0.39554 0.030783-0.20198 0.032909-0.35346 0.091253-0.15148 0.049928-0.26089 0.13508-0.1094 0.085151-0.16831 0.20415-0.050494 0.10922-0.050494 0.2607v0.17673q0 0.15148 0.042078 0.24561 0.050494 0.092761 0.18514 0.14656 0.14307 0.05243 0.42078 0.091338l0.79949 0.11379q0.39554 0.053373 0.65642 0.15393 0.26089 0.10056 0.41237 0.26102 0.15148 0.15205 0.21039 0.37809 0.067325 0.21625 0.067325 0.5108v0.40395q0 0.49652-0.2693 0.90228-0.2693 0.40575-0.77424 0.68158-0.49652 0.26604-1.2034 0.38123-0.40395 0.06582-0.76582 0.074288-0.35346 0.0071364-0.62276-0.050015-0.26089-0.058483-0.40395-0.16982-0.025247-0.021131-0.042078-0.043636-0.00842-0.032296-0.00842-0.11645 0-0.1599 0-0.3198 0-0.1599 0-0.33663t0-0.37029l0.16832-0.027423q0.3787 0.18235 0.79107 0.2414 0.41237 0.050633 0.97622-0.041243 0.49652-0.080901 0.70692-0.25825 0.21039-0.18576 0.21039-0.36249v-0.31138q0-0.11782-0.042078-0.19512-0.033663-0.078672-0.16831-0.13247-0.12623-0.063589-0.42078-0.099754l-0.79107-0.11516q-0.42078-0.057675-0.69008-0.18211-0.2693-0.12444-0.42078-0.2849-0.14307-0.17025-0.20198-0.37104-0.05891-0.20921-0.05891-0.43643v-0.4292q0-0.34504 0.14307-0.65448 0.15148-0.31923 0.4292-0.58329 0.28613-0.26543 0.68167-0.44769 0.39554-0.18227 0.89206-0.26317z"/>
   </g>
   <rect transform="matrix(.97749 -.21098 0 1 0 0)" x="3.4328" y="2.6809" width="1.3546" height="7.8188" stroke-width=".27144"/>
  </g>
  <text x="102.96198" y="96.996643" fill="#bbbbbb" font-family="Recursive" font-size="2.0024px" letter-spacing="0px" stroke-width=".050059" style="line-height:1.25" xml:space="preserve"><tspan x="102.96198" y="96.996643" fill="#bbbbbb" stroke-width=".050059"></tspan></text>
 </g>
</svg>
