<?xml version="1.0" encoding="UTF-8" standalone="no"?>
<!-- Created with Inkscape (http://www.inkscape.org/) -->

<svg
   width="300"
   height="300"
   viewBox="0 0 79.374998 79.375005"
   version="1.1"
   id="svg5"
   inkscape:version="1.1.2 (0a00cf5339, 2022-02-04)"
   sodipodi:docname="home-illustration.svg"
   xmlns:inkscape="http://www.inkscape.org/namespaces/inkscape"
   xmlns:sodipodi="http://sodipodi.sourceforge.net/DTD/sodipodi-0.dtd"
   xmlns:xlink="http://www.w3.org/1999/xlink"
   xmlns="http://www.w3.org/2000/svg"
   xmlns:svg="http://www.w3.org/2000/svg">
  <sodipodi:namedview
     id="namedview7"
     pagecolor="#000000"
     bordercolor="#288aa4"
     borderopacity="1"
     inkscape:pageshadow="2"
     inkscape:pageopacity="0"
     inkscape:pagecheckerboard="true"
     inkscape:document-units="mm"
     showgrid="false"
     units="px"
     width="300px"
     inkscape:showpageshadow="false"
     inkscape:zoom="3.0523846"
     inkscape:cx="195.09337"
     inkscape:cy="167.57391"
     inkscape:window-width="1920"
     inkscape:window-height="1048"
     inkscape:window-x="0"
     inkscape:window-y="32"
     inkscape:window-maximized="1"
     inkscape:current-layer="g33495" />
  <defs
     id="defs2">
    <linearGradient
       inkscape:collect="always"
       id="linearGradient57454">
      <stop
         style="stop-color:#7f00e4;stop-opacity:1"
         offset="0"
         id="stop57452" />
      <stop
         style="stop-color:#e17337;stop-opacity:0.91764712"
         offset="1"
         id="stop57450" />
    </linearGradient>
    <linearGradient
       inkscape:collect="always"
       xlink:href="#linearGradient57454"
       id="linearGradient57592"
       gradientUnits="userSpaceOnUse"
       x1="-67.981567"
       y1="-39.561104"
       x2="38.252563"
       y2="-34.246338"
       spreadMethod="repeat"
       gradientTransform="matrix(1.143714,0,0,1.143714,63.375738,99.668758)" />
    <filter
       inkscape:collect="always"
       style="color-interpolation-filters:sRGB"
       id="filter966"
       x="-1.1282155"
       y="-1.3603466"
       width="3.256431"
       height="3.7206933">
      <feGaussianBlur
         inkscape:collect="always"
         stdDeviation="30.43952"
         id="feGaussianBlur968" />
    </filter>
    <linearGradient
       inkscape:collect="always"
       xlink:href="#linearGradient57454"
       id="linearGradient38987"
       gradientUnits="userSpaceOnUse"
       gradientTransform="matrix(1.143714,0,0,1.143714,63.375738,99.668758)"
       x1="-67.981567"
       y1="-39.561104"
       x2="38.252563"
       y2="-34.246338"
       spreadMethod="repeat" />
    <linearGradient
       inkscape:collect="always"
       xlink:href="#linearGradient57454"
       id="linearGradient38989"
       gradientUnits="userSpaceOnUse"
       gradientTransform="matrix(1.143714,0,0,1.143714,63.375738,99.668758)"
       x1="-67.981567"
       y1="-39.561104"
       x2="38.252563"
       y2="-34.246338"
       spreadMethod="repeat" />
    <linearGradient
       inkscape:collect="always"
       xlink:href="#linearGradient57454"
       id="linearGradient38991"
       gradientUnits="userSpaceOnUse"
       gradientTransform="matrix(1.143714,0,0,1.143714,63.375738,99.668758)"
       x1="-67.981567"
       y1="-39.561104"
       x2="38.252563"
       y2="-34.246338"
       spreadMethod="repeat" />
    <linearGradient
       inkscape:collect="always"
       xlink:href="#linearGradient57454"
       id="linearGradient38993"
       gradientUnits="userSpaceOnUse"
       gradientTransform="matrix(1.143714,0,0,1.143714,63.375738,99.668758)"
       x1="-67.981567"
       y1="-39.561104"
       x2="38.252563"
       y2="-34.246338"
       spreadMethod="repeat" />
    <linearGradient
       inkscape:collect="always"
       xlink:href="#linearGradient57454"
       id="linearGradient38995"
       gradientUnits="userSpaceOnUse"
       gradientTransform="matrix(1.143714,0,0,1.143714,63.375738,99.668758)"
       x1="-67.981567"
       y1="-39.561104"
       x2="38.252563"
       y2="-34.246338"
       spreadMethod="repeat" />
    <linearGradient
       inkscape:collect="always"
       xlink:href="#linearGradient57454"
       id="linearGradient38997"
       gradientUnits="userSpaceOnUse"
       gradientTransform="matrix(1.143714,0,0,1.143714,63.375738,99.668758)"
       x1="-67.981567"
       y1="-39.561104"
       x2="38.252563"
       y2="-34.246338"
       spreadMethod="repeat" />
    <linearGradient
       inkscape:collect="always"
       xlink:href="#linearGradient57454"
       id="linearGradient38999"
       gradientUnits="userSpaceOnUse"
       gradientTransform="matrix(1.143714,0,0,1.143714,63.375738,99.668758)"
       x1="-67.981567"
       y1="-39.561104"
       x2="38.252563"
       y2="-34.246338"
       spreadMethod="repeat" />
    <linearGradient
       inkscape:collect="always"
       xlink:href="#linearGradient57454"
       id="linearGradient39001"
       gradientUnits="userSpaceOnUse"
       gradientTransform="matrix(1.143714,0,0,1.143714,63.375738,99.668758)"
       x1="-67.981567"
       y1="-39.561104"
       x2="38.252563"
       y2="-34.246338"
       spreadMethod="repeat" />
    <linearGradient
       inkscape:collect="always"
       xlink:href="#linearGradient57454"
       id="linearGradient39003"
       gradientUnits="userSpaceOnUse"
       gradientTransform="matrix(1.143714,0,0,1.143714,63.375738,99.668758)"
       x1="-67.981567"
       y1="-39.561104"
       x2="38.252563"
       y2="-34.246338"
       spreadMethod="repeat" />
    <linearGradient
       inkscape:collect="always"
       xlink:href="#linearGradient57454"
       id="linearGradient39005"
       gradientUnits="userSpaceOnUse"
       gradientTransform="matrix(1.143714,0,0,1.143714,63.375738,99.668758)"
       x1="-67.981567"
       y1="-39.561104"
       x2="38.252563"
       y2="-34.246338"
       spreadMethod="repeat" />
    <linearGradient
       inkscape:collect="always"
       xlink:href="#linearGradient57454"
       id="linearGradient39007"
       gradientUnits="userSpaceOnUse"
       gradientTransform="matrix(1.143714,0,0,1.143714,63.375738,99.668758)"
       x1="-67.981567"
       y1="-39.561104"
       x2="38.252563"
       y2="-34.246338"
       spreadMethod="repeat" />
    <linearGradient
       inkscape:collect="always"
       xlink:href="#linearGradient57454"
       id="linearGradient39009"
       gradientUnits="userSpaceOnUse"
       gradientTransform="matrix(1.143714,0,0,1.143714,63.375738,99.668758)"
       x1="-67.981567"
       y1="-39.561104"
       x2="38.252563"
       y2="-34.246338"
       spreadMethod="repeat" />
    <linearGradient
       inkscape:collect="always"
       xlink:href="#linearGradient57454"
       id="linearGradient39011"
       gradientUnits="userSpaceOnUse"
       gradientTransform="matrix(1.143714,0,0,1.143714,63.375738,99.668758)"
       x1="-67.981567"
       y1="-39.561104"
       x2="38.252563"
       y2="-34.246338"
       spreadMethod="repeat" />
    <linearGradient
       inkscape:collect="always"
       xlink:href="#linearGradient57454"
       id="linearGradient39013"
       gradientUnits="userSpaceOnUse"
       gradientTransform="matrix(1.143714,0,0,1.143714,63.375738,99.668758)"
       x1="-67.981567"
       y1="-39.561104"
       x2="38.252563"
       y2="-34.246338"
       spreadMethod="repeat" />
    <linearGradient
       inkscape:collect="always"
       xlink:href="#linearGradient57454"
       id="linearGradient39015"
       gradientUnits="userSpaceOnUse"
       gradientTransform="matrix(1.143714,0,0,1.143714,63.375738,99.668758)"
       x1="-67.981567"
       y1="-39.561104"
       x2="38.252563"
       y2="-34.246338"
       spreadMethod="repeat" />
    <linearGradient
       inkscape:collect="always"
       xlink:href="#linearGradient57454"
       id="linearGradient39017"
       gradientUnits="userSpaceOnUse"
       gradientTransform="matrix(1.143714,0,0,1.143714,63.375738,99.668758)"
       x1="-67.981567"
       y1="-39.561104"
       x2="38.252563"
       y2="-34.246338"
       spreadMethod="repeat" />
    <filter
       inkscape:collect="always"
       style="color-interpolation-filters:sRGB"
       id="filter58561"
       x="-0.0060351412"
       y="-0.0061429755"
       width="1.0120703"
       height="1.012286">
      <feGaussianBlur
         inkscape:collect="always"
         stdDeviation="0.073789341"
         id="feGaussianBlur58563" />
    </filter>
    <filter
       inkscape:collect="always"
       style="color-interpolation-filters:sRGB"
       id="filter1716"
       x="-7.3593455e-05"
       y="-0.00036697446"
       width="1.0001472"
       height="1.0007339">
      <feGaussianBlur
         inkscape:collect="always"
         stdDeviation="0.0034356393"
         id="feGaussianBlur1718" />
    </filter>
  </defs>
  <g
     inkscape:label="Layer 1"
     inkscape:groupmode="layer"
     id="layer1">
    <g
       id="g33495"
       transform="matrix(0.7918916,0,0,0.7918916,0.73099513,-2.620833)"
       inkscape:label="Monitor">
      <g
         id="g4842"
         transform="matrix(1.5064574,0,0,1.5064574,-38.207907,-32.527776)"
         inkscape:label="Monitor">
        <g
           id="g3294"
           transform="matrix(1.2469972,0.07802651,-0.05280345,0.99204541,-6.0051215,3.6286294)"
           inkscape:label="top"
           style="fill:#4a4a4a;fill-opacity:1">
          <rect
             style="opacity:1;fill:#4a4a4a;fill-opacity:1;stroke:none;stroke-width:0.158447;stroke-linejoin:round;stroke-miterlimit:4;stroke-dasharray:none;stroke-opacity:1;paint-order:markers stroke fill"
             id="rect2533"
             width="28.134668"
             height="0.13584469"
             x="46.154968"
             y="18.177446"
             rx="0"
             ry="0.13584469"
             transform="matrix(0.99892776,0.04629619,-0.10770485,0.99418291,0,0)" />
          <rect
             style="opacity:1;fill:#4a4a4a;fill-opacity:1;stroke:none;stroke-width:0.11059;stroke-linejoin:round;stroke-miterlimit:4;stroke-dasharray:none;stroke-opacity:1;paint-order:markers stroke fill"
             id="rect3284"
             width="12.82877"
             height="0.1451322"
             x="-48.755764"
             y="-31.546598"
             rx="0"
             ry="0.1451322"
             transform="matrix(-0.97398222,0.22662444,0.10063781,-0.99492313,0,0)" />
        </g>
        <g
           id="g3290"
           transform="matrix(1.1347845,-0.0807986,-0.07384635,0.70683993,-4.0616863,31.73475)"
           inkscape:label="side"
           style="fill:#4a4a4a;fill-opacity:1">
          <path
             id="rect39434"
             style="opacity:1;fill:#4a4a4a;fill-opacity:1;stroke-width:0.121021;stroke-linejoin:round;paint-order:markers stroke fill"
             d="m 85.025737,48.614803 0.729095,25.177855 c 0.0018,0.06259 -0.01619,0.116591 -0.04037,0.121083 -0.02418,0.0045 -0.04511,-0.04227 -0.04693,-0.10487 L 84.938434,48.631016 c -0.0018,-0.06259 0.01619,-0.116591 0.04038,-0.121082 0.02418,-0.0045 0.04511,0.04227 0.04692,0.104869 z" />
          <rect
             style="opacity:1;fill:#4a4a4a;fill-opacity:1;stroke:none;stroke-width:0.113649;stroke-linejoin:round;stroke-miterlimit:4;stroke-dasharray:none;stroke-opacity:1;paint-order:markers stroke fill"
             id="rect3286"
             width="14.779013"
             height="0.13304749"
             x="-32.888397"
             y="-123.91129"
             rx="0"
             ry="0.13304749"
             transform="matrix(-0.49173246,0.87074634,-0.56177757,-0.82728832,0,0)" />
        </g>
        <g
           id="g98844"
           inkscape:label="front">
          <rect
             style="opacity:1;fill:none;stroke:#5c5c5c;stroke-width:0.19847;stroke-linejoin:round;stroke-miterlimit:4;stroke-dasharray:none;stroke-opacity:1;paint-order:markers stroke fill"
             id="rect848"
             width="53.423908"
             height="52.486095"
             x="29.534807"
             y="25.378653"
             rx="3.6671379"
             ry="25.121082"
             transform="matrix(0.99351582,0.11369397,-0.01008697,0.99994913,0,0)" />
          <rect
             style="opacity:1;mix-blend-mode:normal;fill:none;stroke:#4a4a4a;stroke-width:0.255419;stroke-linejoin:round;stroke-miterlimit:4;stroke-dasharray:none;stroke-opacity:1;paint-order:markers stroke fill;filter:url(#filter58561)"
             id="rect1028"
             width="50.504852"
             height="49.618286"
             x="30.994333"
             y="26.812559"
             rx="3.4667675"
             ry="23.748482"
             transform="matrix(0.99351582,0.11369397,-0.01008697,0.99994913,0,0)" />
        </g>
      </g>
      <g
         id="g82783"
         transform="matrix(0.53302074,0.03137458,-0.14906863,0.54369479,21.499343,29.218361)"
         inkscape:label="Text"
         style="filter:url(#filter1716)">
        <g
           aria-label="$ computer programmer;"
           id="text6848"
           style="font-size:9.15109px;line-height:1.25;font-family:Recursive;-inkscape-font-specification:Recursive;fill:#eeeeee;stroke-width:0.228778">
          <path
             d="m 2.6560031,45.514064 q -0.4465034,0 -0.8330288,-0.119956 -0.3865253,-0.12662 -0.6131091,-0.353204 -0.00666,-0.01333 -0.013329,-0.01999 -0.00666,-0.01333 -0.00666,-0.03999 0,-0.06664 0,-0.153278 0,-0.0933 0,-0.17327 h 0.079971 q 0.3065546,0.293227 0.6264377,0.413183 0.319883,0.113292 0.7597222,0.113292 0.553131,0 0.8663498,-0.213256 0.3132188,-0.219919 0.3132188,-0.59978 V 44.12124 q 0,-0.233248 -0.066642,-0.379861 Q 3.7022871,43.594766 3.5290172,43.494802 3.3624114,43.388175 3.0625211,43.30154 L 2.4094266,43.108277 Q 2.102872,43.014978 1.8829524,42.90835 1.6630328,42.795058 1.523084,42.668438 1.3897994,42.535153 1.3231571,42.381876 1.263179,42.228599 1.263179,42.048665 v -0.313219 q 0,-0.239913 0.1066277,-0.439839 0.1132919,-0.206592 0.3132188,-0.353205 0.2065911,-0.153277 0.4798245,-0.233248 0.2798977,-0.07997 0.6131092,-0.07997 0.3931896,0 0.7330653,0.113291 0.3398757,0.113292 0.5398026,0.313219 0.013329,0.0067 0.013329,0.01999 0.00666,0.01333 0.00666,0.03332 0,0.06664 0,0.159942 0,0.0933 0,0.17327 H 3.988849 Q 3.7156156,41.17565 3.435718,41.069023 3.1624845,40.962395 2.7759592,40.962395 q -0.3665326,0 -0.6331018,0.09996 -0.2665692,0.0933 -0.4131823,0.279898 -0.1399488,0.179934 -0.1399488,0.433175 v 0.213255 q 0,0.206592 0.073307,0.34654 0.079971,0.133285 0.2732334,0.239913 0.1932627,0.09996 0.5331384,0.199927 l 0.6464303,0.186598 q 0.3798611,0.106628 0.6064449,0.259905 0.2332481,0.146613 0.3398758,0.353204 0.1066276,0.199927 0.1066276,0.47316 v 0.359869 q 0,0.319883 -0.1932626,0.573124 -0.1932627,0.246576 -0.5331384,0.393189 -0.3398757,0.139949 -0.7863791,0.139949 z M 2.85593,42.381876 q -0.04665,-0.01333 -0.093299,-0.01999 -0.04665,-0.01333 -0.086635,-0.03332 -0.033321,0 -0.053314,-0.01999 -0.019993,-0.01999 -0.019993,-0.05331 0,-0.193263 0,-0.419847 0,-0.233248 0,-0.453167 0,-0.226584 0,-0.399854 0,-0.179934 0,-0.259905 0,-0.07331 0,-0.213256 0,-0.139948 0,-0.29989 0,-0.159941 0,-0.29989 0,-0.146613 0,-0.213256 0.066642,0 0.1132919,0 0.04665,0 0.093299,0 0.053314,0 0.1199562,0 0.033321,0 0.053314,0.01999 0.019993,0.01999 0.013328,0.06664 -0.00666,0.05331 -0.019993,0.26657 -0.00666,0.213255 -0.026657,0.519809 -0.013329,0.299891 -0.033321,0.639767 -0.013328,0.339875 -0.033321,0.653094 -0.013329,0.306555 -0.026657,0.51981 z m -0.3265473,1.292861 q 0.04665,0.01333 0.086635,0.02666 0.04665,0.01333 0.093299,0.02666 0.039985,0.0067 0.053314,0.03999 0.019993,0.02666 0.019993,0.07331 0,0.05331 0,0.213256 0,0.153277 0,0.359868 0,0.206591 0,0.413182 0,0.206591 0,0.366533 0,0.153277 0,0.206591 0,0.06664 0,0.246577 0,0.186598 0,0.393189 0,0.213256 0,0.386526 0,0.17327 0,0.219919 -0.053314,0 -0.1132919,0 -0.053314,0 -0.1066277,0 -0.053314,0 -0.1066276,0 -0.019993,0 -0.039985,-0.01333 -0.013329,-0.0067 -0.019993,-0.02666 -0.00666,-0.01999 -0.00666,-0.04665 0.00666,-0.05331 0.013328,-0.293226 0.013329,-0.239912 0.026657,-0.586452 0.019993,-0.339876 0.033321,-0.719737 0.019993,-0.379861 0.033321,-0.719737 0.019993,-0.34654 0.033321,-0.566459 z"
             style="font-size:6.66423px"
             id="path38910" />
          <path
             d="m 9.3752939,40.40179 q 0.4301012,0 0.7686911,0.06406 0.338591,0.06406 0.558217,0.155568 0.219626,0.09151 0.292835,0.16472 0.0183,0.0092 0.02745,0.0366 0.0092,0.0183 0.0092,0.04576 0,0.228777 0,0.457554 0,0.219627 0,0.439253 h -0.164719 q -0.338591,-0.155569 -0.677181,-0.24708 -0.3294393,-0.09151 -0.7412384,-0.09151 -0.4301012,0 -0.7229361,0.128116 -0.2836837,0.118964 -0.4301012,0.384345 -0.1372663,0.265382 -0.1372663,0.695483 v 0.677181 q 0,0.283684 0.064058,0.494159 0.073209,0.210475 0.2287773,0.366043 0.1464174,0.146418 0.3843457,0.228778 0.2470794,0.08236 0.6039719,0.08236 0.2745327,0 0.5124611,-0.0366 0.237928,-0.04575 0.457554,-0.118964 0.228777,-0.08236 0.457555,-0.183022 h 0.164719 q 0,0.228777 0,0.457554 0,0.219627 0,0.448404 0,0.0183 -0.0092,0.0366 0,0.0183 -0.0183,0.03661 -0.09151,0.08236 -0.320288,0.17387 -0.228778,0.09151 -0.576519,0.146418 -0.3385898,0.06406 -0.768691,0.06406 -0.5399143,0 -0.9700155,-0.146417 Q 7.9385728,45.206112 7.6365869,44.922429 7.3346009,44.638745 7.1698813,44.245248 7.0143128,43.851751 7.0143128,43.375894 v -0.823598 q 0,-0.658878 0.2836838,-1.143886 0.2928348,-0.485008 0.823598,-0.741238 0.5307632,-0.265382 1.2536993,-0.265382 z"
             style="font-weight:600;-inkscape-font-specification:'Recursive Semi-Bold';fill:#afafaf"
             id="path38912" />
          <path
             d="m 14.563947,40.40179 q 0.485008,0 0.878505,0.155569 0.402648,0.146417 0.686331,0.42095 0.292835,0.274533 0.448404,0.649727 0.16472,0.375195 0.16472,0.832749 v 0.960865 q 0,0.622274 -0.283684,1.098131 -0.274533,0.466705 -0.768692,0.732087 -0.485008,0.25623 -1.125584,0.25623 -0.485008,0 -0.887656,-0.146417 -0.402647,-0.155569 -0.686331,-0.430101 -0.283684,-0.274533 -0.448404,-0.649728 -0.155568,-0.375194 -0.155568,-0.832749 v -0.960864 q 0,-0.622274 0.274533,-1.08898 0.283683,-0.466705 0.777842,-0.732087 0.494159,-0.265382 1.125584,-0.265382 z m 0.02745,0.997469 q -0.356892,0 -0.603971,0.146418 -0.237929,0.137266 -0.366044,0.393496 -0.128115,0.24708 -0.128115,0.594821 v 0.851052 q 0,0.265381 0.07321,0.485007 0.08236,0.210475 0.228778,0.356893 0.128115,0.137266 0.320288,0.210475 0.192173,0.07321 0.42095,0.07321 0.356892,0 0.594821,-0.137267 0.247079,-0.146417 0.375194,-0.402648 0.128116,-0.25623 0.128116,-0.594821 v -0.851051 q 0,-0.292835 -0.07321,-0.50331 -0.07321,-0.210475 -0.210475,-0.356892 -0.137266,-0.128116 -0.329439,-0.192173 -0.183022,-0.07321 -0.430103,-0.07321 z"
             style="font-weight:600;-inkscape-font-specification:'Recursive Semi-Bold';fill:#afafaf"
             id="path38914" />
          <path
             d="m 22.443022,45.407436 q -0.146417,0 -0.301986,0 -0.155568,0 -0.301986,0 -0.146417,0 -0.283683,0 -0.02745,0 -0.05491,-0.0092 -0.0183,-0.0183 -0.0366,-0.0366 -0.0092,-0.0183 -0.0092,-0.05491 0,-0.347741 0,-0.695482 0,-0.347742 0,-0.695483 0,-0.347742 0,-0.695483 0,-0.356893 0,-0.704634 0,-0.347741 0,-0.695483 0,-0.192173 -0.08236,-0.265381 -0.07321,-0.07321 -0.210475,-0.07321 -0.118965,0 -0.24708,0.05491 -0.118964,0.05491 -0.25623,0.173871 -0.128116,0.118964 -0.274533,0.320288 l -0.155568,-0.8419 h 0.430101 q 0.109813,-0.247079 0.247079,-0.42095 0.146418,-0.173871 0.320288,-0.265382 0.183022,-0.100662 0.411799,-0.100662 0.173871,0 0.320288,0.06406 0.155569,0.05491 0.265382,0.173871 0.109813,0.109813 0.16472,0.274532 0.05491,0.16472 0.05491,0.375195 0,0.402648 0,0.805296 0,0.402648 0,0.805296 0,0.393497 0,0.796145 0,0.402648 0,0.796144 0,0.228778 0,0.457555 0,0.228777 0,0.457554 z m -1.949182,0 q -0.128115,0 -0.265381,0 -0.137267,0 -0.265382,0 -0.128115,0 -0.24708,0 -0.02745,0 -0.05491,-0.0092 -0.0183,-0.0183 -0.0366,-0.0366 -0.0092,-0.0183 -0.0092,-0.05491 0,-0.347741 0,-0.695482 0,-0.356893 0,-0.695483 0,-0.347742 0,-0.695483 0,-0.356893 0,-0.704634 0,-0.347741 0,-0.695483 0,-0.128115 -0.0366,-0.201324 -0.02745,-0.07321 -0.09151,-0.100662 -0.06406,-0.0366 -0.164719,-0.0366 -0.109813,0 -0.24708,0.05491 -0.128115,0.05491 -0.265381,0.183022 -0.128116,0.118964 -0.283684,0.320288 L 18.33414,41.188744 h 0.384346 q 0.109813,-0.25623 0.247079,-0.430101 0.137266,-0.183022 0.320288,-0.265382 0.192173,-0.09151 0.42095,-0.09151 0.173871,0 0.320289,0.06406 0.146417,0.05491 0.247079,0.173871 0.109813,0.118964 0.16472,0.283683 0.05491,0.16472 0.05491,0.366044 0,0.33859 0,0.750389 0,0.411799 0,0.915109 0,0.50331 0,1.116433 0,0.603972 0,1.336059 z m -1.839369,0 q -0.109813,0 -0.228777,0 -0.109813,0 -0.219626,0 -0.100662,0 -0.219626,0 -0.109814,0 -0.219627,0 -0.02745,0 -0.04575,0 -0.0183,-0.0092 -0.0366,-0.0183 -0.0092,-0.0183 -0.0183,-0.0366 0,-0.0183 0,-0.04576 0,-0.649727 0,-1.299454 0,-0.649728 0,-1.290304 0,-0.649727 0,-1.299455 0,-0.25623 0,-0.485007 0,-0.237929 0,-0.430102 0.09151,0 0.173871,0 0.09151,0 0.173871,0 0.09151,0 0.173871,0 0.09151,0 0.183021,0 0,0 0.04576,0.155569 0.04575,0.146417 0.09151,0.347741 0.05491,0.192173 0.100662,0.347742 0.04575,0.146417 0.04575,0.146417 0,0.58567 0,1.235397 0,0.649728 0,1.317757 0,0.66803 0,1.354361 z"
             style="font-weight:600;-inkscape-font-specification:'Recursive Semi-Bold';fill:#afafaf"
             id="path38916" />
          <path
             d="m 23.550289,40.502452 q 0.173871,0 0.33859,0 0.16472,0 0.32944,0 0.164719,0 0.329439,0 0.0366,0 0.05491,0.0183 0.0183,0.0092 0.02745,0.02745 0.0183,0.0183 0.0183,0.05491 0,0.823598 0,1.656348 0,0.832749 0,1.665498 0,0.823598 0,1.656347 0,0.832749 0,1.656347 -0.16472,0 -0.329439,0 -0.16472,0 -0.32944,0 -0.164719,0 -0.33859,0 -0.02745,0 -0.05491,-0.0183 -0.0183,-0.0092 -0.0366,-0.0366 -0.0092,-0.0183 -0.0092,-0.04576 0,-0.713785 0,-1.42757 0,-0.713785 0,-1.42757 0,-0.713785 0,-1.42757 0,-0.713785 0,-1.42757 0,-0.247079 0,-0.475856 0,-0.237929 0,-0.448404 z m 2.644665,-0.100662 q 0.457554,0 0.805296,0.210475 0.347741,0.210475 0.539914,0.613123 0.192173,0.402648 0.192173,0.951714 v 1.50993 q 0,0.430101 -0.109813,0.768691 -0.109813,0.329439 -0.311137,0.567368 -0.201324,0.228777 -0.494159,0.356892 -0.283684,0.118964 -0.640576,0.118964 -0.274533,0 -0.530763,-0.09151 -0.24708,-0.09151 -0.466706,-0.25623 -0.210475,-0.16472 -0.375195,-0.393497 h -0.265381 v -0.951713 q 0.25623,0.320288 0.594821,0.475856 0.347741,0.155569 0.704633,0.155569 0.24708,0 0.420951,-0.100662 0.17387,-0.109813 0.265381,-0.320288 0.100662,-0.210475 0.100662,-0.50331 v -1.153037 q 0,-0.237929 -0.05491,-0.4118 -0.05491,-0.17387 -0.16472,-0.283683 -0.100662,-0.100662 -0.247079,-0.146418 -0.137267,-0.05491 -0.320289,-0.05491 -0.219626,0 -0.448403,0.100662 -0.228777,0.100662 -0.448403,0.301986 -0.210475,0.192173 -0.402648,0.485007 V 41.26199 h 0.265381 q 0.146418,-0.274533 0.356893,-0.466706 0.219626,-0.192173 0.475856,-0.292835 0.265382,-0.100662 0.558217,-0.100662 z"
             style="font-weight:600;-inkscape-font-specification:'Recursive Semi-Bold';fill:#afafaf"
             id="path38918" />
          <path
             d="m 30.038398,40.502452 q 0.0366,0 0.05491,0.0183 0.0183,0.0092 0.02745,0.02745 0.0183,0.0183 0.0183,0.05491 0,0.411799 0,0.841901 0,0.42095 0,0.8419 0,0.411799 0,0.814447 0,0.402648 0,0.777842 0,0.24708 0.128116,0.384346 0.137266,0.128115 0.356892,0.128115 0.210475,0 0.402648,-0.04575 0.201324,-0.04576 0.375195,-0.137266 0.17387,-0.100662 0.347741,-0.24708 0.173871,-0.155568 0.33859,-0.366043 v 1.015771 h -0.301985 q -0.183022,0.274532 -0.393497,0.485007 -0.210475,0.201324 -0.475857,0.311137 -0.25623,0.100662 -0.594821,0.100662 -0.283684,0 -0.530763,-0.100662 -0.237928,-0.09151 -0.402648,-0.274532 -0.16472,-0.183022 -0.265382,-0.430102 -0.09151,-0.247079 -0.09151,-0.558216 0,-0.411799 0,-0.823598 0,-0.411799 0,-0.823598 0,-0.411799 0,-0.814447 0,-0.292835 0,-0.58567 0,-0.301986 0,-0.594821 0.25623,0 0.503309,0 0.256231,0 0.50331,0 z m 2.900896,0 q 0.0366,0 0.05491,0.0183 0.0183,0.0092 0.02745,0.02745 0.0183,0.0183 0.0183,0.05491 0,0.649728 0,1.299455 0,0.649727 0,1.308606 0,0.649727 0,1.290303 0,0.183022 0,0.347742 0,0.16472 0,0.311137 0,0.137266 0,0.247079 -0.173871,0 -0.347742,0 -0.17387,0 -0.33859,0 -0.155568,0 -0.311137,0 -0.02745,0 -0.05491,-0.0092 -0.0183,-0.0183 -0.0366,-0.0366 -0.0092,-0.0183 -0.0092,-0.05491 0,-0.805296 0,-1.60144 0,-0.805296 0,-1.601441 0,-0.805296 0,-1.601441 0.173871,0 0.33859,0 0.16472,0 0.32944,0 0.164719,0 0.329439,0 z"
             style="font-weight:600;-inkscape-font-specification:'Recursive Semi-Bold';fill:#afafaf"
             id="path38920" />
          <path
             d="m 34.385153,40.502452 h 3.870911 q 0.04575,0 0.07321,0.02745 0.02745,0.02745 0.02745,0.07321 0,0.155569 0,0.292835 0,0.137267 0,0.283684 0,0.137266 0,0.292835 h -3.870911 q -0.0183,0 -0.04576,0 -0.0183,-0.0092 -0.0366,-0.0183 -0.0092,-0.0183 -0.0183,-0.03661 0,-0.0183 0,-0.04575 0,-0.155569 0,-0.292835 0,-0.146417 0,-0.283684 0,-0.137266 0,-0.292835 z m 3.971573,3.925818 q 0,0.219626 0,0.439252 0,0.219626 0,0.439252 0,0.03661 -0.02745,0.07321 -0.02745,0.02745 -0.07321,0.02745 -0.02745,0 -0.118964,0 -0.08236,0 -0.210475,0 -0.118965,0 -0.237929,0 -0.118964,0 -0.219626,0 -0.448403,0 -0.814447,-0.100662 -0.356892,-0.100662 -0.622274,-0.329439 -0.256231,-0.228777 -0.393497,-0.594821 -0.137266,-0.375194 -0.137266,-0.896806 0,-0.448404 0,-0.896807 0,-0.448404 0,-0.887656 0,-0.439252 0,-0.887656 0,-0.448403 0,-0.896806 0,-0.228778 0,-0.457555 0,-0.228777 0,-0.457554 0.25623,0 0.50331,0 0.25623,0 0.50331,0 0.0366,0 0.05491,0.0183 0.0183,0.0092 0.02745,0.02745 0.0183,0.0183 0.0183,0.05491 0,0.539914 0,1.088979 0,0.539915 0,1.08898 0,0.539914 0,1.079829 0,0.539914 0,1.088979 0,0.283684 0.04575,0.475857 0.05491,0.192173 0.16472,0.301986 0.118964,0.109813 0.283683,0.155568 0.173871,0.04576 0.4118,0.04576 0.118964,0 0.228777,0 0.109813,0 0.219626,0 0.118964,0 0.237928,0 z"
             style="font-weight:600;-inkscape-font-specification:'Recursive Semi-Bold';fill:#afafaf"
             id="path38922" />
          <path
             d="m 42.035449,40.40179 q 0.603972,0 1.061526,0.24708 0.457555,0.237928 0.713785,0.695483 0.256231,0.448403 0.256231,1.09813 v 0.732087 q 0,0.02745 -0.0092,0.05491 -0.0092,0.0183 -0.03661,0.02745 -0.0183,0.0092 -0.04575,0.0092 h -2.196262 q -0.146417,0 -0.311137,0 -0.155568,0 -0.311137,0 h -0.33859 l -0.06406,-0.704634 h 2.242017 q 0,-0.04575 0,-0.07321 0,-0.03661 0,-0.08236 0,-0.292835 -0.06406,-0.50331 -0.06406,-0.210475 -0.192173,-0.33859 -0.118965,-0.118964 -0.292835,-0.173871 -0.173871,-0.05491 -0.411799,-0.05491 -0.494159,0 -0.75039,0.256231 -0.25623,0.247079 -0.25623,0.832749 V 43.4766 q 0,0.173871 0.02745,0.320289 0.02745,0.137266 0.08236,0.247079 0.05491,0.109813 0.137266,0.192173 0.16472,0.16472 0.42095,0.237928 0.256231,0.07321 0.603972,0.07321 0.32944,0 0.58567,-0.0366 0.256231,-0.03661 0.475857,-0.100662 0.228777,-0.07321 0.439252,-0.16472 h 0.16472 q 0,0.210475 0,0.430101 0,0.210475 0,0.411799 0,0.0183 -0.0092,0.03661 -0.0092,0.0183 -0.02745,0.0366 -0.08236,0.09151 -0.33859,0.173871 -0.256231,0.07321 -0.603972,0.118964 -0.33859,0.05491 -0.695483,0.05491 -0.585669,0 -1.034073,-0.137266 -0.448403,-0.137266 -0.741238,-0.402648 -0.292835,-0.265382 -0.448404,-0.640576 -0.146417,-0.375195 -0.146417,-0.851052 v -1.015771 q 0,-0.494158 0.146417,-0.869353 0.155569,-0.384346 0.439253,-0.649727 0.292835,-0.265382 0.67718,-0.402648 0.393497,-0.137267 0.851052,-0.137267 z"
             style="font-weight:600;-inkscape-font-specification:'Recursive Semi-Bold';fill:#afafaf"
             id="path38924" />
          <path
             d="m 46.501165,44.858371 v -0.558216 q 0,-0.155569 0,-0.301986 0,-0.146418 0,-0.301986 0,-0.155569 0,-0.311137 0,-0.320289 0,-0.640577 0,-0.320288 0,-0.640576 0,-0.320288 0,-0.631425 h -0.155568 q -0.210475,0 -0.42095,0 -0.201324,0 -0.402648,0 -0.04576,0 -0.07321,-0.02745 -0.02745,-0.02745 -0.02745,-0.07321 0,-0.219626 0,-0.430101 0,-0.219627 0,-0.439253 0.109813,0 0.237928,0 0.137267,0 0.283684,0 0.155568,0 0.311137,0 0.155569,0 0.329439,0 0.173871,0 0.347742,0 0.183021,0 0.356892,0 0,0 0.02745,0.09151 0.03661,0.09151 0.07321,0.24708 0.04576,0.146417 0.09151,0.301986 0.05491,0.155568 0.08236,0.292834 0.0366,0.128116 0.04575,0.183022 0,0.375195 0,0.777843 0,0.393497 0,0.814447 0,0.411799 0,0.832749 0,0.42095 0,0.8419 z m 0.860203,-3.44081 h 0.320288 q 0.247079,-0.448403 0.631425,-0.722936 0.393497,-0.283684 0.933411,-0.283684 0.228778,0 0.356893,0.03661 0.137266,0.0366 0.183022,0.09151 0.0183,0.0092 0.02745,0.0366 0.0092,0.0183 0.0092,0.06406 0,0.25623 0,0.512461 0,0.25623 0,0.521612 h -0.16472 q -0.192173,-0.06406 -0.347741,-0.08236 -0.155569,-0.0183 -0.347741,-0.0183 -0.256231,0 -0.521613,0.07321 -0.265381,0.07321 -0.512461,0.228777 -0.247079,0.155568 -0.475856,0.411799 z m -1.994938,3.029011 h 3.724494 q 0.0366,0 0.05491,0.0183 0.0183,0.0092 0.02745,0.02745 0.0183,0.0183 0.0183,0.05491 0,0.146417 0,0.283684 0,0.137266 0,0.283684 0,0.137266 0,0.292834 H 45.46709 q -0.04575,0 -0.07321,-0.02745 -0.02745,-0.02745 -0.02745,-0.07321 0,-0.155568 0,-0.292834 0,-0.146418 0,-0.283684 0,-0.137267 0,-0.283684 z"
             style="font-weight:600;-inkscape-font-specification:'Recursive Semi-Bold';fill:#afafaf"
             id="path38926" />
          <path
             d="m 56.494129,40.502452 q 0.173871,0 0.33859,0 0.16472,0 0.32944,0 0.164719,0 0.329439,0 0.0366,0 0.05491,0.0183 0.0183,0.0092 0.02745,0.02745 0.0183,0.0183 0.0183,0.05491 0,0.823598 0,1.656348 0,0.832749 0,1.665498 0,0.823598 0,1.656347 0,0.832749 0,1.656347 -0.16472,0 -0.329439,0 -0.16472,0 -0.32944,0 -0.164719,0 -0.33859,0 -0.02745,0 -0.05491,-0.0183 -0.0183,-0.0092 -0.0366,-0.0366 -0.0092,-0.0183 -0.0092,-0.04576 0,-0.713785 0,-1.42757 0,-0.713785 0,-1.42757 0,-0.713785 0,-1.42757 0,-0.713785 0,-1.42757 0,-0.247079 0,-0.475856 0,-0.237929 0,-0.448404 z m 2.644665,-0.100662 q 0.457554,0 0.805296,0.210475 0.347741,0.210475 0.539914,0.613123 0.192173,0.402648 0.192173,0.951714 v 1.50993 q 0,0.430101 -0.109813,0.768691 -0.109813,0.329439 -0.311137,0.567368 -0.201324,0.228777 -0.494159,0.356892 -0.283684,0.118964 -0.640576,0.118964 -0.274533,0 -0.530763,-0.09151 -0.24708,-0.09151 -0.466706,-0.25623 -0.210475,-0.16472 -0.375195,-0.393497 h -0.265381 v -0.951713 q 0.25623,0.320288 0.594821,0.475856 0.347741,0.155569 0.704633,0.155569 0.24708,0 0.420951,-0.100662 0.17387,-0.109813 0.265381,-0.320288 0.100662,-0.210475 0.100662,-0.50331 v -1.153037 q 0,-0.237929 -0.05491,-0.4118 -0.05491,-0.17387 -0.16472,-0.283683 -0.100662,-0.100662 -0.247079,-0.146418 -0.137267,-0.05491 -0.320289,-0.05491 -0.219626,0 -0.448403,0.100662 -0.228777,0.100662 -0.448403,0.301986 -0.210475,0.192173 -0.402648,0.485007 V 41.26199 h 0.265381 q 0.146418,-0.274533 0.356893,-0.466706 0.219626,-0.192173 0.475856,-0.292835 0.265382,-0.100662 0.558217,-0.100662 z"
             style="font-weight:600;-inkscape-font-specification:'Recursive Semi-Bold';fill:#bb22ff"
             id="path38928" />
          <path
             d="m 62.973085,44.858371 v -0.558216 q 0,-0.155569 0,-0.301986 0,-0.146418 0,-0.301986 0,-0.155569 0,-0.311137 0,-0.320289 0,-0.640577 0,-0.320288 0,-0.640576 0,-0.320288 0,-0.631425 h -0.155568 q -0.210475,0 -0.42095,0 -0.201324,0 -0.402648,0 -0.04576,0 -0.07321,-0.02745 -0.02745,-0.02745 -0.02745,-0.07321 0,-0.219626 0,-0.430101 0,-0.219627 0,-0.439253 0.109813,0 0.237928,0 0.137267,0 0.283684,0 0.155568,0 0.311137,0 0.155569,0 0.329439,0 0.173871,0 0.347742,0 0.183021,0 0.356892,0 0,0 0.02745,0.09151 0.03661,0.09151 0.07321,0.24708 0.04576,0.146417 0.09151,0.301986 0.05491,0.155568 0.08236,0.292834 0.0366,0.128116 0.04575,0.183022 0,0.375195 0,0.777843 0,0.393497 0,0.814447 0,0.411799 0,0.832749 0,0.42095 0,0.8419 z m 0.860203,-3.44081 h 0.320288 q 0.247079,-0.448403 0.631425,-0.722936 0.393497,-0.283684 0.933411,-0.283684 0.228778,0 0.356893,0.03661 0.137266,0.0366 0.183022,0.09151 0.0183,0.0092 0.02745,0.0366 0.0092,0.0183 0.0092,0.06406 0,0.25623 0,0.512461 0,0.25623 0,0.521612 h -0.16472 q -0.192173,-0.06406 -0.347741,-0.08236 -0.155569,-0.0183 -0.347741,-0.0183 -0.256231,0 -0.521613,0.07321 -0.265381,0.07321 -0.512461,0.228777 -0.247079,0.155568 -0.475856,0.411799 z m -1.994938,3.029011 h 3.724494 q 0.0366,0 0.05491,0.0183 0.0183,0.0092 0.02745,0.02745 0.0183,0.0183 0.0183,0.05491 0,0.146417 0,0.283684 0,0.137266 0,0.283684 0,0.137266 0,0.292834 H 61.93901 q -0.04575,0 -0.07321,-0.02745 -0.02745,-0.02745 -0.02745,-0.07321 0,-0.155568 0,-0.292834 0,-0.146418 0,-0.283684 0,-0.137267 0,-0.283684 z"
             style="font-weight:600;-inkscape-font-specification:'Recursive Semi-Bold';fill:#bb22ff"
             id="path38930" />
          <path
             d="m 69.470348,40.40179 q 0.485008,0 0.878504,0.155569 0.402648,0.146417 0.686332,0.42095 0.292835,0.274533 0.448404,0.649727 0.164719,0.375195 0.164719,0.832749 v 0.960865 q 0,0.622274 -0.283684,1.098131 -0.274532,0.466705 -0.768691,0.732087 -0.485008,0.25623 -1.125584,0.25623 -0.485008,0 -0.887656,-0.146417 -0.402648,-0.155569 -0.686332,-0.430101 -0.283683,-0.274533 -0.448403,-0.649728 -0.155568,-0.375194 -0.155568,-0.832749 v -0.960864 q 0,-0.622274 0.274532,-1.08898 0.283684,-0.466705 0.777843,-0.732087 0.494159,-0.265382 1.125584,-0.265382 z m 0.02745,0.997469 q -0.356892,0 -0.603972,0.146418 -0.237928,0.137266 -0.366043,0.393496 -0.128116,0.24708 -0.128116,0.594821 v 0.851052 q 0,0.265381 0.07321,0.485007 0.08236,0.210475 0.228777,0.356893 0.128116,0.137266 0.320288,0.210475 0.192173,0.07321 0.420951,0.07321 0.356892,0 0.59482,-0.137267 0.24708,-0.146417 0.375195,-0.402648 0.128115,-0.25623 0.128115,-0.594821 v -0.851051 q 0,-0.292835 -0.07321,-0.50331 -0.07321,-0.210475 -0.210475,-0.356892 -0.137267,-0.128116 -0.32944,-0.192173 -0.183021,-0.07321 -0.430101,-0.07321 z"
             style="font-weight:600;-inkscape-font-specification:'Recursive Semi-Bold';fill:#bb22ff"
             id="path38932" />
          <path
             d="m 75.729678,40.749532 0.356893,-0.393497 q 0.0366,-0.0366 0.04575,-0.07321 0.0092,-0.04575 0.0092,-0.109813 0,-0.219626 0,-0.274533 0,-0.06406 0,-0.128115 0.274533,0 0.613123,0 0.347742,0 0.622274,0 0.04576,0 0.07321,0.02745 0.02745,0.02745 0.02745,0.07321 v 0.58567 q 0,0.09151 -0.0366,0.137266 -0.02745,0.0366 -0.146418,0.06406 -0.118964,0.02745 -0.393496,0.08236 l -0.439253,0.08236 v 0.292835 z M 74.82372,40.40179 q 0.658879,0 1.116433,0.192173 0.457555,0.192173 0.695483,0.558217 0.247079,0.356892 0.247079,0.851051 v 0.210475 q 0,0.485008 -0.247079,0.851051 -0.237928,0.356893 -0.695483,0.549066 -0.457554,0.192173 -1.116433,0.192173 -0.658878,0 -1.125584,-0.192173 -0.457554,-0.192173 -0.695483,-0.549066 -0.237928,-0.366043 -0.237928,-0.851051 v -0.210475 q 0,-0.494159 0.237928,-0.851051 0.237929,-0.366044 0.695483,-0.558217 0.466706,-0.192173 1.125584,-0.192173 z m 0,0.869354 q -0.466705,0 -0.732087,0.192173 -0.25623,0.183022 -0.25623,0.539914 v 0.210475 q 0,0.146418 0.04575,0.274533 0.05491,0.118964 0.137266,0.210475 0.128116,0.118964 0.32944,0.183022 0.201324,0.06406 0.475856,0.06406 0.475857,0 0.722936,-0.183022 0.256231,-0.192172 0.256231,-0.549065 v -0.210475 q 0,-0.155569 -0.04576,-0.274533 -0.04575,-0.128115 -0.137266,-0.219626 -0.118964,-0.118964 -0.320288,-0.173871 -0.201324,-0.06406 -0.475857,-0.06406 z m -0.915109,2.214564 0.549066,0.05491 q -0.05491,0.283684 -0.09151,0.475857 -0.02745,0.183022 -0.02745,0.33859 0,0.128115 0.05491,0.183022 0.06406,0.05491 0.192173,0.05491 h 1.235397 q 0.530763,0 0.869354,0.183022 0.347741,0.173871 0.512461,0.494159 0.17387,0.320288 0.17387,0.732087 v 0.311137 q 0,0.311137 -0.100662,0.558217 -0.09151,0.25623 -0.283684,0.439252 -0.192172,0.183022 -0.485007,0.283684 -0.292835,0.100662 -0.686332,0.100662 h -1.857671 q -0.356893,0 -0.622274,-0.07321 -0.265382,-0.07321 -0.448404,-0.210475 -0.17387,-0.137266 -0.265381,-0.347741 -0.09151,-0.201324 -0.09151,-0.457555 V 46.44151 q 0,-0.274533 0.109813,-0.494159 0.118964,-0.210475 0.329439,-0.356893 0.210475,-0.137266 0.494159,-0.183022 v -0.320288 l 0.649727,0.402648 q -0.183021,0.03661 -0.292835,0.128115 -0.100662,0.100662 -0.146417,0.219627 -0.04575,0.128115 -0.04575,0.283683 v 0.256231 q 0,0.164719 0.05491,0.274533 0.05491,0.118964 0.183022,0.17387 0.128115,0.06406 0.33859,0.06406 h 1.491628 q 0.109813,0 0.192173,-0.0183 0.08236,-0.0183 0.146417,-0.05491 0.06406,-0.02745 0.100662,-0.07321 0.07321,-0.07321 0.100662,-0.192172 0.0366,-0.109813 0.0366,-0.237929 v -0.237928 q 0,-0.274533 -0.128115,-0.411799 -0.128115,-0.128115 -0.448403,-0.128115 h -1.619743 q -0.219626,0 -0.411799,-0.109813 -0.192173,-0.109814 -0.311137,-0.292835 -0.118964,-0.192173 -0.118964,-0.439253 0,-0.301986 0.164719,-0.530763 0.173871,-0.228777 0.50331,-0.347741 z"
             style="font-weight:600;-inkscape-font-specification:'Recursive Semi-Bold';fill:#bb22ff"
             id="path38934" />
          <path
             d="m 79.445005,44.858371 v -0.558216 q 0,-0.155569 0,-0.301986 0,-0.146418 0,-0.301986 0,-0.155569 0,-0.311137 0,-0.320289 0,-0.640577 0,-0.320288 0,-0.640576 0,-0.320288 0,-0.631425 h -0.155568 q -0.210475,0 -0.42095,0 -0.201324,0 -0.402648,0 -0.04576,0 -0.07321,-0.02745 -0.02745,-0.02745 -0.02745,-0.07321 0,-0.219626 0,-0.430101 0,-0.219627 0,-0.439253 0.109813,0 0.237928,0 0.137267,0 0.283684,0 0.155569,0 0.311137,0 0.155569,0 0.329439,0 0.173871,0 0.347742,0 0.183021,0 0.356892,0 0,0 0.02745,0.09151 0.03661,0.09151 0.07321,0.24708 0.04576,0.146417 0.09151,0.301986 0.05491,0.155568 0.08236,0.292834 0.0366,0.128116 0.04575,0.183022 0,0.375195 0,0.777843 0,0.393497 0,0.814447 0,0.411799 0,0.832749 0,0.42095 0,0.8419 z m 0.860203,-3.44081 h 0.320288 q 0.247079,-0.448403 0.631425,-0.722936 0.393497,-0.283684 0.933411,-0.283684 0.228778,0 0.356893,0.03661 0.137266,0.0366 0.183022,0.09151 0.0183,0.0092 0.02745,0.0366 0.0092,0.0183 0.0092,0.06406 0,0.25623 0,0.512461 0,0.25623 0,0.521612 h -0.16472 q -0.192172,-0.06406 -0.347741,-0.08236 -0.155569,-0.0183 -0.347741,-0.0183 -0.256231,0 -0.521613,0.07321 -0.265381,0.07321 -0.512461,0.228777 -0.247079,0.155568 -0.475856,0.411799 z m -1.994938,3.029011 h 3.724494 q 0.0366,0 0.05491,0.0183 0.0183,0.0092 0.02745,0.02745 0.0183,0.0183 0.0183,0.05491 0,0.146417 0,0.283684 0,0.137266 0,0.283684 0,0.137266 0,0.292834 H 78.41093 q -0.04575,0 -0.07321,-0.02745 -0.02745,-0.02745 -0.02745,-0.07321 0,-0.155568 0,-0.292834 0,-0.146418 0,-0.283684 0,-0.137267 0,-0.283684 z"
             style="font-weight:600;-inkscape-font-specification:'Recursive Semi-Bold';fill:#bb22ff"
             id="path38936" />
          <path
             d="m 87.827389,42.259462 q 0,0.228777 0,0.466705 0,0.228777 0,0.466706 0,0.228777 0,0.466705 0,0.237929 0,0.457555 0,0.09151 0.0092,0.155568 0.0183,0.06406 0.06406,0.100662 0.02745,0.03661 0.08236,0.05491 0.05491,0.0183 0.137266,0.0183 0.0183,0 0.03661,0 0.02745,0 0.05491,0 h 0.16472 q 0,0.210475 0,0.430101 0,0.210475 0,0.430101 0,0.04576 -0.02745,0.07321 -0.02745,0.02745 -0.07321,0.02745 -0.04576,0 -0.201324,0 -0.146417,0 -0.265382,0 -0.247079,0 -0.439252,-0.07321 -0.192173,-0.07321 -0.347741,-0.219626 -0.146418,-0.146418 -0.228778,-0.347742 -0.07321,-0.210475 -0.07321,-0.466705 0,-0.292835 0,-0.603972 0,-0.311137 0,-0.603972 0,-0.155569 0,-0.301986 0,-0.146418 0,-0.292835 0,-0.146418 0,-0.292835 0,-0.292835 -0.100662,-0.457554 -0.09151,-0.173871 -0.311137,-0.237929 -0.219627,-0.07321 -0.594821,-0.07321 -0.265382,0 -0.512461,0.02745 -0.237929,0.0183 -0.466706,0.07321 -0.228777,0.04576 -0.475856,0.128116 h -0.155569 q 0,-0.210475 0,-0.430102 0,-0.228777 0,-0.430101 0,-0.0366 0.0092,-0.05491 0.0092,-0.02745 0.0183,-0.03661 0.04576,-0.04575 0.292835,-0.118964 0.24708,-0.07321 0.594821,-0.128115 0.347741,-0.05491 0.695483,-0.05491 0.558216,0 0.951713,0.109813 0.402648,0.100662 0.658879,0.320289 0.25623,0.219626 0.375194,0.576518 0.128116,0.347742 0.128116,0.841901 z m -2.974105,1.793613 q 0,0.219626 0.128116,0.347742 0.128115,0.118964 0.393496,0.118964 0.265382,0 0.512462,-0.06406 0.25623,-0.07321 0.503309,-0.219626 0.24708,-0.146418 0.494159,-0.402648 v 0.786994 h -0.265381 q -0.137267,0.283683 -0.356893,0.485007 -0.210475,0.192173 -0.50331,0.292835 -0.292835,0.100662 -0.640576,0.100662 -0.42095,0 -0.732087,-0.164719 -0.301986,-0.16472 -0.475857,-0.457555 -0.164719,-0.292835 -0.164719,-0.686332 v -0.311137 q 0,-0.301986 0.100662,-0.539914 0.100661,-0.247079 0.283683,-0.411799 0.192173,-0.173871 0.457555,-0.265382 0.265381,-0.100662 0.594821,-0.100662 0.320288,0 0.622274,0 0.301986,0 0.585669,0 0.283684,0 0.558217,0 0.07321,0 0.109813,0.137267 0.04575,0.128115 0.05491,0.292835 0.0092,0.164719 0.0092,0.283683 -0.311137,0 -0.594821,0 -0.274533,0 -0.558217,0 -0.283683,0 -0.594821,0 -0.137266,0 -0.237928,0.0366 -0.09151,0.02745 -0.164719,0.100662 -0.05491,0.05491 -0.09151,0.146417 -0.02745,0.08236 -0.02745,0.183022 z"
             style="font-weight:600;-inkscape-font-specification:'Recursive Semi-Bold';fill:#bb22ff"
             id="path38938" />
          <path
             d="m 93.821337,45.407436 q -0.146417,0 -0.301986,0 -0.155568,0 -0.301986,0 -0.146417,0 -0.283684,0 -0.02745,0 -0.05491,-0.0092 -0.0183,-0.0183 -0.0366,-0.0366 -0.0092,-0.0183 -0.0092,-0.05491 0,-0.347741 0,-0.695482 0,-0.347742 0,-0.695483 0,-0.347742 0,-0.695483 0,-0.356893 0,-0.704634 0,-0.347741 0,-0.695483 0,-0.192173 -0.08236,-0.265381 -0.07321,-0.07321 -0.210475,-0.07321 -0.118965,0 -0.24708,0.05491 -0.118964,0.05491 -0.25623,0.173871 -0.128116,0.118964 -0.274533,0.320288 l -0.155569,-0.8419 h 0.430102 q 0.109813,-0.247079 0.247079,-0.42095 0.146418,-0.173871 0.320288,-0.265382 0.183022,-0.100662 0.411799,-0.100662 0.173871,0 0.320288,0.06406 0.155569,0.05491 0.265382,0.173871 0.109813,0.109813 0.16472,0.274532 0.05491,0.16472 0.05491,0.375195 0,0.402648 0,0.805296 0,0.402648 0,0.805296 0,0.393497 0,0.796145 0,0.402648 0,0.796144 0,0.228778 0,0.457555 0,0.228777 0,0.457554 z m -1.949182,0 q -0.128115,0 -0.265382,0 -0.137266,0 -0.265381,0 -0.128115,0 -0.24708,0 -0.02745,0 -0.05491,-0.0092 -0.0183,-0.0183 -0.0366,-0.0366 -0.0092,-0.0183 -0.0092,-0.05491 0,-0.347741 0,-0.695482 0,-0.356893 0,-0.695483 0,-0.347742 0,-0.695483 0,-0.356893 0,-0.704634 0,-0.347741 0,-0.695483 0,-0.128115 -0.0366,-0.201324 -0.02745,-0.07321 -0.09151,-0.100662 -0.06406,-0.0366 -0.164719,-0.0366 -0.109813,0 -0.24708,0.05491 -0.128115,0.05491 -0.265381,0.183022 -0.128116,0.118964 -0.283684,0.320288 l -0.192173,-0.851051 h 0.384346 q 0.109813,-0.25623 0.247079,-0.430101 0.137266,-0.183022 0.320288,-0.265382 0.192173,-0.09151 0.42095,-0.09151 0.173871,0 0.320289,0.06406 0.146417,0.05491 0.247079,0.173871 0.109813,0.118964 0.16472,0.283683 0.05491,0.16472 0.05491,0.366044 0,0.33859 0,0.750389 0,0.411799 0,0.915109 0,0.50331 0,1.116433 0,0.603972 0,1.336059 z m -1.839369,0 q -0.109813,0 -0.228777,0 -0.109813,0 -0.219626,0 -0.100662,0 -0.219626,0 -0.109814,0 -0.219627,0 -0.02745,0 -0.04575,0 -0.0183,-0.0092 -0.0366,-0.0183 -0.0092,-0.0183 -0.0183,-0.0366 0,-0.0183 0,-0.04576 0,-0.649727 0,-1.299454 0,-0.649728 0,-1.290304 0,-0.649727 0,-1.299455 0,-0.25623 0,-0.485007 0,-0.237929 0,-0.430102 0.09151,0 0.173871,0 0.09151,0 0.173871,0 0.09151,0 0.17387,0 0.09151,0 0.183022,0 0,0 0.04576,0.155569 0.04575,0.146417 0.09151,0.347741 0.05491,0.192173 0.100662,0.347742 0.04575,0.146417 0.04575,0.146417 0,0.58567 0,1.235397 0,0.649728 0,1.317757 0,0.66803 0,1.354361 z"
             style="font-weight:600;-inkscape-font-specification:'Recursive Semi-Bold';fill:#bb22ff"
             id="path38940" />
          <path
             d="m 99.311976,45.407436 q -0.146418,0 -0.301986,0 -0.155569,0 -0.301986,0 -0.146417,0 -0.283684,0 -0.02745,0 -0.05491,-0.0092 -0.0183,-0.0183 -0.03661,-0.0366 -0.0092,-0.0183 -0.0092,-0.05491 0,-0.347741 0,-0.695482 0,-0.347742 0,-0.695483 0,-0.347742 0,-0.695483 0,-0.356893 0,-0.704634 0,-0.347741 0,-0.695483 0,-0.192173 -0.08236,-0.265381 -0.07321,-0.07321 -0.210475,-0.07321 -0.118964,0 -0.247079,0.05491 -0.118964,0.05491 -0.256231,0.173871 -0.128115,0.118964 -0.274532,0.320288 l -0.155569,-0.8419 h 0.430101 q 0.109814,-0.247079 0.24708,-0.42095 0.146417,-0.173871 0.320288,-0.265382 0.183022,-0.100662 0.411799,-0.100662 0.173871,0 0.320288,0.06406 0.155569,0.05491 0.265382,0.173871 0.109813,0.109813 0.164719,0.274532 0.05491,0.16472 0.05491,0.375195 0,0.402648 0,0.805296 0,0.402648 0,0.805296 0,0.393497 0,0.796145 0,0.402648 0,0.796144 0,0.228778 0,0.457555 0,0.228777 0,0.457554 z m -1.949182,0 q -0.128115,0 -0.265382,0 -0.137266,0 -0.265381,0 -0.128116,0 -0.24708,0 -0.02745,0 -0.05491,-0.0092 -0.0183,-0.0183 -0.0366,-0.0366 -0.0092,-0.0183 -0.0092,-0.05491 0,-0.347741 0,-0.695482 0,-0.356893 0,-0.695483 0,-0.347742 0,-0.695483 0,-0.356893 0,-0.704634 0,-0.347741 0,-0.695483 0,-0.128115 -0.0366,-0.201324 -0.02745,-0.07321 -0.09151,-0.100662 -0.06406,-0.0366 -0.16472,-0.0366 -0.109813,0 -0.247079,0.05491 -0.128115,0.05491 -0.265382,0.183022 -0.128115,0.118964 -0.283683,0.320288 l -0.192173,-0.851051 h 0.384345 q 0.109813,-0.25623 0.24708,-0.430101 0.137266,-0.183022 0.320288,-0.265382 0.192173,-0.09151 0.42095,-0.09151 0.173871,0 0.320288,0.06406 0.146418,0.05491 0.24708,0.173871 0.109813,0.118964 0.164719,0.283683 0.05491,0.16472 0.05491,0.366044 0,0.33859 0,0.750389 0,0.411799 0,0.915109 0,0.50331 0,1.116433 0,0.603972 0,1.336059 z m -1.839369,0 q -0.109813,0 -0.228777,0 -0.109814,0 -0.219627,0 -0.100662,0 -0.219626,0 -0.109813,0 -0.219626,0 -0.02745,0 -0.04575,0 -0.0183,-0.0092 -0.0366,-0.0183 -0.0092,-0.0183 -0.0183,-0.0366 0,-0.0183 0,-0.04576 0,-0.649727 0,-1.299454 0,-0.649728 0,-1.290304 0,-0.649727 0,-1.299455 0,-0.25623 0,-0.485007 0,-0.237929 0,-0.430102 0.09151,0 0.173871,0 0.09151,0 0.173871,0 0.09151,0 0.17387,0 0.09151,0 0.183022,0 0,0 0.04575,0.155569 0.04576,0.146417 0.09151,0.347741 0.05491,0.192173 0.100662,0.347742 0.04576,0.146417 0.04576,0.146417 0,0.58567 0,1.235397 0,0.649728 0,1.317757 0,0.66803 0,1.354361 z"
             style="font-weight:600;-inkscape-font-specification:'Recursive Semi-Bold';fill:#bb22ff"
             id="path38942" />
          <path
             d="m 102.43248,40.40179 q 0.60397,0 1.06153,0.24708 0.45755,0.237928 0.71378,0.695483 0.25623,0.448403 0.25623,1.09813 v 0.732087 q 0,0.02745 -0.009,0.05491 -0.009,0.0183 -0.0366,0.02745 -0.0183,0.0092 -0.0458,0.0092 h -2.19626 q -0.14642,0 -0.31114,0 -0.15556,0 -0.31113,0 h -0.33859 l -0.0641,-0.704634 h 2.24202 q 0,-0.04575 0,-0.07321 0,-0.03661 0,-0.08236 0,-0.292835 -0.0641,-0.50331 -0.0641,-0.210475 -0.19217,-0.33859 -0.11897,-0.118964 -0.29284,-0.173871 -0.17387,-0.05491 -0.4118,-0.05491 -0.49416,0 -0.75039,0.256231 -0.25623,0.247079 -0.25623,0.832749 V 43.4766 q 0,0.173871 0.0275,0.320289 0.0275,0.137266 0.0824,0.247079 0.0549,0.109813 0.13726,0.192173 0.16472,0.16472 0.42095,0.237928 0.25623,0.07321 0.60397,0.07321 0.32944,0 0.58567,-0.0366 0.25623,-0.03661 0.47586,-0.100662 0.22878,-0.07321 0.43925,-0.16472 h 0.16472 q 0,0.210475 0,0.430101 0,0.210475 0,0.411799 0,0.0183 -0.009,0.03661 -0.009,0.0183 -0.0275,0.0366 -0.0824,0.09151 -0.33859,0.173871 -0.25623,0.07321 -0.60397,0.118964 -0.33859,0.05491 -0.69549,0.05491 -0.58567,0 -1.03407,-0.137266 -0.4484,-0.137266 -0.74124,-0.402648 -0.29283,-0.265382 -0.4484,-0.640576 -0.14642,-0.375195 -0.14642,-0.851052 v -1.015771 q 0,-0.494158 0.14642,-0.869353 0.15557,-0.384346 0.43925,-0.649727 0.29284,-0.265382 0.67718,-0.402648 0.3935,-0.137267 0.85105,-0.137267 z"
             style="font-weight:600;-inkscape-font-specification:'Recursive Semi-Bold';fill:#bb22ff"
             id="path38944" />
          <path
             d="m 106.8982,44.858371 v -0.558216 q 0,-0.155569 0,-0.301986 0,-0.146418 0,-0.301986 0,-0.155569 0,-0.311137 0,-0.320289 0,-0.640577 0,-0.320288 0,-0.640576 0,-0.320288 0,-0.631425 h -0.15557 q -0.21047,0 -0.42095,0 -0.20132,0 -0.40265,0 -0.0458,0 -0.0732,-0.02745 -0.0275,-0.02745 -0.0275,-0.07321 0,-0.219626 0,-0.430101 0,-0.219627 0,-0.439253 0.10981,0 0.23793,0 0.13727,0 0.28368,0 0.15557,0 0.31114,0 0.15557,0 0.32944,0 0.17387,0 0.34774,0 0.18302,0 0.35689,0 0,0 0.0275,0.09151 0.0366,0.09151 0.0732,0.24708 0.0458,0.146417 0.0915,0.301986 0.0549,0.155568 0.0824,0.292834 0.0366,0.128116 0.0458,0.183022 0,0.375195 0,0.777843 0,0.393497 0,0.814447 0,0.411799 0,0.832749 0,0.42095 0,0.8419 z m 0.8602,-3.44081 h 0.32029 q 0.24708,-0.448403 0.63142,-0.722936 0.3935,-0.283684 0.93342,-0.283684 0.22877,0 0.35689,0.03661 0.13726,0.0366 0.18302,0.09151 0.0183,0.0092 0.0275,0.0366 0.009,0.0183 0.009,0.06406 0,0.25623 0,0.512461 0,0.25623 0,0.521612 h -0.16471 q -0.19218,-0.06406 -0.34775,-0.08236 -0.15556,-0.0183 -0.34774,-0.0183 -0.25623,0 -0.52161,0.07321 -0.26538,0.07321 -0.51246,0.228777 -0.24708,0.155568 -0.47586,0.411799 z m -1.99494,3.029011 h 3.7245 q 0.0366,0 0.0549,0.0183 0.0183,0.0092 0.0275,0.02745 0.0183,0.0183 0.0183,0.05491 0,0.146417 0,0.283684 0,0.137266 0,0.283684 0,0.137266 0,0.292834 h -3.72449 q -0.0458,0 -0.0732,-0.02745 -0.0275,-0.02745 -0.0275,-0.07321 0,-0.155568 0,-0.292834 0,-0.146418 0,-0.283684 0,-0.137267 0,-0.283684 z"
             style="font-weight:600;-inkscape-font-specification:'Recursive Semi-Bold';fill:#bb22ff"
             id="path38946" />
          <path
             d="m 113.17588,42.835044 q -0.14661,0 -0.31322,0 -0.1666,0 -0.33987,0 -0.16661,0 -0.31322,0 -0.02,0 -0.04,-0.0067 -0.0133,-0.01333 -0.0266,-0.02666 -0.007,-0.01999 -0.007,-0.03999 v -0.946321 q 0.14661,0 0.31322,0 0.17327,0 0.33988,0 0.1666,0 0.31322,0 0.0267,0 0.04,0.01333 0.0133,0.0067 0.02,0.01999 0.0133,0.01333 0.0133,0.03999 z m -0.83303,3.905238 q -0.1866,0 -0.31988,0 -0.13328,0 -0.25324,0 0.06,-0.306554 0.11996,-0.619773 0.06,-0.306555 0.11995,-0.619773 0.06,-0.306555 0.11996,-0.61311 0.06,-0.313218 0.11995,-0.619773 0.19993,0 0.33988,0 0.13995,0 0.27323,0 0.13995,0 0.30656,0 0.0267,0 0.04,0.01333 0.02,0.01333 0.02,0.03332 0.007,0.01999 -0.007,0.05331 -0.0933,0.259904 -0.19326,0.553131 -0.1,0.286561 -0.20659,0.579788 -0.1,0.29989 -0.20659,0.593116 -0.10663,0.29989 -0.20659,0.593117 -0.007,0.03332 -0.0267,0.03999 -0.0133,0.01333 -0.04,0.01333 z"
             style="font-size:6.66423px;fill:#575757"
             id="path38948" />
        </g>
        <g
           aria-label="graphic designer"
           id="text45459"
           style="font-size:9.74239px;line-height:1.25;font-family:Recursive;-inkscape-font-specification:Recursive;fill:url(#linearGradient39017);stroke-width:0.243559">
          <path
             d="m 14.508398,54.076165 0.379953,-0.418922 q 0.03897,-0.03897 0.04871,-0.07794 0.0097,-0.04871 0.0097,-0.116909 0,-0.233817 0,-0.292272 0,-0.0682 0,-0.136393 0.292271,0 0.65274,0 0.370211,0 0.662482,0 0.04871,0 0.07794,0.02923 0.02923,0.02923 0.02923,0.07794 v 0.623513 q 0,0.09742 -0.03897,0.146136 -0.02923,0.03897 -0.155878,0.0682 -0.126651,0.02923 -0.418923,0.08768 l -0.467635,0.08768 v 0.311756 z m -0.964496,-0.37021 q 0.701452,0 1.188571,0.20459 0.48712,0.20459 0.740422,0.594286 0.263044,0.379953 0.263044,0.906042 v 0.224075 q 0,0.516346 -0.263044,0.906042 -0.253302,0.379953 -0.740422,0.584543 -0.487119,0.204591 -1.188571,0.204591 -0.701452,0 -1.198314,-0.204591 -0.48712,-0.20459 -0.740422,-0.584543 -0.253302,-0.389696 -0.253302,-0.906042 v -0.224075 q 0,-0.526089 0.253302,-0.906042 0.253302,-0.389696 0.740422,-0.594286 0.496862,-0.20459 1.198314,-0.20459 z m 0,0.925527 q -0.496862,0 -0.779391,0.20459 -0.272787,0.194848 -0.272787,0.574801 v 0.224075 q 0,0.155878 0.04871,0.292272 0.05845,0.126651 0.146135,0.224074 0.136394,0.126652 0.350726,0.194848 0.214333,0.0682 0.506605,0.0682 0.506604,0 0.769648,-0.194848 0.272787,-0.20459 0.272787,-0.584543 v -0.224075 q 0,-0.165621 -0.04871,-0.292272 -0.04871,-0.136393 -0.146135,-0.233817 -0.126651,-0.126651 -0.340984,-0.185106 -0.214333,-0.0682 -0.506604,-0.0682 z m -0.974239,2.357658 0.584543,0.05845 q -0.05845,0.302014 -0.09742,0.506605 -0.02923,0.194847 -0.02923,0.360468 0,0.136393 0.05845,0.194848 0.0682,0.05845 0.204591,0.05845 h 1.315222 q 0.565059,0 0.925527,0.194848 0.370211,0.185105 0.545574,0.526089 0.185105,0.340984 0.185105,0.779391 v 0.331241 q 0,0.331242 -0.107166,0.594286 -0.09742,0.272787 -0.302014,0.467635 -0.20459,0.194848 -0.516347,0.302014 -0.311756,0.107166 -0.730679,0.107166 h -1.977705 q -0.379953,0 -0.662482,-0.07794 -0.28253,-0.07794 -0.477378,-0.224075 -0.185105,-0.146136 -0.282529,-0.370211 -0.09742,-0.214332 -0.09742,-0.487119 v -0.175363 q 0,-0.292272 0.116909,-0.526089 0.126651,-0.224075 0.350726,-0.379953 0.224075,-0.146136 0.526089,-0.194848 v -0.340984 l 0.69171,0.428665 q -0.194848,0.03897 -0.311757,0.136394 -0.107166,0.107166 -0.155878,0.233817 -0.04871,0.136394 -0.04871,0.302014 v 0.272787 q 0,0.175363 0.05845,0.292272 0.05845,0.126651 0.194848,0.185105 0.136394,0.0682 0.360469,0.0682 h 1.588009 q 0.116909,0 0.20459,-0.01949 0.08768,-0.01948 0.155879,-0.05845 0.0682,-0.02923 0.107166,-0.07794 0.07794,-0.07794 0.107166,-0.20459 0.03897,-0.116909 0.03897,-0.253303 v -0.253302 q 0,-0.292271 -0.136394,-0.438407 -0.136393,-0.136394 -0.477377,-0.136394 h -1.724403 q -0.233817,0 -0.438407,-0.116908 -0.204591,-0.116909 -0.331242,-0.311757 -0.126651,-0.20459 -0.126651,-0.467635 0,-0.321498 0.175363,-0.565058 0.185106,-0.24356 0.535832,-0.370211 z"
             style="font-weight:600;-inkscape-font-specification:'Recursive Semi-Bold';fill:url(#linearGradient38987)"
             id="path38879" />
          <path
             d="m 18.463794,58.450498 v -0.594285 q 0,-0.165621 0,-0.321499 0,-0.155878 0,-0.321499 0,-0.165621 0,-0.331241 0,-0.340984 0,-0.681968 0,-0.340983 0,-0.681967 0,-0.340984 0,-0.672225 h -0.165621 q -0.224075,0 -0.44815,0 -0.214333,0 -0.428665,0 -0.04871,0 -0.07794,-0.02923 -0.02923,-0.02923 -0.02923,-0.07794 0,-0.233817 0,-0.457892 0,-0.233818 0,-0.467635 0.116908,0 0.253302,0 0.146136,0 0.302014,0 0.16562,0 0.331241,0 0.165621,0 0.350726,0 0.185106,0 0.370211,0 0.194848,0 0.379953,0 0,0 0.02923,0.09742 0.03897,0.09742 0.07794,0.263044 0.04871,0.155879 0.09742,0.321499 0.05845,0.165621 0.08768,0.311757 0.03897,0.136393 0.04871,0.194847 0,0.399438 0,0.828104 0,0.418922 0,0.867072 0,0.438408 0,0.886558 0,0.44815 0,0.8963 z m 0.915784,-3.663138 h 0.340984 q 0.263044,-0.477377 0.672225,-0.769649 0.418923,-0.302014 0.993724,-0.302014 0.243559,0 0.379953,0.03897 0.146136,0.03897 0.194847,0.09742 0.01949,0.0097 0.02923,0.03897 0.0097,0.01948 0.0097,0.0682 0,0.272787 0,0.545574 0,0.272787 0,0.555316 h -0.175363 q -0.20459,-0.0682 -0.370211,-0.08768 -0.16562,-0.01948 -0.370211,-0.01948 -0.272786,0 -0.555316,0.07794 -0.282529,0.07794 -0.545574,0.243559 -0.263044,0.165621 -0.506604,0.438408 z m -2.123841,3.224731 h 3.965153 q 0.03897,0 0.05845,0.01949 0.01949,0.0097 0.02923,0.02923 0.01948,0.01949 0.01948,0.05845 0,0.155878 0,0.302014 0,0.146136 0,0.302014 0,0.146136 0,0.311757 h -3.965152 q -0.04871,0 -0.07794,-0.02923 -0.02923,-0.02923 -0.02923,-0.07794 0,-0.165621 0,-0.311757 0,-0.155878 0,-0.302014 0,-0.146136 0,-0.302014 z"
             style="font-weight:600;-inkscape-font-specification:'Recursive Semi-Bold';fill:url(#linearGradient38989)"
             id="path38881" />
          <path
             d="m 27.387808,55.68366 q 0,0.24356 0,0.496862 0,0.243559 0,0.496862 0,0.243559 0,0.496861 0,0.253303 0,0.48712 0,0.09742 0.0097,0.16562 0.01948,0.0682 0.0682,0.107167 0.02923,0.03897 0.08768,0.05845 0.05845,0.01948 0.146136,0.01948 0.01948,0 0.03897,0 0.02923,0 0.05845,0 h 0.175363 q 0,0.224075 0,0.457892 0,0.224075 0,0.457893 0,0.04871 -0.02923,0.07794 -0.02923,0.02923 -0.07794,0.02923 -0.04871,0 -0.214333,0 -0.155878,0 -0.282529,0 -0.263045,0 -0.467635,-0.07794 -0.20459,-0.07794 -0.370211,-0.233818 -0.155878,-0.155878 -0.243559,-0.37021 -0.07794,-0.224075 -0.07794,-0.496862 0,-0.311757 0,-0.642998 0,-0.331241 0,-0.642998 0,-0.16562 0,-0.321499 0,-0.155878 0,-0.311756 0,-0.155878 0,-0.311757 0,-0.311756 -0.107167,-0.487119 -0.09742,-0.185105 -0.331241,-0.253302 -0.233817,-0.07794 -0.633255,-0.07794 -0.28253,0 -0.545574,0.02923 -0.253302,0.01948 -0.496862,0.07794 -0.24356,0.04871 -0.506604,0.136393 h -0.165621 q 0,-0.224075 0,-0.457892 0,-0.24356 0,-0.457892 0,-0.03897 0.0097,-0.05845 0.0097,-0.02923 0.01948,-0.03897 0.04871,-0.04871 0.311757,-0.126651 0.263044,-0.07794 0.633255,-0.136394 0.370211,-0.05845 0.740422,-0.05845 0.594285,0 1.013208,0.116909 0.428665,0.107166 0.701452,0.340983 0.272787,0.233818 0.399438,0.613771 0.136394,0.370211 0.136394,0.8963 z m -3.166277,1.909508 q 0,0.233817 0.136393,0.370211 0.136394,0.126651 0.418923,0.126651 0.28253,0 0.545574,-0.0682 0.272787,-0.07794 0.535831,-0.233817 0.263045,-0.155878 0.52609,-0.428665 v 0.837845 h -0.28253 q -0.146136,0.302014 -0.379953,0.516347 -0.224075,0.20459 -0.535831,0.311756 -0.311757,0.107167 -0.681968,0.107167 -0.44815,0 -0.779391,-0.175363 -0.321499,-0.175363 -0.506604,-0.48712 -0.175363,-0.311756 -0.175363,-0.730679 V 57.40806 q 0,-0.321499 0.107166,-0.574801 0.107166,-0.263045 0.302014,-0.438408 0.20459,-0.185105 0.48712,-0.282529 0.282529,-0.107166 0.633255,-0.107166 0.340984,0 0.662483,0 0.321498,0 0.623512,0 0.302015,0 0.594286,0 0.07794,0 0.116909,0.146135 0.04871,0.136394 0.05845,0.311757 0.0097,0.175363 0.0097,0.302014 -0.331242,0 -0.633256,0 -0.292271,0 -0.594285,0 -0.302015,0 -0.633256,0 -0.146136,0 -0.253302,0.03897 -0.09742,0.02923 -0.175363,0.107166 -0.05845,0.05845 -0.09742,0.155878 -0.02923,0.08768 -0.02923,0.194848 z"
             style="font-weight:600;-inkscape-font-specification:'Recursive Semi-Bold';fill:url(#linearGradient38991)"
             id="path38883" />
          <path
             d="m 29.102453,53.813121 q 0.185106,0 0.360469,0 0.175363,0 0.350726,0 0.175363,0 0.350726,0 0.03897,0 0.05845,0.01948 0.01948,0.0097 0.02923,0.02923 0.01949,0.01949 0.01949,0.05845 0,0.876815 0,1.763373 0,0.886557 0,1.773115 0,0.876815 0,1.763372 0,0.886558 0,1.763373 -0.175363,0 -0.350726,0 -0.175363,0 -0.350726,0 -0.175363,0 -0.360468,0 -0.02923,0 -0.05846,-0.01948 -0.01948,-0.0097 -0.03897,-0.03897 -0.0097,-0.01948 -0.0097,-0.04871 0,-0.759906 0,-1.519812 0,-0.759907 0,-1.519813 0,-0.759907 0,-1.519813 0,-0.759906 0,-1.519813 0,-0.263044 0,-0.506604 0,-0.253302 0,-0.477377 z m 2.815551,-0.107166 q 0.487119,0 0.85733,0.224075 0.370211,0.224075 0.574801,0.65274 0.20459,0.428665 0.20459,1.013208 v 1.607495 q 0,0.457892 -0.116908,0.81836 -0.116909,0.350726 -0.331241,0.604028 -0.214333,0.24356 -0.52609,0.379954 -0.302014,0.126651 -0.681967,0.126651 -0.292271,0 -0.565058,-0.09742 -0.263045,-0.09742 -0.496862,-0.272787 -0.224075,-0.175363 -0.399438,-0.418923 h -0.28253 v -1.013208 q 0.272787,0.340983 0.633256,0.506604 0.370211,0.165621 0.750164,0.165621 0.263044,0 0.44815,-0.107167 0.185105,-0.116908 0.282529,-0.340983 0.107166,-0.224075 0.107166,-0.535832 V 55.79083 q 0,-0.253302 -0.05845,-0.438407 -0.05845,-0.185106 -0.175363,-0.302015 -0.107166,-0.107166 -0.263045,-0.155878 -0.146135,-0.05845 -0.340983,-0.05845 -0.233818,0 -0.477377,0.107166 -0.24356,0.107166 -0.477377,0.321499 -0.224075,0.20459 -0.428666,0.516347 v -1.159345 h 0.28253 q 0.155878,-0.292271 0.379953,-0.496862 0.233817,-0.20459 0.506604,-0.311756 0.28253,-0.107166 0.594286,-0.107166 z"
             style="font-weight:600;-inkscape-font-specification:'Recursive Semi-Bold';fill:url(#linearGradient38993)"
             id="path38885" />
          <path
             d="m 35.055039,59.035042 q -0.02923,0 -0.05846,-0.0097 -0.01948,-0.01948 -0.03897,-0.03897 -0.0097,-0.01949 -0.0097,-0.05845 0,-0.779392 0,-1.558783 0,-0.779391 0,-1.558782 0,-0.789134 0,-1.568525 0,-0.779391 0,-1.54904 0,-0.292272 0,-0.535831 0,-0.253302 0,-0.428665 0.214333,0 0.389696,0 0.175363,0 0.340984,0 0.16562,0 0.331241,0 0.03897,0 0.05845,0.01948 0.01949,0.0097 0.02923,0.02923 0.01949,0.01949 0.01949,0.05846 0,0.8963 0,1.802342 0,0.8963 0,1.802342 0,0.8963 0,1.802342 0,0.8963 0,1.7926 -0.185105,0 -0.360468,0 -0.165621,0 -0.340984,0 -0.175363,0 -0.360468,0 z m 0.915784,-3.292928 v -1.071663 h 0.321499 q 0.155878,-0.224075 0.331241,-0.399438 0.175363,-0.175363 0.370211,-0.302014 0.20459,-0.126651 0.428665,-0.194848 0.233818,-0.0682 0.48712,-0.0682 0.321499,0 0.574801,0.107166 0.253302,0.09742 0.428665,0.302014 0.175363,0.194848 0.272787,0.467635 0.09742,0.272787 0.09742,0.61377 0,0.467635 0,0.945012 0,0.477377 0,0.954754 0,0.477377 0,0.954754 0,0.253303 0,0.496862 0,0.24356 0,0.48712 -0.28253,0 -0.535832,0 -0.243559,0 -0.535831,0 -0.02923,0 -0.05845,-0.0097 -0.01948,-0.01948 -0.03897,-0.03897 -0.0097,-0.01949 -0.0097,-0.05845 0,-0.584544 0,-1.159345 0,-0.584543 0,-1.169087 0,-0.584543 0,-1.159344 0,-0.311756 -0.146136,-0.457892 -0.136394,-0.146136 -0.428665,-0.146136 -0.175363,0 -0.379954,0.05845 -0.194847,0.04871 -0.40918,0.165621 -0.20459,0.116908 -0.399438,0.282529 -0.194848,0.165621 -0.370211,0.399438 z"
             style="font-weight:600;-inkscape-font-specification:'Recursive Semi-Bold';fill:url(#linearGradient38995)"
             id="path38887" />
          <path
             d="m 42.449497,58.343332 v -0.506604 q 0,-0.194848 0,-0.389696 0,-0.194848 0,-0.389695 0,-0.224075 0,-0.438408 0,-0.224075 0,-0.44815 0,-0.224075 0,-0.438407 0,-0.224075 0,-0.44815 0,-0.224075 0,-0.438408 h -0.175363 q -0.233817,0 -0.457892,0 -0.224075,0 -0.44815,0 -0.224075,0 -0.457892,0 -0.02923,0 -0.05845,-0.0097 -0.01948,-0.01949 -0.03897,-0.03897 -0.0097,-0.02923 -0.0097,-0.05845 0,-0.233817 0,-0.457892 0,-0.233818 0,-0.467635 0.44815,0 0.906042,0 0.457892,0 0.906042,0 0.44815,0 0.8963,0 0.03897,0 0.05845,0.01948 0.01949,0.0097 0.02923,0.02923 0.01948,0.01949 0.01948,0.05845 0,0.467635 0,0.925527 0,0.457893 0,0.915785 0,0.44815 0,0.886557 0,0.438408 0,0.867073 0,0.428665 0,0.828103 z m -1.812084,-0.331241 h 4.481499 q 0.03897,0 0.05845,0.01949 0.01948,0.0097 0.02923,0.02923 0.01948,0.01949 0.01948,0.05845 0,0.146136 0,0.302014 0,0.146136 0,0.302014 0,0.146136 0,0.311757 h -4.4815 q -0.02923,0 -0.05845,-0.0097 -0.01948,-0.01948 -0.03897,-0.03897 -0.0097,-0.01949 -0.0097,-0.05845 0,-0.165621 0,-0.311757 0,-0.155878 0,-0.302014 0,-0.155878 0,-0.302014 z m 1.626979,-6.64431 q 0.175363,0 0.350726,0 0.175363,0 0.360469,0 0.194847,0 0.37021,0 0.175363,0 0.350726,0 0.04871,0 0.07794,0.02923 0.02923,0.02923 0.02923,0.07794 v 1.149602 q -0.175363,0 -0.350726,0 -0.175363,0 -0.370211,0 -0.185106,0 -0.360469,0 -0.175363,0 -0.350726,0 -0.04871,0 -0.07794,-0.02923 -0.02923,-0.02923 -0.02923,-0.07794 z"
             style="font-weight:600;-inkscape-font-specification:'Recursive Semi-Bold';fill:url(#linearGradient38997)"
             id="path38889" />
          <path
             d="m 49.08405,53.705955 q 0.457892,0 0.818361,0.0682 0.360468,0.0682 0.594285,0.165621 0.233818,0.09742 0.311757,0.175363 0.01949,0.0097 0.02923,0.03897 0.0097,0.01948 0.0097,0.04871 0,0.243559 0,0.487119 0,0.233817 0,0.467635 h -0.175364 q -0.360468,-0.165621 -0.720936,-0.263045 -0.350726,-0.09742 -0.789134,-0.09742 -0.457892,0 -0.769649,0.136394 -0.302014,0.126651 -0.457892,0.40918 -0.146136,0.282529 -0.146136,0.740422 v 0.720937 q 0,0.302014 0.0682,0.526089 0.07794,0.224075 0.24356,0.389695 0.155878,0.155878 0.40918,0.24356 0.263045,0.08768 0.642998,0.08768 0.292271,0 0.545574,-0.03897 0.253302,-0.04871 0.487119,-0.126651 0.24356,-0.08768 0.487119,-0.194848 h 0.175364 q 0,0.24356 0,0.48712 0,0.233817 0,0.477377 0,0.01948 -0.0097,0.03897 0,0.01949 -0.01948,0.03897 -0.09742,0.08768 -0.340983,0.185105 -0.24356,0.09742 -0.613771,0.155878 -0.360468,0.0682 -0.818361,0.0682 -0.574801,0 -1.032693,-0.155878 -0.457892,-0.165621 -0.779391,-0.467635 -0.321499,-0.302014 -0.496862,-0.720937 -0.165621,-0.418922 -0.165621,-0.925527 v -0.876815 q 0,-0.701452 0.302015,-1.217798 0.311756,-0.516347 0.876815,-0.789134 0.565058,-0.282529 1.334707,-0.282529 z"
             style="font-weight:600;-inkscape-font-specification:'Recursive Semi-Bold';fill:url(#linearGradient38999)"
             id="path38891" />
          <path
             d="m 59.781164,53.705955 q 0.331241,0 0.594286,0.107166 0.272787,0.09742 0.487119,0.282529 0.214333,0.185106 0.370211,0.44815 h 0.321499 v 1.130117 q -0.311756,-0.428665 -0.681967,-0.633255 -0.360469,-0.20459 -0.730679,-0.20459 -0.263045,0 -0.457893,0.116909 -0.185105,0.107166 -0.282529,0.331241 -0.09742,0.214332 -0.09742,0.535831 v 1.227541 q 0,0.253302 0.05845,0.438408 0.05846,0.185105 0.175363,0.302014 0.107167,0.09742 0.253302,0.155878 0.155879,0.05846 0.350727,0.05846 0.243559,0 0.487119,-0.07794 0.24356,-0.08768 0.477377,-0.272787 0.233817,-0.194847 0.44815,-0.506604 v 1.120375 H 61.23278 q -0.16562,0.272787 -0.389695,0.467635 -0.224075,0.194848 -0.496862,0.302014 -0.263045,0.09742 -0.584544,0.09742 -0.360468,0 -0.672225,-0.126651 Q 58.78744,58.879164 58.573108,58.635604 58.358775,58.382302 58.241867,58.031576 58.124958,57.68085 58.124958,57.2327 v -1.607495 q 0,-0.44815 0.116909,-0.808618 0.116908,-0.360468 0.331241,-0.604028 0.214332,-0.253302 0.516346,-0.379953 0.311757,-0.126651 0.69171,-0.126651 z m 2.6889,-1.977705 q 0.03897,0 0.05845,0.01948 0.01949,0.0097 0.02923,0.02923 0.01949,0.01949 0.01949,0.05846 0,0.730679 0,1.480843 0,0.750164 0,1.500328 0,0.740422 0,1.471101 0,0.730679 0,1.432131 0,0.350726 0,0.681967 0,0.321499 0,0.633256 -0.126651,0 -0.263045,0 -0.136393,0 -0.272787,0 -0.126651,0 -0.263044,0 -0.136393,0 -0.263045,0 -0.02923,0 -0.05845,-0.0097 -0.01948,-0.01948 -0.03897,-0.03897 -0.0097,-0.01949 -0.0097,-0.05845 0,-0.779392 0,-1.558783 0,-0.779391 0,-1.54904 0,-0.779391 0,-1.558782 0,-0.779391 0,-1.558782 0,-0.24356 0,-0.48712 0,-0.24356 0,-0.487119 0.126651,0 0.263045,0 0.136393,0 0.263044,0 0.136394,0 0.272787,0 0.136394,0 0.263045,0 z"
             style="font-weight:600;-inkscape-font-specification:'Recursive Semi-Bold';fill:url(#linearGradient39001)"
             id="path38893" />
          <path
             d="m 66.318295,53.705955 q 0.642997,0 1.130117,0.263044 0.487119,0.253302 0.759906,0.740422 0.272787,0.477377 0.272787,1.169087 v 0.779391 q 0,0.02923 -0.0097,0.05845 -0.0097,0.01949 -0.03897,0.02923 -0.01949,0.0097 -0.04871,0.0097 h -2.338173 q -0.155879,0 -0.331242,0 -0.16562,0 -0.331241,0 h -0.360468 l -0.0682,-0.750164 h 2.386886 q 0,-0.04871 0,-0.07794 0,-0.03897 0,-0.08768 0,-0.311756 -0.0682,-0.535831 -0.0682,-0.224075 -0.20459,-0.360469 -0.126651,-0.126651 -0.311757,-0.185105 -0.185105,-0.05846 -0.438407,-0.05846 -0.526089,0 -0.798876,0.272787 -0.272787,0.263045 -0.272787,0.886558 v 1.120375 q 0,0.185105 0.02923,0.340983 0.02923,0.146136 0.08768,0.263045 0.05845,0.116908 0.146136,0.20459 0.175363,0.175363 0.44815,0.253302 0.272787,0.07794 0.642998,0.07794 0.350726,0 0.623513,-0.03897 0.272787,-0.03897 0.506604,-0.107167 0.24356,-0.07794 0.467635,-0.175363 h 0.175363 q 0,0.224075 0,0.457893 0,0.224075 0,0.438407 0,0.01949 -0.0097,0.03897 -0.0097,0.01949 -0.02923,0.03897 -0.08768,0.09742 -0.360468,0.185106 -0.272787,0.07794 -0.642998,0.126651 -0.360468,0.05845 -0.740421,0.05845 -0.623513,0 -1.100891,-0.146136 -0.477377,-0.146136 -0.789133,-0.428665 -0.311757,-0.282529 -0.477377,-0.681967 -0.155878,-0.399438 -0.155878,-0.906042 v -1.081406 q 0,-0.526089 0.155878,-0.925527 0.16562,-0.40918 0.467635,-0.691709 0.311756,-0.28253 0.720936,-0.428666 0.418923,-0.146135 0.906043,-0.146135 z"
             style="font-weight:600;-inkscape-font-specification:'Recursive Semi-Bold';fill:url(#linearGradient39003)"
             id="path38895" />
          <path
             d="m 72.07603,58.021833 q 0.633255,0 0.876815,-0.16562 0.24356,-0.165621 0.24356,-0.44815 0,-0.146136 -0.05845,-0.24356 -0.05845,-0.09742 -0.214333,-0.175363 -0.155878,-0.07794 -0.44815,-0.126651 l -0.983981,-0.165621 q -0.477377,-0.08768 -0.789134,-0.253302 -0.311756,-0.16562 -0.467635,-0.428665 -0.146135,-0.272787 -0.146135,-0.623513 0,-0.379953 0.155878,-0.681967 0.155878,-0.311757 0.44815,-0.526089 0.292271,-0.224075 0.711194,-0.340984 0.428665,-0.116909 0.964497,-0.116909 0.467635,0 0.808618,0.05845 0.350726,0.04871 0.555316,0.126651 0.204591,0.07794 0.253302,0.126651 0.01948,0.0097 0.01948,0.02923 0.0097,0.0097 0.0097,0.02923 0,0.0097 0,0.03897 0,0.233817 0,0.477377 0,0.233817 0,0.467635 h -0.165621 q -0.272787,-0.09742 -0.496862,-0.146136 -0.224075,-0.05845 -0.467635,-0.07794 -0.233817,-0.02923 -0.535831,-0.02923 -0.389696,0 -0.633255,0.07794 -0.233818,0.0682 -0.350726,0.20459 -0.107167,0.136393 -0.107167,0.321499 0,0.136393 0.05845,0.233817 0.05845,0.09742 0.20459,0.165621 0.146136,0.05845 0.399438,0.09742 l 0.945012,0.155878 q 0.526089,0.08768 0.847588,0.272787 0.331241,0.175363 0.487119,0.457892 0.155878,0.282529 0.155878,0.672225 0,0.535831 -0.263044,0.906042 -0.263045,0.360469 -0.779391,0.545574 -0.516347,0.185105 -1.256769,0.185105 -0.40918,0 -0.759906,-0.04871 -0.350726,-0.03897 -0.623513,-0.107166 -0.272787,-0.0682 -0.44815,-0.136393 -0.175363,-0.07794 -0.233817,-0.136394 -0.0097,-0.01948 -0.01949,-0.02923 0,-0.01948 0,-0.04871 0,-0.24356 0,-0.496862 0,-0.263044 0,-0.526089 h 0.165621 q 0.224075,0.116909 0.438407,0.194848 0.214333,0.07794 0.438408,0.136393 0.233817,0.04871 0.487119,0.07794 0.263045,0.01948 0.574801,0.01948 z"
             style="font-weight:600;-inkscape-font-specification:'Recursive Semi-Bold';fill:url(#linearGradient39005)"
             id="path38897" />
          <path
             d="m 77.522009,58.343332 v -0.506604 q 0,-0.194848 0,-0.389696 0,-0.194848 0,-0.389695 0,-0.224075 0,-0.438408 0,-0.224075 0,-0.44815 0,-0.224075 0,-0.438407 0,-0.224075 0,-0.44815 0,-0.224075 0,-0.438408 h -0.175363 q -0.233817,0 -0.457892,0 -0.224075,0 -0.44815,0 -0.224075,0 -0.457892,0 -0.02923,0 -0.05846,-0.0097 -0.01949,-0.01949 -0.03897,-0.03897 -0.0097,-0.02923 -0.0097,-0.05845 0,-0.233817 0,-0.457892 0,-0.233818 0,-0.467635 0.44815,0 0.906043,0 0.457892,0 0.906042,0 0.44815,0 0.8963,0 0.03897,0 0.05845,0.01948 0.01948,0.0097 0.02923,0.02923 0.01949,0.01949 0.01949,0.05845 0,0.467635 0,0.925527 0,0.457893 0,0.915785 0,0.44815 0,0.886557 0,0.438408 0,0.867073 0,0.428665 0,0.828103 z m -1.812084,-0.331241 h 4.481499 q 0.03897,0 0.05845,0.01949 0.01949,0.0097 0.02923,0.02923 0.01949,0.01949 0.01949,0.05845 0,0.146136 0,0.302014 0,0.146136 0,0.302014 0,0.146136 0,0.311757 h -4.481499 q -0.02923,0 -0.05845,-0.0097 -0.01948,-0.01948 -0.03897,-0.03897 -0.0097,-0.01949 -0.0097,-0.05845 0,-0.165621 0,-0.311757 0,-0.155878 0,-0.302014 0,-0.155878 0,-0.302014 z m 1.626979,-6.64431 q 0.175363,0 0.350726,0 0.175363,0 0.360468,0 0.194848,0 0.370211,0 0.175363,0 0.350726,0 0.04871,0 0.07794,0.02923 0.02923,0.02923 0.02923,0.07794 v 1.149602 q -0.175363,0 -0.350726,0 -0.175363,0 -0.370211,0 -0.185105,0 -0.360468,0 -0.175363,0 -0.350726,0 -0.04871,0 -0.07794,-0.02923 -0.02923,-0.02923 -0.02923,-0.07794 z"
             style="font-weight:600;-inkscape-font-specification:'Recursive Semi-Bold';fill:url(#linearGradient39007)"
             id="path38899" />
          <path
             d="m 84.653425,54.076165 0.379954,-0.418922 q 0.03897,-0.03897 0.04871,-0.07794 0.0097,-0.04871 0.0097,-0.116909 0,-0.233817 0,-0.292272 0,-0.0682 0,-0.136393 0.292272,0 0.65274,0 0.370211,0 0.662483,0 0.04871,0 0.07794,0.02923 0.02923,0.02923 0.02923,0.07794 v 0.623513 q 0,0.09742 -0.03897,0.146136 -0.02923,0.03897 -0.155878,0.0682 -0.126651,0.02923 -0.418923,0.08768 l -0.467634,0.08768 v 0.311756 z m -0.964496,-0.37021 q 0.701452,0 1.188571,0.20459 0.48712,0.20459 0.740422,0.594286 0.263045,0.379953 0.263045,0.906042 v 0.224075 q 0,0.516346 -0.263045,0.906042 -0.253302,0.379953 -0.740422,0.584543 -0.487119,0.204591 -1.188571,0.204591 -0.701452,0 -1.198314,-0.204591 -0.48712,-0.20459 -0.740422,-0.584543 -0.253302,-0.389696 -0.253302,-0.906042 v -0.224075 q 0,-0.526089 0.253302,-0.906042 0.253302,-0.389696 0.740422,-0.594286 0.496862,-0.20459 1.198314,-0.20459 z m 0,0.925527 q -0.496862,0 -0.779391,0.20459 -0.272787,0.194848 -0.272787,0.574801 v 0.224075 q 0,0.155878 0.04871,0.292272 0.05845,0.126651 0.146136,0.224074 0.136393,0.126652 0.350726,0.194848 0.214332,0.0682 0.506604,0.0682 0.506604,0 0.769649,-0.194848 0.272787,-0.20459 0.272787,-0.584543 v -0.224075 q 0,-0.165621 -0.04871,-0.292272 -0.04871,-0.136393 -0.146136,-0.233817 -0.126651,-0.126651 -0.340984,-0.185106 -0.214332,-0.0682 -0.506604,-0.0682 z m -0.974239,2.357658 0.584543,0.05845 q -0.05845,0.302014 -0.09742,0.506605 -0.02923,0.194847 -0.02923,0.360468 0,0.136393 0.05845,0.194848 0.0682,0.05845 0.20459,0.05845 h 1.315222 q 0.565059,0 0.925527,0.194848 0.370211,0.185105 0.545574,0.526089 0.185106,0.340984 0.185106,0.779391 v 0.331241 q 0,0.331242 -0.107167,0.594286 -0.09742,0.272787 -0.302014,0.467635 -0.20459,0.194848 -0.516346,0.302014 -0.311757,0.107166 -0.73068,0.107166 H 82.77314 q -0.379953,0 -0.662482,-0.07794 -0.28253,-0.07794 -0.477377,-0.224075 -0.185106,-0.146136 -0.28253,-0.370211 -0.09742,-0.214332 -0.09742,-0.487119 v -0.175363 q 0,-0.292272 0.116909,-0.526089 0.126651,-0.224075 0.350726,-0.379953 0.224075,-0.146136 0.526089,-0.194848 v -0.340984 l 0.69171,0.428665 q -0.194848,0.03897 -0.311757,0.136394 -0.107166,0.107166 -0.155878,0.233817 -0.04871,0.136394 -0.04871,0.302014 v 0.272787 q 0,0.175363 0.05846,0.292272 0.05845,0.126651 0.194847,0.185105 0.136394,0.0682 0.360469,0.0682 h 1.588009 q 0.116909,0 0.20459,-0.01949 0.08768,-0.01948 0.155879,-0.05845 0.0682,-0.02923 0.107166,-0.07794 0.07794,-0.07794 0.107166,-0.20459 0.03897,-0.116909 0.03897,-0.253303 v -0.253302 q 0,-0.292271 -0.136394,-0.438407 -0.136393,-0.136394 -0.477377,-0.136394 h -1.724403 q -0.233817,0 -0.438407,-0.116908 -0.20459,-0.116909 -0.331241,-0.311757 -0.126652,-0.20459 -0.126652,-0.467635 0,-0.321498 0.175363,-0.565058 0.185106,-0.24356 0.535832,-0.370211 z"
             style="font-weight:600;-inkscape-font-specification:'Recursive Semi-Bold';fill:url(#linearGradient39009)"
             id="path38901" />
          <path
             d="m 91.892008,59.035042 q -0.282529,0 -0.535831,0 -0.24356,0 -0.535832,0 -0.02923,0 -0.05845,-0.0097 -0.01949,-0.01948 -0.03897,-0.03897 -0.0097,-0.01949 -0.0097,-0.05845 0,-0.584544 0,-1.159345 0,-0.584543 0,-1.169087 0,-0.584543 0,-1.159344 0,-0.311756 -0.146136,-0.457892 -0.136393,-0.146136 -0.428665,-0.146136 -0.175363,0 -0.379953,0.05845 -0.194848,0.04871 -0.409181,0.165621 -0.20459,0.116908 -0.399438,0.282529 -0.194847,0.165621 -0.37021,0.399438 v -1.071663 h 0.321498 q 0.204591,-0.292271 0.44815,-0.506604 0.253302,-0.214333 0.545574,-0.331241 0.292272,-0.126651 0.623513,-0.126651 0.321499,0 0.574801,0.107166 0.253302,0.09742 0.428665,0.302014 0.175363,0.194848 0.272787,0.467635 0.09742,0.272787 0.09742,0.61377 0,0.467635 0,0.945012 0,0.477377 0,0.954754 0,0.477377 0,0.954754 0,0.253303 0,0.496862 0,0.24356 0,0.48712 z m -3.166277,0 q -0.185105,0 -0.360468,0 -0.165621,0 -0.340984,0 -0.175363,0 -0.360468,0 -0.02923,0 -0.04871,0 -0.01949,-0.0097 -0.03897,-0.01948 -0.0097,-0.01949 -0.01948,-0.03897 0,-0.01948 0,-0.04871 0,-0.52609 0,-1.042436 0,-0.516347 0,-1.032693 0,-0.516347 0,-1.032694 0,-0.526089 0,-1.042435 0,-0.292272 0,-0.535832 0,-0.253302 0,-0.428665 0.214332,0 0.389695,0 0.175363,0 0.340984,0 0.16562,0 0.331241,0 0.03897,0 0.05845,0.01948 0.01949,0.0097 0.02923,0.02923 0.01948,0.01949 0.01948,0.05845 0,0.847588 0,1.704918 0,0.847588 0,1.704919 0,0.847588 0,1.704918 z"
             style="font-weight:600;-inkscape-font-specification:'Recursive Semi-Bold';fill:url(#linearGradient39011)"
             id="path38903" />
          <path
             d="m 95.545384,53.705955 q 0.642997,0 1.130117,0.263044 0.487119,0.253302 0.759906,0.740422 0.272787,0.477377 0.272787,1.169087 v 0.779391 q 0,0.02923 -0.0097,0.05845 -0.0097,0.01949 -0.03897,0.02923 -0.01949,0.0097 -0.04871,0.0097 h -2.338173 q -0.155879,0 -0.331242,0 -0.16562,0 -0.331241,0 H 94.24969 l -0.0682,-0.750164 h 2.386885 q 0,-0.04871 0,-0.07794 0,-0.03897 0,-0.08768 0,-0.311756 -0.0682,-0.535831 -0.0682,-0.224075 -0.20459,-0.360469 -0.126652,-0.126651 -0.311757,-0.185105 -0.185105,-0.05846 -0.438407,-0.05846 -0.52609,0 -0.798876,0.272787 -0.272787,0.263045 -0.272787,0.886558 v 1.120375 q 0,0.185105 0.02923,0.340983 0.02923,0.146136 0.08768,0.263045 0.05845,0.116908 0.146136,0.20459 0.175363,0.175363 0.44815,0.253302 0.272787,0.07794 0.642998,0.07794 0.350726,0 0.623513,-0.03897 0.272787,-0.03897 0.506604,-0.107167 0.24356,-0.07794 0.467635,-0.175363 h 0.175363 q 0,0.224075 0,0.457893 0,0.224075 0,0.438407 0,0.01949 -0.0097,0.03897 -0.0097,0.01949 -0.02923,0.03897 -0.08768,0.09742 -0.360468,0.185106 -0.272787,0.07794 -0.642998,0.126651 -0.360468,0.05845 -0.740422,0.05845 -0.623513,0 -1.10089,-0.146136 Q 94.239903,58.849936 93.928147,58.567407 93.61639,58.284878 93.45077,57.88544 93.294892,57.486002 93.294892,56.979398 v -1.081406 q 0,-0.526089 0.155878,-0.925527 0.16562,-0.40918 0.467634,-0.691709 0.311757,-0.28253 0.720937,-0.428666 0.418923,-0.146135 0.906043,-0.146135 z"
             style="font-weight:600;-inkscape-font-specification:'Recursive Semi-Bold';fill:url(#linearGradient39013)"
             id="path38905" />
          <path
             d="m 100.29966,58.450498 v -0.594285 q 0,-0.165621 0,-0.321499 0,-0.155878 0,-0.321499 0,-0.165621 0,-0.331241 0,-0.340984 0,-0.681968 0,-0.340983 0,-0.681967 0,-0.340984 0,-0.672225 h -0.16562 q -0.224079,0 -0.448154,0 -0.214332,0 -0.428665,0 -0.04871,0 -0.07794,-0.02923 -0.02923,-0.02923 -0.02923,-0.07794 0,-0.233817 0,-0.457892 0,-0.233818 0,-0.467635 0.116908,0 0.253302,0 0.146136,0 0.302014,0 0.165621,0 0.331243,0 0.16562,0 0.35073,0 0.1851,0 0.37021,0 0.19485,0 0.37995,0 0,0 0.0292,0.09742 0.039,0.09742 0.0779,0.263044 0.0487,0.155879 0.0974,0.321499 0.0585,0.165621 0.0877,0.311757 0.039,0.136393 0.0487,0.194847 0,0.399438 0,0.828104 0,0.418922 0,0.867072 0,0.438408 0,0.886558 0,0.44815 0,0.8963 z m 0.91578,-3.663138 h 0.34098 q 0.26305,-0.477377 0.67223,-0.769649 0.41892,-0.302014 0.99372,-0.302014 0.24356,0 0.37996,0.03897 0.14613,0.03897 0.19484,0.09742 0.0195,0.0097 0.0292,0.03897 0.01,0.01948 0.01,0.0682 0,0.272787 0,0.545574 0,0.272787 0,0.555316 h -0.17536 q -0.20459,-0.0682 -0.37021,-0.08768 -0.16562,-0.01948 -0.37021,-0.01948 -0.27279,0 -0.55532,0.07794 -0.28253,0.07794 -0.54557,0.243559 -0.26305,0.165621 -0.5066,0.438408 z m -2.12384,3.224731 h 3.96515 q 0.039,0 0.0585,0.01949 0.0195,0.0097 0.0292,0.02923 0.0195,0.01949 0.0195,0.05845 0,0.155878 0,0.302014 0,0.146136 0,0.302014 0,0.146136 0,0.311757 h -3.965153 q -0.04871,0 -0.07794,-0.02923 -0.02923,-0.02923 -0.02923,-0.07794 0,-0.165621 0,-0.311757 0,-0.155878 0,-0.302014 0,-0.146136 0,-0.302014 z"
             style="font-weight:600;-inkscape-font-specification:'Recursive Semi-Bold';fill:url(#linearGradient39015)"
             id="path38907" />
        </g>
      </g>
      <rect
         style="display:inline;opacity:0.48885;mix-blend-mode:screen;fill:#ea2b5c;fill-opacity:0.632102;stroke:#7d7d7d;stroke-width:0.264992;stroke-linejoin:round;paint-order:markers stroke fill;filter:url(#filter966)"
         id="rect865"
         width="64.870003"
         height="53.80051"
         x="13.241086"
         y="23.157383"
         ry="13.230129"
         transform="matrix(0.31637064,0.02492038,0,0.3173506,31.414632,37.302536)"
         inkscape:label="Reflection" />
    </g>
    <g
       id="g167678"
       transform="matrix(0.65880679,0,0,0.65880679,8.4462779,11.406145)"
       inkscape:label="Logo"
       style="opacity:0.771194">
      <g
         id="g11807"
         inkscape:label="LOGO"
         transform="matrix(0.42173977,0,0,0.42173977,93.305717,95.982904)"
         style="fill:#bbbbbb;fill-opacity:1">
        <path
           d="m 21.771346,5.7904705 q 0.143066,0.2207438 0.252469,0.4133098 0.11782,0.182779 0.252471,0.4048939 0.06733,0.098434 0.117819,0.1154539 0.05049,0.01702 0.134651,0.00331 0.03366,-0.00548 0.05049,-0.00822 0.02525,-0.00412 0.05891,-0.0096 l 0.168313,-0.027424 q 0,0.2861324 0,0.5133551 0,0.2356384 0,0.5301865 0,0.042078 -0.02525,0.071439 -0.02525,0.029361 -0.06733,0.036217 -0.05891,0.0096 -0.168313,0.027424 -0.100988,0.016455 -0.185145,0.030166 -0.302964,0.049363 -0.50494,0.031778 Q 21.661943,7.9037976 21.518876,7.7924573 21.384226,7.6797431 21.257991,7.4646726 21.098094,7.1961772 20.971858,6.9558597 20.845624,6.7155421 20.685726,6.4470468 Z M 20.534244,0.90897823 q 0.639591,-0.10421066 1.094036,0.057383 0.462861,0.16022277 0.715331,0.58194827 0.252469,0.4133097 0.252469,1.0697311 v 2.1375775 q 0,0.6564213 -0.252469,1.1604184 Q 22.091141,6.4116177 21.62828,6.7226718 21.173835,7.0323545 20.534244,7.1365652 19.90307,7.2394047 19.440209,7.0791819 18.977347,6.9189591 18.724878,6.5056493 18.472408,6.0839239 18.472408,5.4275025 v -2.137577 q 0,-0.6564214 0.25247,-1.1520027 0.252469,-0.503997 0.715331,-0.8150511 0.462861,-0.311054 1.094035,-0.41389347 z M 19.734757,5.2218236 q 0,0.2356384 0.05049,0.4125557 0.05049,0.1685017 0.168313,0.2671242 0.09257,0.07749 0.235638,0.1046728 0.151483,0.025813 0.345042,-0.00573 0.286133,-0.04662 0.454446,-0.1750322 0.176729,-0.1381987 0.260885,-0.3538863 0.08416,-0.2156877 0.08416,-0.5102357 V 2.8237199 q 0,-0.1598975 -0.02525,-0.2904344 -0.01683,-0.1319082 -0.06733,-0.2246689 -0.05049,-0.1011764 -0.126234,-0.1645768 -0.100988,-0.084533 -0.244054,-0.1033015 -0.143067,-0.027183 -0.336627,0.00435 -0.277716,0.04525 -0.454445,0.1834479 -0.176729,0.1297831 -0.260886,0.3454708 -0.08416,0.2156878 -0.08416,0.5102359 z"
           id="path9021"
           inkscape:label="Q"
           style="fill:#bbbbbb;fill-opacity:1;stroke-width:0.870288" />
        <path
           d="m 17.047983,4.8601015 q 0.210391,0.3360092 0.378705,0.6115489 0.176729,0.2741688 0.378704,0.6115491 0.06733,0.098434 0.11782,0.1322851 0.05891,0.03248 0.143066,0.018768 0.03366,-0.00548 0.05049,-0.00822 0.02525,-0.00412 0.05891,-0.0096 l 0.168313,-0.027424 q 0,0.2861324 0,0.5217709 0,0.2356383 0,0.5217707 0,0.042079 -0.02525,0.071439 -0.02525,0.029361 -0.06733,0.036216 -0.05891,0.0096 -0.168314,0.027424 -0.100987,0.016455 -0.185144,0.030166 -0.302964,0.049363 -0.504939,0.040193 Q 17.19105,7.4288139 17.047983,7.334305 16.904917,7.239796 16.787098,7.03177 16.576707,6.6536825 16.366315,6.2755952 16.164339,5.8961365 15.945532,5.5194203 Z M 13.883695,2.1608886 q 0.572265,-0.093241 1.152946,-0.1878535 0.58068,-0.094612 1.152945,-0.1878533 0.530186,-0.086385 0.900476,-0.020482 0.370289,0.057487 0.597511,0.2561029 0.235639,0.1972451 0.336627,0.5090014 0.109403,0.3019695 0.109403,0.7059211 v 0.4965239 q 0,0.3871202 -0.117819,0.7176962 Q 17.897965,4.7805214 17.670742,5.0363507 17.44352,5.2837643 17.123724,5.4536889 16.803929,5.6151978 16.399977,5.681015 16.164339,5.719409 15.920285,5.759173 15.684647,5.797567 15.449008,5.835959 L 15.356438,5.89312 V 4.7570065 q 0.218807,-0.035651 0.437615,-0.071302 0.227222,-0.037022 0.446029,-0.072673 0.201976,-0.032908 0.328211,-0.1123863 0.13465,-0.080849 0.19356,-0.2166819 0.06733,-0.1372044 0.06733,-0.3223489 v -0.589096 q 0,-0.1430662 -0.03366,-0.2385693 -0.03366,-0.095503 -0.100989,-0.1518588 -0.06733,-0.056356 -0.185144,-0.070822 -0.109404,-0.024253 -0.269301,0.0018 -0.370289,0.060333 -0.757409,0.1234074 -0.378705,0.061703 -0.75741,0.1234074 -0.370288,0.060333 -0.748993,0.1220361 -0.04208,0.00686 -0.06733,-0.014277 -0.02525,-0.021133 -0.02525,-0.063212 0,-0.2777168 0,-0.5217708 0,-0.2440542 0,-0.5217705 z m 1.683132,5.6167221 q -0.311379,0.050734 -0.605927,0.098726 -0.286132,0.04662 -0.605927,0.098726 -0.04208,0.00688 -0.06733,-0.014273 -0.02525,-0.021134 -0.02525,-0.063212 0,-0.6732527 0,-1.2960114 0,-0.6311744 0,-1.2455173 0,-0.6227588 0,-1.2539331 0,-0.6311744 0,-1.2960114 L 15.667808,2.5771153 15.56682,2.8460395 q 0,0.2440541 0,0.4796925 0,0.2356385 0,0.4544456 0,0.5301864 0,1.0351258 0,0.5049396 0,1.0267103 0,0.5217708 0,1.1108669 0,0.2272228 0,0.4376142 0,0.2103915 0,0.3871206 z"
           id="path9024"
           inkscape:label="R"
           style="fill:#bbbbbb;fill-opacity:1;stroke-width:0.870288" />
        <path
           d="m 9.4709518,2.8798722 q 0.3197948,-0.052105 0.6059272,-0.098726 0.294548,-0.047992 0.605928,-0.098726 0.04208,-0.00686 0.06732,0.014277 0.02525,0.021133 0.02525,0.063212 0,0.7237466 0,1.4474932 0,0.7237466 0,1.4559088 0,0.7237466 0,1.4474933 0,0.7237465 0,1.4474935 -0.311378,0.050729 -0.605926,0.098726 -0.2861334,0.046621 -0.6059284,0.098725 -0.02525,0.00409 -0.050494,-1.879e-4 -0.016831,-0.01409 -0.033663,-0.02818 -0.00844,-0.015456 -0.00844,-0.049119 0,-0.8163185 0,-1.6326373 0,-0.8163189 0,-1.6326377 0,-0.8163189 0,-1.6326377 0,-0.2272228 0,-0.4460299 0,-0.2272227 0,-0.4544455 z m 0.5554332,2.2995483 1.649469,-0.2687537 q 0.143067,-0.023311 0.277717,-0.04525 0.143066,-0.023311 0.277716,-0.04525 l 0.31138,-0.1264753 0.277717,1.1666054 -2.701426,0.4401528 q -0.02525,0.00412 -0.04208,0.00686 -0.01683,-0.00567 -0.03366,-0.011347 -0.0084,-0.015456 -0.01683,-0.03092 0,-0.016831 0,-0.042078 z m 3.484083,2.9332403 q -0.311379,0.050729 -0.605927,0.098726 -0.286133,0.046621 -0.605928,0.098726 -0.02525,0.00409 -0.05049,-1.888e-4 -0.01683,-0.01409 -0.03366,-0.02818 -0.0084,-0.015456 -0.0084,-0.049119 0,-0.7237469 0,-1.4474935 0,-0.7237466 0,-1.4474932 0,-0.7321622 0,-1.4559088 0,-0.7237466 0,-1.4474932 0.319795,-0.052105 0.605928,-0.098726 0.294548,-0.047992 0.605927,-0.098726 0.02525,-0.00412 0.04208,0.00156 0.01683,-0.00274 0.02525,0.012717 0.01683,0.00567 0.01683,0.022505 0.0084,0.015455 0.0084,0.040703 0,0.6059273 0,1.2202704 0,0.6059274 0,1.2202704 0,0.6059274 0,1.2202705 0,0.6059273 0,1.2118547 0,0.2524698 0,0.4881081 0,0.2356385 0,0.4376147 z"
           id="path9027"
           inkscape:label="H"
           style="fill:#bbbbbb;fill-opacity:1;stroke-width:0.870288" />
        <path
           d="m 7.2580082,3.0721217 q 0.5975117,-0.097355 1.009879,-0.021477 0.4207828,0.074506 0.614343,0.2365293 0.033663,0.028178 0.042078,0.060469 0.00842,0.032291 0.00842,0.082785 0,0.1598974 0,0.3702889 0,0.2019758 0,0.4123672 0,0.2019758 0,0.3955359 Q 8.6634271,4.652498 8.3772948,4.699119 8.0995781,4.744369 7.830277,4.788247 7.788199,4.795107 7.762952,4.773969 7.737705,4.752836 7.737705,4.710757 q 0,-0.067325 0,-0.1430661 0,-0.075741 0,-0.1598976 0,-0.092572 0,-0.1935601 0,-0.1094036 0,-0.2440541 L 7.9733389,4.2095037 Q 7.7797788,4.1821313 7.577803,4.1897929 7.3758272,4.1890387 7.1822671,4.2205762 6.9802913,4.2534848 6.8288095,4.311829 6.6773276,4.3617575 6.5679241,4.4469082 6.4585205,4.5320592 6.3996109,4.6510609 6.3491168,4.760276 6.3491168,4.9117578 v 0.1767289 q 0,0.1514818 0.042078,0.2456137 0.050494,0.092761 0.1851445,0.1465626 0.1430662,0.05243 0.4207829,0.091338 l 0.7994876,0.1137908 q 0.3955358,0.053373 0.6564213,0.1539323 0.2608853,0.1005592 0.4123672,0.2610222 0.1514818,0.1520474 0.2103914,0.3780875 0.067325,0.2162531 0.067325,0.5108012 v 0.4039515 q 0,0.4965239 -0.269301,0.9022753 Q 8.6045135,8.7016134 8.099574,8.9774451 7.6030502,9.2434895 6.8961349,9.3586704 6.4921833,9.4244902 6.13031,9.4329581 5.7768524,9.4400945 5.5075513,9.3829427 5.2466659,9.3244593 5.1035997,9.2131217 q -0.025247,-0.021131 -0.042078,-0.043636 -0.00842,-0.032296 -0.00842,-0.116448 0,-0.159898 0,-0.3197951 0,-0.159898 0,-0.3366265 0,-0.1767285 0,-0.3702893 L 5.2214188,7.9989037 Q 5.6001234,8.1812543 6.0124906,8.2403007 6.4248579,8.2909341 6.988707,8.1990578 7.4852308,8.1181567 7.6956222,7.9408109 7.9060139,7.7550493 7.9060139,7.5783205 V 7.2669412 q 0,-0.1178193 -0.042078,-0.1951198 Q 7.8302727,6.9931493 7.6956223,6.9393477 7.5693875,6.8757587 7.2748394,6.8395942 L 6.4837676,6.7244322 Q 6.0629847,6.6667569 5.7936837,6.542322 5.5243827,6.417887 5.3729008,6.2574239 5.2298346,6.0871741 5.170925,5.886381 5.1120154,5.6771722 5.1120154,5.4499495 V 5.0207509 q 0,-0.345042 0.1430661,-0.6544846 Q 5.4065634,4.0470367 5.6842801,3.7829803 5.9704125,3.5175527 6.3659484,3.3352874 6.7614844,3.1530221 7.2580082,3.0721217 Z"
           id="path9030"
           inkscape:label="S"
           style="fill:#bbbbbb;fill-opacity:1;stroke-width:0.870288" />
        <rect
           style="fill:#bbbbbb;fill-opacity:1;stroke-width:0.27144"
           id="rect33"
           width="1.3546406"
           height="7.8187885"
           x="3.4328232"
           y="2.680866"
           inkscape:label="I"
           transform="matrix(0.9774913,-0.21097572,0,1,0,0)" />
      </g>
      <text
         xml:space="preserve"
         style="font-size:2.00237px;line-height:1.25;font-family:Recursive;-inkscape-font-specification:Recursive;letter-spacing:0px;fill:#bbbbbb;fill-opacity:1;stroke-width:0.0500594"
         x="102.96198"
         y="96.996643"
         id="text161655"
         inkscape:label="copyright"><tspan
           sodipodi:role="line"
           id="tspan161653"
           style="fill:#bbbbbb;fill-opacity:1;stroke-width:0.0500594"
           x="102.96198"
           y="96.996643"></tspan></text>
    </g>
  </g>
</svg>
