<?xml version="1.0" encoding="UTF-8" standalone="no"?>
<!-- Created with Inkscape (http://www.inkscape.org/) -->

<svg
   width="50"
   height="50"
   viewBox="0 0 13.229166 13.229167"
   version="1.1"
   id="svg22"
   inkscape:version="1.1.2 (0a00cf5339, 2022-02-04)"
   sodipodi:docname="icon.svg"
   xmlns:inkscape="http://www.inkscape.org/namespaces/inkscape"
   xmlns:sodipodi="http://sodipodi.sourceforge.net/DTD/sodipodi-0.dtd"
   xmlns="http://www.w3.org/2000/svg"
   xmlns:svg="http://www.w3.org/2000/svg">
  <sodipodi:namedview
     id="namedview24"
     pagecolor="#000000"
     bordercolor="#666666"
     borderopacity="1.0"
     inkscape:pageshadow="2"
     inkscape:pageopacity="0"
     inkscape:pagecheckerboard="true"
     inkscape:document-units="mm"
     showgrid="false"
     units="px"
     inkscape:zoom="6.4822235"
     inkscape:cx="33.630436"
     inkscape:cy="23.680146"
     inkscape:window-width="1920"
     inkscape:window-height="1048"
     inkscape:window-x="0"
     inkscape:window-y="32"
     inkscape:window-maximized="0"
     inkscape:current-layer="g11807"
     width="50px"
     inkscape:showpageshadow="false" />
  <defs
     id="defs19" />
  <g
     inkscape:label="Layer 1"
     inkscape:groupmode="layer"
     id="layer1">
    <g
       id="g11807"
       inkscape:label="LOGO"
       transform="matrix(0.66210459,0,0,0.66210459,1.0056516,-0.02585543)"
       style="fill:#bb22ff;fill-opacity:1">
      <path
         d="m 11.190544,13.857642 q 0.350886,0.5414 0.619209,1.013688 0.288966,0.448286 0.619213,0.993047 0.165135,0.241412 0.288965,0.283164 0.123832,0.04175 0.330245,0.008 0.08256,-0.0135 0.123833,-0.0201 0.06194,-0.01 0.144483,-0.02355 l 0.412806,-0.06726 q 0,0.701771 0,1.259059 0,0.577929 0,1.300341 0,0.103208 -0.06194,0.175213 -0.06194,0.07202 -0.165135,0.08883 -0.144483,0.02355 -0.412807,0.06726 -0.247683,0.04034 -0.454087,0.07399 -0.743054,0.121061 -1.238421,0.07795 -0.474693,-0.04652 -0.825579,-0.319582 -0.330238,-0.2764 -0.6398433,-0.803886 Q 9.5393217,17.305294 9.2297138,16.715887 8.920111,16.126482 8.5279434,15.467968 Z M 8.1564174,1.885246 q 1.5686669,-0.2555881 2.6832426,0.1407381 1.135217,0.392964 1.754428,1.4272922 0.619208,1.0136887 0.619208,2.6236333 v 5.2426444 q 0,1.609945 -0.619208,2.846053 -0.619211,1.215467 -1.754428,1.978362 -1.1145757,0.75953 -2.6832426,1.01512 Q 6.6083938,17.411312 5.4731763,17.018357 4.3379562,16.625395 3.7187484,15.611707 3.0995379,14.577378 3.0995379,12.967434 V 7.7247912 q 0,-1.6099471 0.6192105,-2.8254139 Q 4.3379562,3.6632695 5.4731763,2.9003751 6.6083938,2.137481 8.1564174,1.8852558 Z M 6.1955877,12.462972 q 0,0.577933 0.1238322,1.011841 0.1238323,0.413268 0.4128061,0.65515 0.227038,0.190054 0.577928,0.256722 0.3715288,0.0633 0.8462534,-0.01398 Q 8.8581801,14.25836 9.2709862,13.943417 9.7044335,13.604469 9.9108348,13.07547 10.117247,12.546474 10.117247,11.824063 V 6.5814335 q 0,-0.3921649 -0.06194,-0.7123213 Q 10.014042,5.5455933 9.8901838,5.3180869 9.7663515,5.0699415 9.5805813,4.9144437 9.3328977,4.7071245 8.9820124,4.6610866 8.6311249,4.5944247 8.1563977,4.6716328 7.4752687,4.7826134 7.0418213,5.1215592 6.608374,5.4398663 6.4019697,5.9688624 6.1955581,6.4978609 6.1955581,7.2202722 Z"
         id="path9021"
         inkscape:label="Q"
         style="fill:#bb22ff;fill-opacity:1;stroke-width:2.13448" />
      <text
         xml:space="preserve"
         style="font-size:4.48445px;line-height:1.25;font-family:Recursive;-inkscape-font-specification:Recursive;letter-spacing:0px;opacity:0.771194;fill:#bbbbbb;fill-opacity:1;stroke-width:0.112112"
         x="13.789017"
         y="-0.7851066"
         id="text161655"
         inkscape:label="copyright"
         transform="scale(1.000088,-0.99991201)"><tspan
           sodipodi:role="line"
           id="tspan161653"
           style="fill:#bbbbbb;fill-opacity:1;stroke-width:0.112112"
           x="13.789017"
           y="-0.7851066">©</tspan></text>
    </g>
  </g>
</svg>
