<?xml version="1.0" encoding="UTF-8" standalone="no"?>
<!-- Created with Inkscape (http://www.inkscape.org/) -->

<svg
   width="50"
   height="50"
   viewBox="0 0 13.229166 13.229167"
   version="1.1"
   id="svg22"
   inkscape:version="1.1.2 (0a00cf5339, 2022-02-04)"
   sodipodi:docname="icon.svg"
   xmlns:inkscape="http://www.inkscape.org/namespaces/inkscape"
   xmlns:sodipodi="http://sodipodi.sourceforge.net/DTD/sodipodi-0.dtd"
   xmlns="http://www.w3.org/2000/svg"
   xmlns:svg="http://www.w3.org/2000/svg">
  <sodipodi:namedview
     id="namedview24"
     pagecolor="#ffffff"
     bordercolor="#666666"
     borderopacity="1.0"
     inkscape:pageshadow="2"
     inkscape:pageopacity="0.0"
     inkscape:pagecheckerboard="0"
     inkscape:document-units="mm"
     showgrid="false"
     units="px"
     inkscape:zoom="5.5329471"
     inkscape:cx="15.001047"
     inkscape:cy="38.767766"
     inkscape:window-width="1920"
     inkscape:window-height="1048"
     inkscape:window-x="0"
     inkscape:window-y="32"
     inkscape:window-maximized="1"
     inkscape:current-layer="layer1"
     width="50px" />
  <defs
     id="defs19" />
  <g
     inkscape:label="Layer 1"
     inkscape:groupmode="layer"
     id="layer1">
    <path
       d="M 7.9387556,11.113376 H 5.222504 L 5.29041,10.332453 q 0,-0.271625 0,-0.6281332 0,-0.3565082 0,-0.6281332 0,-0.8658054 0,-1.7316106 0,-0.8658052 0,-1.7316104 0,-0.8827818 0,-1.7485872 0,-0.8827817 0,-1.748587 h 2.7162516 l -0.067906,0.7809224 q 0,0.2716252 0,0.6281331 0,0.3395315 0,0.6281332 0,0.8658055 0,1.7485873 0,0.8658052 0,1.748587 0,0.8658052 0,1.7316102 0,0.8658054 0,1.7316114 z m 2.5804404,1.443008 H 2.8967137 q -0.05093,0 -0.084883,0 -0.033953,-0.01698 -0.067906,-0.03395 -0.016977,-0.03395 -0.033953,-0.06791 0,-0.03395 0,-0.08488 0,-0.373484 0,-0.713015 0,-0.339532 0,-0.679063 0,-0.339531 0,-0.713016 h 7.6055053 q 0.06791,0 0.101859,0.03395 0.05093,0.01698 0.06791,0.05093 0.03395,0.03395 0.03395,0.101859 0,0.373485 0,0.713016 0,0.339532 0,0.679063 0,0.339531 0,0.713016 z M 2.7099714,0.67278283 h 7.6055056 q 0.101859,0 0.152789,0.05093 0.05093,0.05093 0.05093,0.1358126 0,0.28860167 0,0.54325027 0,0.2546486 0,0.5092972 0,0.2546486 0,0.5092972 0,0.2546486 0,0.5432503 H 2.8967137 q -0.084883,0 -0.1358126,-0.05093 -0.05093,-0.05093 -0.05093,-0.1358126 0,-0.2886017 0,-0.5432503 0,-0.2546486 0,-0.5092972 0,-0.2546486 0,-0.5092972 0,-0.27162517 3e-7,-0.54325027 z"
       id="path9"
       inkscape:label="I"
       style="stroke-width:0.59421;fill:#0000ff" />
  </g>
</svg>
