<?xml version="1.0" encoding="UTF-8" standalone="no"?>
<!-- Created with Inkscape (http://www.inkscape.org/) -->

<svg
   width="50"
   height="50"
   viewBox="0 0 13.229166 13.229167"
   version="1.1"
   id="svg22"
   inkscape:version="1.1.2 (0a00cf5339, 2022-02-04)"
   sodipodi:docname="icon.svg"
   xmlns:inkscape="http://www.inkscape.org/namespaces/inkscape"
   xmlns:sodipodi="http://sodipodi.sourceforge.net/DTD/sodipodi-0.dtd"
   xmlns="http://www.w3.org/2000/svg"
   xmlns:svg="http://www.w3.org/2000/svg">
  <sodipodi:namedview
     id="namedview24"
     pagecolor="#ffffff"
     bordercolor="#666666"
     borderopacity="1.0"
     inkscape:pageshadow="2"
     inkscape:pageopacity="0.0"
     inkscape:pagecheckerboard="0"
     inkscape:document-units="mm"
     showgrid="false"
     units="px"
     inkscape:zoom="6.4822235"
     inkscape:cx="24.914291"
     inkscape:cy="26.765507"
     inkscape:window-width="1920"
     inkscape:window-height="1048"
     inkscape:window-x="0"
     inkscape:window-y="32"
     inkscape:window-maximized="1"
     inkscape:current-layer="g11807"
     width="50px" />
  <defs
     id="defs19" />
  <g
     inkscape:label="Layer 1"
     inkscape:groupmode="layer"
     id="layer1">
    <g
       id="g11807"
       inkscape:label="LOGO"
       transform="matrix(0.66210459,0,0,0.66210459,1.0056516,-0.02585543)"
       style="fill:#bb22ff;fill-opacity:1">
      <path
         d="m 11.128918,13.299172 q 0.335898,0.518274 0.59276,0.97039 0.276623,0.429138 0.592764,0.950631 0.158081,0.2311 0.276622,0.271069 0.118543,0.03996 0.31614,0.0077 0.07903,-0.01292 0.118543,-0.01925 0.05929,-0.0096 0.138312,-0.02254 l 0.395175,-0.06438 q 0,0.671796 0,1.205281 0,0.553244 0,1.244799 0,0.0988 -0.05929,0.16773 -0.05929,0.06894 -0.158081,0.08504 -0.138312,0.02254 -0.395175,0.06438 -0.237104,0.03862 -0.434692,0.07083 -0.711315,0.11589 -1.185524,0.07462 Q 10.872056,18.26095 10.536157,17.99954 10.220018,17.734904 9.9236369,17.229949 9.5482234,16.599563 9.2518398,16.035332 8.9554611,15.471103 8.5800443,14.840715 Z M 8.2243871,1.8381528 q 1.5016645,-0.2446712 2.5686339,0.1347268 1.086728,0.3761793 1.679491,1.3663282 0.592759,0.970391 0.592759,2.51157 v 5.0187152 q 0,1.541179 -0.592759,2.724489 -0.592763,1.163551 -1.679491,1.89386 Q 9.7260516,16.214931 8.2243871,16.459603 6.7424843,16.701054 5.6557554,16.324883 4.5690241,15.948706 3.9762644,14.978315 3.3835023,13.988165 3.3835023,12.446986 V 7.4282734 q 0,-1.5411814 0.5927621,-2.704732 Q 4.5690241,3.5402315 5.6557554,2.8099227 6.7424843,2.0796141 8.2243871,1.8381622 Z M 6.3473104,11.964073 q 0,0.553246 0.118543,0.968621 0.118543,0.395617 0.3951739,0.627167 0.2173406,0.181935 0.553243,0.245757 0.3556596,0.0606 0.8101074,-0.01339 0.6717978,-0.109457 1.0669717,-0.410949 0.4149334,-0.32447 0.6125187,-0.830874 0.1975959,-0.506401 0.1975959,-1.197956 V 6.333752 q 0,-0.3754144 -0.05929,-0.6818959 Q 10.002666,5.3421557 9.8840992,5.1243666 9.7655561,4.8868204 9.5877207,4.7379643 9.3506164,4.5395004 9.0147185,4.4954288 8.6788185,4.4316143 8.2243683,4.5055246 7.5723324,4.6117649 7.1573989,4.9362333 6.7424655,5.2409445 6.5448773,5.7473456 6.3472822,6.253749 6.3472822,6.9453039 Z"
         id="path9021"
         inkscape:label="Q"
         style="fill:#bb22ff;fill-opacity:1;stroke-width:2.04331" />
    </g>
  </g>
</svg>
