<?xml version="1.0" encoding="UTF-8" standalone="no"?>
<!-- Created with Inkscape (http://www.inkscape.org/) -->

<svg
   sodipodi:docname="logo.svg"
   id="svg5"
   version="1.1"
   viewBox="0 0 26.458333 10.583333"
   height="40"
   width="100"
   inkscape:version="1.1.2 (0a00cf5339, 2022-02-04)"
   xmlns:inkscape="http://www.inkscape.org/namespaces/inkscape"
   xmlns:sodipodi="http://sodipodi.sourceforge.net/DTD/sodipodi-0.dtd"
   xmlns="http://www.w3.org/2000/svg"
   xmlns:svg="http://www.w3.org/2000/svg">
  <sodipodi:namedview
     id="namedview7"
     pagecolor="#ffffff"
     bordercolor="#666666"
     borderopacity="1.0"
     inkscape:pageshadow="2"
     inkscape:pageopacity="0.0"
     inkscape:pagecheckerboard="0"
     inkscape:document-units="px"
     showgrid="false"
     inkscape:zoom="4.6229944"
     inkscape:cx="81.224412"
     inkscape:cy="41.423369"
     inkscape:window-width="1920"
     inkscape:window-height="1048"
     inkscape:window-x="0"
     inkscape:window-y="32"
     inkscape:window-maximized="1"
     inkscape:current-layer="svg5"
     inkscape:snap-page="true"
     units="px"
     width="100px"
     height="40px" />
  <defs
     id="defs2" />
  <g
     inkscape:label="BG"
     inkscape:groupmode="layer"
     id="layer1"
     style="display:inline" />
  <g
     id="g11807"
     inkscape:label="LOGO"
     transform="matrix(1.1105016,0,0,1.1105016,-1.2973183,-0.61816412)">
    <path
       d="m 21.771346,5.7904705 q 0.143066,0.2207438 0.252469,0.4133098 0.11782,0.182779 0.252471,0.4048939 0.06733,0.098434 0.117819,0.1154539 0.05049,0.01702 0.134651,0.00331 0.03366,-0.00548 0.05049,-0.00822 0.02525,-0.00412 0.05891,-0.0096 l 0.168313,-0.027424 q 0,0.2861324 0,0.5133551 0,0.2356384 0,0.5301865 0,0.042078 -0.02525,0.071439 -0.02525,0.029361 -0.06733,0.036217 -0.05891,0.0096 -0.168313,0.027424 -0.100988,0.016455 -0.185145,0.030166 -0.302964,0.049363 -0.50494,0.031778 Q 21.661943,7.9037976 21.518876,7.7924573 21.384226,7.6797431 21.257991,7.4646726 21.098094,7.1961772 20.971858,6.9558597 20.845624,6.7155421 20.685726,6.4470468 Z M 20.534244,0.90897823 q 0.639591,-0.10421066 1.094036,0.057383 0.462861,0.16022277 0.715331,0.58194827 0.252469,0.4133097 0.252469,1.0697311 v 2.1375775 q 0,0.6564213 -0.252469,1.1604184 Q 22.091141,6.4116177 21.62828,6.7226718 21.173835,7.0323545 20.534244,7.1365652 19.90307,7.2394047 19.440209,7.0791819 18.977347,6.9189591 18.724878,6.5056493 18.472408,6.0839239 18.472408,5.4275025 v -2.137577 q 0,-0.6564214 0.25247,-1.1520027 0.252469,-0.503997 0.715331,-0.8150511 0.462861,-0.311054 1.094035,-0.41389347 z M 19.734757,5.2218236 q 0,0.2356384 0.05049,0.4125557 0.05049,0.1685017 0.168313,0.2671242 0.09257,0.07749 0.235638,0.1046728 0.151483,0.025813 0.345042,-0.00573 0.286133,-0.04662 0.454446,-0.1750322 0.176729,-0.1381987 0.260885,-0.3538863 0.08416,-0.2156877 0.08416,-0.5102357 V 2.8237199 q 0,-0.1598975 -0.02525,-0.2904344 -0.01683,-0.1319082 -0.06733,-0.2246689 -0.05049,-0.1011764 -0.126234,-0.1645768 -0.100988,-0.084533 -0.244054,-0.1033015 -0.143067,-0.027183 -0.336627,0.00435 -0.277716,0.04525 -0.454445,0.1834479 -0.176729,0.1297831 -0.260886,0.3454708 -0.08416,0.2156878 -0.08416,0.5102359 z"
       id="path9021"
       inkscape:label="Q"
       style="fill:#0000ff;stroke-width:0.870288" />
    <path
       d="m 17.047983,4.8601015 q 0.210391,0.3360092 0.378705,0.6115489 0.176729,0.2741688 0.378704,0.6115491 0.06733,0.098434 0.11782,0.1322851 0.05891,0.03248 0.143066,0.018768 0.03366,-0.00548 0.05049,-0.00822 0.02525,-0.00412 0.05891,-0.0096 l 0.168313,-0.027424 q 0,0.2861324 0,0.5217709 0,0.2356383 0,0.5217707 0,0.042079 -0.02525,0.071439 -0.02525,0.029361 -0.06733,0.036216 -0.05891,0.0096 -0.168314,0.027424 -0.100987,0.016455 -0.185144,0.030166 -0.302964,0.049363 -0.504939,0.040193 Q 17.19105,7.4288139 17.047983,7.334305 16.904917,7.239796 16.787098,7.03177 16.576707,6.6536825 16.366315,6.2755952 16.164339,5.8961365 15.945532,5.5194203 Z M 13.883695,2.1608886 q 0.572265,-0.093241 1.152946,-0.1878535 0.58068,-0.094612 1.152945,-0.1878533 0.530186,-0.086385 0.900476,-0.020482 0.370289,0.057487 0.597511,0.2561029 0.235639,0.1972451 0.336627,0.5090014 0.109403,0.3019695 0.109403,0.7059211 v 0.4965239 q 0,0.3871202 -0.117819,0.7176962 Q 17.897965,4.7805214 17.670742,5.0363507 17.44352,5.2837643 17.123724,5.4536889 16.803929,5.6151978 16.399977,5.681015 16.164339,5.719409 15.920285,5.759173 15.684647,5.797567 15.449008,5.835959 L 15.356438,5.89312 V 4.7570065 q 0.218807,-0.035651 0.437615,-0.071302 0.227222,-0.037022 0.446029,-0.072673 0.201976,-0.032908 0.328211,-0.1123863 0.13465,-0.080849 0.19356,-0.2166819 0.06733,-0.1372044 0.06733,-0.3223489 v -0.589096 q 0,-0.1430662 -0.03366,-0.2385693 -0.03366,-0.095503 -0.100989,-0.1518588 -0.06733,-0.056356 -0.185144,-0.070822 -0.109404,-0.024253 -0.269301,0.0018 -0.370289,0.060333 -0.757409,0.1234074 -0.378705,0.061703 -0.75741,0.1234074 -0.370288,0.060333 -0.748993,0.1220361 -0.04208,0.00686 -0.06733,-0.014277 -0.02525,-0.021133 -0.02525,-0.063212 0,-0.2777168 0,-0.5217708 0,-0.2440542 0,-0.5217705 z m 1.683132,5.6167221 q -0.311379,0.050734 -0.605927,0.098726 -0.286132,0.04662 -0.605927,0.098726 -0.04208,0.00688 -0.06733,-0.014273 -0.02525,-0.021134 -0.02525,-0.063212 0,-0.6732527 0,-1.2960114 0,-0.6311744 0,-1.2455173 0,-0.6227588 0,-1.2539331 0,-0.6311744 0,-1.2960114 L 15.667808,2.5771153 15.56682,2.8460395 q 0,0.2440541 0,0.4796925 0,0.2356385 0,0.4544456 0,0.5301864 0,1.0351258 0,0.5049396 0,1.0267103 0,0.5217708 0,1.1108669 0,0.2272228 0,0.4376142 0,0.2103915 0,0.3871206 z"
       id="path9024"
       inkscape:label="R"
       style="fill:#0000ff;stroke-width:0.870288" />
    <path
       d="m 9.4709518,2.8798722 q 0.3197948,-0.052105 0.6059272,-0.098726 0.294548,-0.047992 0.605928,-0.098726 0.04208,-0.00686 0.06732,0.014277 0.02525,0.021133 0.02525,0.063212 0,0.7237466 0,1.4474932 0,0.7237466 0,1.4559088 0,0.7237466 0,1.4474933 0,0.7237465 0,1.4474935 -0.311378,0.050729 -0.605926,0.098726 -0.2861334,0.046621 -0.6059284,0.098725 -0.02525,0.00409 -0.050494,-1.879e-4 -0.016831,-0.01409 -0.033663,-0.02818 -0.00844,-0.015456 -0.00844,-0.049119 0,-0.8163185 0,-1.6326373 0,-0.8163189 0,-1.6326377 0,-0.8163189 0,-1.6326377 0,-0.2272228 0,-0.4460299 0,-0.2272227 0,-0.4544455 z m 0.5554332,2.2995483 1.649469,-0.2687537 q 0.143067,-0.023311 0.277717,-0.04525 0.143066,-0.023311 0.277716,-0.04525 l 0.31138,-0.1264753 0.277717,1.1666054 -2.701426,0.4401528 q -0.02525,0.00412 -0.04208,0.00686 -0.01683,-0.00567 -0.03366,-0.011347 -0.0084,-0.015456 -0.01683,-0.03092 0,-0.016831 0,-0.042078 z m 3.484083,2.9332403 q -0.311379,0.050729 -0.605927,0.098726 -0.286133,0.046621 -0.605928,0.098726 -0.02525,0.00409 -0.05049,-1.888e-4 -0.01683,-0.01409 -0.03366,-0.02818 -0.0084,-0.015456 -0.0084,-0.049119 0,-0.7237469 0,-1.4474935 0,-0.7237466 0,-1.4474932 0,-0.7321622 0,-1.4559088 0,-0.7237466 0,-1.4474932 0.319795,-0.052105 0.605928,-0.098726 0.294548,-0.047992 0.605927,-0.098726 0.02525,-0.00412 0.04208,0.00156 0.01683,-0.00274 0.02525,0.012717 0.01683,0.00567 0.01683,0.022505 0.0084,0.015455 0.0084,0.040703 0,0.6059273 0,1.2202704 0,0.6059274 0,1.2202704 0,0.6059274 0,1.2202705 0,0.6059273 0,1.2118547 0,0.2524698 0,0.4881081 0,0.2356385 0,0.4376147 z"
       id="path9027"
       inkscape:label="H"
       style="fill:#0000ff;stroke-width:0.870288" />
    <path
       d="m 7.2580082,3.0721217 q 0.5975117,-0.097355 1.009879,-0.021477 0.4207828,0.074506 0.614343,0.2365293 0.033663,0.028178 0.042078,0.060469 0.00842,0.032291 0.00842,0.082785 0,0.1598974 0,0.3702889 0,0.2019758 0,0.4123672 0,0.2019758 0,0.3955359 Q 8.6634271,4.652498 8.3772948,4.699119 8.0995781,4.744369 7.830277,4.788247 7.788199,4.795107 7.762952,4.773969 7.737705,4.752836 7.737705,4.710757 q 0,-0.067325 0,-0.1430661 0,-0.075741 0,-0.1598976 0,-0.092572 0,-0.1935601 0,-0.1094036 0,-0.2440541 L 7.9733389,4.2095037 Q 7.7797788,4.1821313 7.577803,4.1897929 7.3758272,4.1890387 7.1822671,4.2205762 6.9802913,4.2534848 6.8288095,4.311829 6.6773276,4.3617575 6.5679241,4.4469082 6.4585205,4.5320592 6.3996109,4.6510609 6.3491168,4.760276 6.3491168,4.9117578 v 0.1767289 q 0,0.1514818 0.042078,0.2456137 0.050494,0.092761 0.1851445,0.1465626 0.1430662,0.05243 0.4207829,0.091338 l 0.7994876,0.1137908 q 0.3955358,0.053373 0.6564213,0.1539323 0.2608853,0.1005592 0.4123672,0.2610222 0.1514818,0.1520474 0.2103914,0.3780875 0.067325,0.2162531 0.067325,0.5108012 v 0.4039515 q 0,0.4965239 -0.269301,0.9022753 Q 8.6045135,8.7016134 8.099574,8.9774451 7.6030502,9.2434895 6.8961349,9.3586704 6.4921833,9.4244902 6.13031,9.4329581 5.7768524,9.4400945 5.5075513,9.3829427 5.2466659,9.3244593 5.1035997,9.2131217 q -0.025247,-0.021131 -0.042078,-0.043636 -0.00842,-0.032296 -0.00842,-0.116448 0,-0.159898 0,-0.3197951 0,-0.159898 0,-0.3366265 0,-0.1767285 0,-0.3702893 L 5.2214188,7.9989037 Q 5.6001234,8.1812543 6.0124906,8.2403007 6.4248579,8.2909341 6.988707,8.1990578 7.4852308,8.1181567 7.6956222,7.9408109 7.9060139,7.7550493 7.9060139,7.5783205 V 7.2669412 q 0,-0.1178193 -0.042078,-0.1951198 Q 7.8302727,6.9931493 7.6956223,6.9393477 7.5693875,6.8757587 7.2748394,6.8395942 L 6.4837676,6.7244322 Q 6.0629847,6.6667569 5.7936837,6.542322 5.5243827,6.417887 5.3729008,6.2574239 5.2298346,6.0871741 5.170925,5.886381 5.1120154,5.6771722 5.1120154,5.4499495 V 5.0207509 q 0,-0.345042 0.1430661,-0.6544846 Q 5.4065634,4.0470367 5.6842801,3.7829803 5.9704125,3.5175527 6.3659484,3.3352874 6.7614844,3.1530221 7.2580082,3.0721217 Z"
       id="path9030"
       inkscape:label="S"
       style="fill:#0000ff;stroke-width:0.870288" />
    <rect
       style="fill:#0000ff;stroke-width:0.27144"
       id="rect33"
       width="1.3546406"
       height="7.8187885"
       x="3.4328232"
       y="2.680866"
       inkscape:label="I"
       transform="matrix(0.9774913,-0.21097572,0,1,0,0)" />
  </g>
</svg>
