<?xml version="1.0" encoding="UTF-8" standalone="no"?>
<!-- Created with Inkscape (http://www.inkscape.org/) -->

<svg
   sodipodi:docname="logo.svg"
   id="svg5"
   version="1.1"
   viewBox="0 0 26.458333 10.583333"
   height="40"
   width="100"
   inkscape:version="1.1.2 (0a00cf5339, 2022-02-04)"
   xmlns:inkscape="http://www.inkscape.org/namespaces/inkscape"
   xmlns:sodipodi="http://sodipodi.sourceforge.net/DTD/sodipodi-0.dtd"
   xmlns="http://www.w3.org/2000/svg"
   xmlns:svg="http://www.w3.org/2000/svg">
  <sodipodi:namedview
     id="namedview7"
     pagecolor="#ffffff"
     bordercolor="#666666"
     borderopacity="1.0"
     inkscape:pageshadow="2"
     inkscape:pageopacity="0.0"
     inkscape:pagecheckerboard="0"
     inkscape:document-units="px"
     showgrid="false"
     inkscape:zoom="6.9726965"
     inkscape:cx="40.658589"
     inkscape:cy="32.770679"
     inkscape:window-width="1920"
     inkscape:window-height="1048"
     inkscape:window-x="0"
     inkscape:window-y="32"
     inkscape:window-maximized="1"
     inkscape:current-layer="svg5"
     inkscape:snap-page="true"
     units="px"
     width="100px"
     height="40px" />
  <defs
     id="defs2" />
  <g
     inkscape:label="BG"
     inkscape:groupmode="layer"
     id="layer1"
     style="display:inline" />
  <path
     d="m 24.601441,7.3318835 q 0.16439,0.2804291 0.290099,0.5221783 0.13538,0.2320793 0.2901,0.5125084 0.07736,0.1257096 0.135379,0.1547195 0.05802,0.02901 0.15472,0.02901 0.03868,0 0.05802,0 0.02901,0 0.06769,0 h 0.1934 q 0,0.328779 0,0.5898682 0,0.2707591 0,0.6092081 0,0.04835 -0.02901,0.07736 -0.02901,0.02901 -0.07736,0.02901 -0.06769,0 -0.193399,0 -0.11604,0 -0.21274,0 -0.348119,0 -0.580198,-0.05802 -0.22241,-0.05802 -0.3868,-0.2127396 Q 24.156623,9.4302669 24.011573,9.1595077 23.827844,8.8210588 23.682794,8.5212897 23.537745,8.2215207 23.354015,7.8830717 Z M 23.179956,1.4912218 q 0.734918,0 1.257096,0.2707592 0.531848,0.2707591 0.821947,0.8026075 0.290099,0.5221783 0.290099,1.276436 v 2.4561722 q 0,0.7542576 -0.290099,1.286106 -0.290099,0.5221783 -0.821947,0.7929375 -0.522178,0.2707591 -1.257096,0.2707591 -0.725248,0 -1.257096,-0.2707591 Q 21.391011,8.105481 21.100912,7.5833027 20.810813,7.0514543 20.810813,6.2971967 V 3.8410245 q 0,-0.7542577 0.290099,-1.276436 0.290099,-0.5318484 0.821948,-0.8026075 0.531848,-0.2707592 1.257096,-0.2707592 z m -0.918647,4.8059749 q 0,0.2707592 0.05802,0.4834985 0.05802,0.2030694 0.193399,0.3384489 0.10637,0.1063697 0.270759,0.1643895 0.17406,0.05802 0.396469,0.05802 0.328779,0 0.522178,-0.1160396 0.20307,-0.1257096 0.299769,-0.3577889 0.0967,-0.2320792 0.0967,-0.5705282 V 3.8410245 q 0,-0.1837295 -0.02901,-0.338449 -0.01934,-0.1547195 -0.07736,-0.2707591 -0.05802,-0.1257096 -0.145049,-0.2127394 -0.11604,-0.1160396 -0.280429,-0.1643894 -0.16439,-0.05802 -0.386799,-0.05802 -0.319109,0 -0.522178,0.1257096 -0.20307,0.1160397 -0.29977,0.3481189 -0.0967,0.2320793 -0.0967,0.5705283 z"
     id="path9021"
     inkscape:label="Q"
     style="fill:#0000ff" />
  <path
     d="m 19.174085,5.3785496 q 0.241749,0.4254787 0.435149,0.7735976 0.203069,0.3481189 0.435148,0.7735975 0.07736,0.1257096 0.13538,0.1740595 0.06769,0.04835 0.164389,0.04835 0.03868,0 0.05802,0 0.02901,0 0.06769,0 h 0.193399 q 0,0.328779 0,0.5995382 0,0.2707591 0,0.5995381 0,0.04835 -0.02901,0.07736 -0.02901,0.02901 -0.07736,0.02901 -0.06769,0 -0.1934,0 -0.116039,0 -0.212739,0 -0.348119,0 -0.580198,-0.04835 Q 19.338475,8.3569002 19.174085,8.2215207 19.009696,8.0861411 18.874316,7.8250519 18.632567,7.3512234 18.390817,6.8773949 18.158738,6.4035664 17.907319,5.9297379 Z M 15.538176,1.6846212 q 0.657558,0 1.324786,0 0.667228,0 1.324786,0 0.609208,0 1.034687,0.1450496 0.425479,0.1353796 0.686568,0.4061387 0.270759,0.2707592 0.386799,0.647888 0.125709,0.3674588 0.125709,0.8316173 v 0.5705283 q 0,0.4448185 -0.135379,0.8026074 -0.13538,0.3577889 -0.396469,0.6092081 -0.261089,0.2417492 -0.628548,0.3771288 -0.367459,0.1257096 -0.831618,0.1257096 -0.270759,0 -0.551188,0 -0.270759,0 -0.541518,0 l -0.10637,0.04835 V 4.943401 q 0.251419,0 0.502839,0 0.261089,0 0.512508,0 0.232079,0 0.377129,-0.06769 0.154719,-0.06769 0.222409,-0.2127393 0.07736,-0.1450496 0.07736,-0.3577889 V 3.6282851 q 0,-0.1643895 -0.03868,-0.2804291 -0.03868,-0.1160396 -0.11604,-0.1933994 -0.07736,-0.07736 -0.212739,-0.1160396 -0.12571,-0.04835 -0.309439,-0.04835 -0.425479,0 -0.870297,0 -0.435149,0 -0.870298,0 -0.425478,0 -0.860627,0 -0.04835,0 -0.07736,-0.02901 -0.02901,-0.02901 -0.02901,-0.07736 0,-0.319109 0,-0.5995381 0,-0.2804292 0,-0.5995377 z m 1.933994,6.7689787 q -0.357788,0 -0.696237,0 -0.328779,0 -0.696238,0 -0.04835,0 -0.07736,-0.02901 -0.02901,-0.02901 -0.02901,-0.07736 0,-0.7735976 0,-1.4891753 0,-0.7252478 0,-1.4311555 0,-0.7155778 0,-1.4408255 0,-0.7252477 0,-1.4891753 h 1.614885 l -0.11604,0.2900991 q 0,0.2804291 0,0.5511882 0,0.2707592 0,0.5221784 0,0.6092081 0,1.1894062 0,0.5801982 0,1.1797363 0,0.5995381 0,1.276436 0,0.2610892 0,0.5028384 0,0.2417493 0,0.444819 z"
     id="path9024"
     inkscape:label="R"
     style="fill:#0000ff" />
  <path
     d="m 10.467735,1.6846212 q 0.367459,0 0.696238,0 0.338449,0 0.696238,0 0.04835,0 0.07736,0.02901 0.02901,0.02901 0.02901,0.07736 0,0.8316174 0,1.6632348 0,0.8316174 0,1.6729047 0,0.8316174 0,1.6632348 0,0.8316173 0,1.6632347 -0.357788,0 -0.696237,0 -0.328779,0 -0.696238,0 -0.02901,0 -0.05802,-0.00967 -0.01934,-0.01934 -0.03868,-0.03868 -0.0097,-0.01934 -0.0097,-0.05802 0,-0.9379871 0,-1.8759741 0,-0.9379871 0,-1.8759741 0,-0.9379871 0,-1.8759741 0,-0.2610892 0,-0.5125084 0,-0.2610892 0,-0.5221784 z m 0.638218,2.7462714 h 1.895314 q 0.16439,0 0.319109,0 0.16439,0 0.319109,0 l 0.357789,-0.08703 0.319109,1.3924756 h -3.10406 q -0.02901,0 -0.04835,0 -0.01934,-0.00967 -0.03868,-0.01934 -0.0097,-0.01934 -0.01934,-0.03868 0,-0.01934 0,-0.04835 z m 4.003368,4.0227073 q -0.357789,0 -0.696238,0 -0.328779,0 -0.696238,0 -0.02901,0 -0.05802,-0.00967 -0.01934,-0.01934 -0.03868,-0.03868 -0.0097,-0.01934 -0.0097,-0.05802 0,-0.8316174 0,-1.6632348 0,-0.8316174 0,-1.6632348 0,-0.8412873 0,-1.6729047 0,-0.8316174 0,-1.6632348 0.367459,0 0.696238,0 0.338449,0 0.696238,0 0.02901,0 0.04835,0.00967 0.01934,0 0.02901,0.01934 0.01934,0.00967 0.01934,0.02901 0.0097,0.01934 0.0097,0.04835 0,0.6962378 0,1.4021456 0,0.6962378 0,1.4021456 0,0.6962378 0,1.4021456 0,0.6962378 0,1.3924756 0,0.2900991 0,0.5608582 0,0.2707592 0,0.5028385 z"
     id="path9027"
     inkscape:label="H"
     style="fill:#0000ff" />
  <path
     d="m 7.8055532,1.4912218 q 0.6865678,0 1.1603964,0.1643895 0.4834984,0.1643895 0.7059077,0.3867988 0.03868,0.03868 0.04835,0.07736 0.00967,0.03868 0.00967,0.0967 0,0.1837294 0,0.4254786 0,0.2320793 0,0.4738285 0,0.2320793 0,0.4544886 -0.309439,0 -0.6382179,0 -0.319109,0 -0.6285481,0 -0.04835,0 -0.07736,-0.02901 -0.02901,-0.02901 -0.02901,-0.07736 0,-0.07736 0,-0.1643894 0,-0.08703 0,-0.1837295 0,-0.1063696 0,-0.2224093 0,-0.1257096 0,-0.2804291 l 0.2707591,0.319109 q -0.2224093,-0.06769 -0.4544886,-0.0967 -0.2320792,-0.03868 -0.4544885,-0.03868 -0.2320793,0 -0.4061387,0.03868 -0.1740595,0.02901 -0.2997691,0.1063697 -0.1257096,0.07736 -0.1933994,0.2030693 -0.05802,0.1160397 -0.05802,0.2900991 V 3.637955 q 0,0.1740594 0.04835,0.2900991 0.05802,0.1160396 0.2127394,0.2030693 0.1643895,0.08703 0.4834984,0.1837295 L 8.4244311,4.595282 q 0.4544885,0.1353795 0.7542576,0.299769 0.299769,0.1643895 0.4738285,0.3771288 0.1740594,0.2030694 0.2417492,0.4738286 0.07736,0.2610891 0.07736,0.5995381 V 6.809705 q 0,0.5705282 -0.309439,0.9863369 Q 9.3527483,8.2118507 8.7725502,8.43426 8.202022,8.6469993 7.3897445,8.6469993 q -0.4641585,0 -0.8799672,-0.05802 Q 6.1036386,8.5309597 5.7941995,8.4149201 5.4944305,8.2988804 5.330041,8.1441609 q -0.02901,-0.02901 -0.04835,-0.05802 -0.00967,-0.03868 -0.00967,-0.1353796 0,-0.1837294 0,-0.3674588 0,-0.1837295 0,-0.3867988 0,-0.2030694 0,-0.4254787 H 5.4654204 Q 5.900569,7.0514541 6.3743975,7.1965037 6.848226,7.3318833 7.496114,7.3318833 q 0.5705282,0 0.8122774,-0.1643895 Q 8.5501409,6.9934345 8.5501409,6.7903652 V 6.4325763 q 0,-0.1353796 -0.04835,-0.2320793 Q 8.4631109,6.103797 8.3083915,6.0167676 8.163342,5.9200676 7.824893,5.8233682 L 6.915916,5.5429391 Q 6.4324175,5.3978895 6.1229785,5.2044902 5.8135395,5.0110908 5.63948,4.7983514 5.4750905,4.5759421 5.4074008,4.3341929 5.339711,4.0827737 5.339711,3.8216845 V 3.3285161 q 0,-0.3964688 0.1643894,-0.7252478 Q 5.6781599,2.2648194 5.9972689,2.0134002 6.3260479,1.761981 6.7805364,1.6266014 7.235025,1.4912218 7.8055532,1.4912218 Z"
     id="path9030"
     inkscape:label="S"
     style="fill:#0000ff" />
  <path
     d="M 3.6458342,7.6316525 H 2.098639 l 0.03868,-0.4448186 q 0,-0.1547195 0,-0.3577889 0,-0.2030693 0,-0.3577888 0,-0.4931685 0,-0.9863369 0,-0.4931685 0,-0.9863369 0,-0.5028384 0,-0.9960069 0,-0.5028384 0,-0.9960068 h 1.547195 l -0.03868,0.4448186 q 0,0.1547195 0,0.3577888 0,0.1933994 0,0.3577889 0,0.4931684 0,0.9960069 0,0.4931684 0,0.9960068 0,0.4931685 0,0.9863369 0,0.4931685 2e-7,0.9863369 z M 5.1156695,8.4535999 H 0.77385319 q -0.0290099,0 -0.0483498,0 -0.0193399,-0.00967 -0.0386799,-0.01934 -0.00967,-0.01934 -0.0193399,-0.03868 0,-0.01934 0,-0.04835 0,-0.2127394 0,-0.4061388 0,-0.1933993 0,-0.3867987 0,-0.1933994 0,-0.4061388 H 4.9996299 q 0.03868,0 0.05802,0.01934 0.02901,0.00967 0.03868,0.02901 0.01934,0.01934 0.01934,0.05802 0,0.2127393 0,0.4061387 0,0.1933994 0,0.3867988 0,0.1933994 -4e-7,0.4061388 z M 0.66748353,1.6846212 H 4.9996299 q 0.05802,0 0.08703,0.02901 0.02901,0.02901 0.02901,0.07736 0,0.1643895 0,0.309439 0,0.1450496 0,0.2900991 0,0.1450496 0,0.2900991 0,0.1450495 0,0.309439 H 0.77385319 q -0.0483498,0 -0.0773598,-0.02901 -0.0290099,-0.02901 -0.0290099,-0.07736 0,-0.1643895 0,-0.3094391 0,-0.1450495 0,-0.290099 0,-0.1450496 0,-0.2900991 0,-0.1547195 4e-8,-0.309439 z"
     id="path1247"
     inkscape:label="I"
     style="fill:#0000ff" />
</svg>
