<?xml version="1.0" encoding="UTF-8" standalone="no"?>
<!-- Created with Inkscape (http://www.inkscape.org/) -->

<svg
   sodipodi:docname="logo.svg"
   id="svg5"
   version="1.1"
   viewBox="0 0 26.458334 13.229166"
   height="50"
   width="100"
   inkscape:version="1.1.2 (0a00cf5339, 2022-02-04)"
   xmlns:inkscape="http://www.inkscape.org/namespaces/inkscape"
   xmlns:sodipodi="http://sodipodi.sourceforge.net/DTD/sodipodi-0.dtd"
   xmlns="http://www.w3.org/2000/svg"
   xmlns:svg="http://www.w3.org/2000/svg">
  <sodipodi:namedview
     id="namedview7"
     pagecolor="#000000"
     bordercolor="#666666"
     borderopacity="1.0"
     inkscape:pageshadow="2"
     inkscape:pageopacity="0"
     inkscape:pagecheckerboard="true"
     inkscape:document-units="px"
     showgrid="false"
     inkscape:zoom="8.0538151"
     inkscape:cx="44.202654"
     inkscape:cy="28.992471"
     inkscape:window-width="1920"
     inkscape:window-height="1048"
     inkscape:window-x="0"
     inkscape:window-y="32"
     inkscape:window-maximized="1"
     inkscape:current-layer="g11807"
     inkscape:snap-page="true"
     units="px"
     width="99px"
     height="40px"
     inkscape:showpageshadow="false" />
  <defs
     id="defs2" />
  <g
     inkscape:label="BG"
     inkscape:groupmode="layer"
     id="layer1"
     style="display:inline" />
  <g
     id="g11807"
     inkscape:label="LOGO"
     transform="matrix(1.1105016,0,0,1.1105016,-1.2973183,-0.61816412)"
     style="fill:#bbbbbb;fill-opacity:1">
    <g
       id="g1017"
       inkscape:label="Logo"
       transform="matrix(0.8268487,0,0,0.8268487,-16.837553,-25.081279)">
      <text
         xml:space="preserve"
         style="font-size:3.09551px;line-height:1.25;font-family:Recursive;-inkscape-font-specification:Recursive;letter-spacing:0px;opacity:0.771194;fill:#bbbbbb;fill-opacity:1;stroke-width:0.0773881"
         x="48.407207"
         y="-31.709341"
         id="text161655"
         inkscape:label="copyright"
         transform="scale(1.000088,-0.999912)"><tspan
           sodipodi:role="line"
           id="tspan161653"
           style="fill:#bbbbbb;fill-opacity:1;stroke-width:0.0773881"
           x="48.407207"
           y="-31.709341">©</tspan></text>
      <g
         id="g1085"
         transform="matrix(0.9038678,0,0,0.9038678,3.4455654,3.4270298)"
         inkscape:label="ISHRQ">
        <path
           d="m 48.535132,39.702979 q 0.201646,0.31113 0.355845,0.582545 0.166062,0.25762 0.355848,0.570682 0.0949,0.138739 0.166061,0.162729 0.07117,0.02399 0.189787,0.0047 0.04744,-0.0077 0.07117,-0.01155 0.03559,-0.0058 0.08303,-0.01353 l 0.237231,-0.03866 q 0,0.403293 0,0.723555 0,0.332124 0,0.747278 0,0.05931 -0.03559,0.100687 -0.03559,0.04139 -0.0949,0.05105 -0.08303,0.01353 -0.237231,0.03865 -0.142339,0.02319 -0.260956,0.04252 -0.427016,0.06958 -0.711693,0.04479 -0.272799,-0.02673 -0.474447,-0.183657 -0.189784,-0.158866 -0.367707,-0.462 -0.225369,-0.378434 -0.403294,-0.717153 -0.177922,-0.338719 -0.403292,-0.717152 z m -1.74365,-6.880282 q 0.90148,-0.146881 1.542003,0.08087 0.652385,0.225827 1.008233,0.820234 0.355845,0.582545 0.355845,1.507746 v 3.012837 q 0,0.925201 -0.355845,1.635566 -0.355848,0.698504 -1.008233,1.136923 -0.640523,0.436486 -1.542003,0.583367 -0.889617,0.144949 -1.542002,-0.08087 -0.652387,-0.225829 -1.008233,-0.808373 -0.355846,-0.594407 -0.355846,-1.519608 v -3.012835 q 0,-0.925202 0.355846,-1.623705 0.355846,-0.710366 1.008233,-1.148785 0.652385,-0.438419 1.542002,-0.583367 z m -1.126848,6.078795 q 0,0.332123 0.07117,0.581482 0.07117,0.237497 0.237231,0.376502 0.130474,0.109215 0.332124,0.147532 0.213509,0.03639 0.486323,-0.0081 0.403295,-0.06571 0.640525,-0.246701 0.249093,-0.194786 0.367708,-0.49879 0.118621,-0.304004 0.118621,-0.719158 v -3.01283 q 0,-0.225369 -0.03559,-0.409355 -0.02372,-0.185921 -0.0949,-0.316664 -0.07117,-0.142603 -0.177922,-0.231964 -0.142338,-0.119141 -0.343985,-0.1456 -0.201647,-0.03832 -0.474463,0.0061 -0.39143,0.06378 -0.640524,0.258563 -0.249093,0.182924 -0.367708,0.486929 -0.118621,0.304004 -0.118621,0.719158 z"
           id="path9021-3"
           inkscape:label="Q"
           style="fill:#bb22ff;fill-opacity:1;stroke-width:1.22664" />
        <path
           d="m 41.877725,38.391658 q 0.296539,0.473592 0.533772,0.861956 0.249093,0.38643 0.533768,0.861956 0.0949,0.138739 0.166064,0.186451 0.08303,0.04578 0.201646,0.02645 0.04744,-0.0077 0.07117,-0.01155 0.03559,-0.0058 0.08303,-0.01353 l 0.23723,-0.03865 q 0,0.403293 0,0.735416 0,0.332124 0,0.735418 0,0.05931 -0.03559,0.100687 -0.03559,0.04138 -0.0949,0.05105 -0.08303,0.01353 -0.237232,0.03865 -0.142337,0.02319 -0.260954,0.04252 -0.427017,0.06958 -0.711692,0.05665 -0.284661,-0.01293 -0.486309,-0.146138 -0.201646,-0.133206 -0.367708,-0.426411 -0.296537,-0.532901 -0.593078,-1.0658 -0.284678,-0.534834 -0.593077,-1.065801 z M 37.41778,34.587217 q 0.806586,-0.131419 1.625034,-0.264771 0.818447,-0.133353 1.625033,-0.264773 0.747278,-0.121756 1.269188,-0.02887 0.521909,0.08103 0.842169,0.360968 0.332125,0.27801 0.474464,0.717419 0.154199,0.425614 0.154199,0.994969 v 0.699832 q 0,0.545631 -0.166061,1.011565 -0.166062,0.465936 -0.486325,0.826518 -0.32026,0.34872 -0.771001,0.588222 -0.450739,0.227641 -1.020094,0.320408 -0.332124,0.05412 -0.676108,0.110155 -0.332123,0.05412 -0.664248,0.108225 l -0.130474,0.08057 v -1.60131 q 0.3084,-0.05025 0.616802,-0.100496 0.320262,-0.05218 0.628661,-0.102426 0.284679,-0.04639 0.462602,-0.158404 0.189784,-0.11395 0.272816,-0.305405 0.0949,-0.193385 0.0949,-0.454339 V 36.29496 q 0,-0.201646 -0.04744,-0.336255 -0.04744,-0.134608 -0.14234,-0.214039 -0.0949,-0.07943 -0.260954,-0.09982 -0.1542,-0.03418 -0.379569,0.0025 -0.52191,0.08504 -1.06754,0.173938 -0.533772,0.08697 -1.067542,0.173938 -0.521908,0.08504 -1.055678,0.172006 -0.05931,0.0096 -0.0949,-0.02013 -0.03559,-0.02979 -0.03559,-0.0891 0,-0.391432 0,-0.735417 0,-0.343985 0,-0.735416 z m 2.372311,7.916562 q -0.438877,0.07151 -0.854032,0.139152 -0.403292,0.06571 -0.854031,0.13915 -0.05931,0.0096 -0.0949,-0.02012 -0.03559,-0.02979 -0.03559,-0.0891 0,-0.948926 0,-1.82668 0,-0.889617 0,-1.755511 0,-0.877756 0,-1.767373 0,-0.889616 0,-1.826679 l 1.980881,-0.322752 -0.142339,0.379038 q 0,0.343986 0,0.67611 0,0.332124 0,0.640523 0,0.747279 0,1.458972 0,0.711693 0,1.447111 0,0.735416 0,1.565725 0,0.320262 0,0.616801 0,0.296538 0,0.545632 z"
           id="path9024-6"
           inkscape:label="R"
           style="fill:#bbbbbb;fill-opacity:1;stroke-width:1.22664" />
        <path
           d="m 31.198181,35.600599 q 0.45074,-0.07344 0.854032,-0.139152 0.415155,-0.06764 0.854033,-0.13915 0.05931,-0.0096 0.09489,0.02013 0.03559,0.02979 0.03559,0.0891 0,1.020093 0,2.040187 0,1.020094 0,2.052049 0,1.020095 0,2.040189 0,1.020093 0,2.040189 -0.438875,0.07149 -0.854029,0.13915 -0.403295,0.06571 -0.854034,0.139149 -0.03559,0.0057 -0.07117,-2.64e-4 -0.02372,-0.01986 -0.04744,-0.03971 -0.01193,-0.02178 -0.01193,-0.06923 0,-1.150571 0,-2.301142 0,-1.150572 0,-2.301142 0,-1.150572 0,-2.301143 0,-0.320262 0,-0.628663 0,-0.320261 0,-0.640523 z m 0.782863,3.241128 2.324866,-0.378799 q 0.201647,-0.03286 0.391432,-0.06378 0.201646,-0.03286 0.39143,-0.06378 l 0.438878,-0.178262 0.391432,1.644286 -3.80756,0.620379 q -0.03559,0.0058 -0.05931,0.0096 -0.02372,-0.008 -0.04744,-0.01599 -0.0118,-0.02178 -0.02372,-0.04359 0,-0.02372 0,-0.05931 z m 4.910685,4.134293 q -0.438877,0.07149 -0.854031,0.13915 -0.403294,0.06571 -0.854033,0.139152 -0.03559,0.0057 -0.07117,-2.67e-4 -0.02372,-0.01986 -0.04744,-0.03971 -0.0118,-0.02178 -0.0118,-0.06924 0,-1.020094 0,-2.040189 0,-1.020093 0,-2.040187 0,-1.031955 0,-2.052049 0,-1.020095 0,-2.040189 0.450739,-0.07344 0.854034,-0.13915 0.415155,-0.06764 0.854031,-0.13915 0.03559,-0.0058 0.05931,0.0022 0.02372,-0.0038 0.03559,0.01792 0.02372,0.008 0.02372,0.03172 0.0118,0.02178 0.0118,0.05737 0,0.854032 0,1.719925 0,0.854032 0,1.719926 0,0.854033 0,1.719927 0,0.854032 0,1.708063 0,0.355847 0,0.687971 0,0.332124 0,0.616802 z"
           id="path9027-7"
           inkscape:label="H"
           style="fill:#bbbbbb;fill-opacity:1;stroke-width:1.22664" />
        <path
           d="m 28.07912,35.871567 q 0.84217,-0.137218 1.423387,-0.03027 0.593077,0.105015 0.865893,0.333379 0.04744,0.03971 0.05931,0.08523 0.01193,0.04551 0.01193,0.116679 0,0.225369 0,0.521908 0,0.284678 0,0.581217 0,0.284676 0,0.557492 -0.379569,0.06185 -0.782863,0.127555 -0.391431,0.06378 -0.771001,0.125627 -0.05931,0.0096 -0.09489,-0.02013 -0.03559,-0.02979 -0.03559,-0.0891 0,-0.09489 0,-0.201646 0,-0.106753 0,-0.225369 0,-0.130478 0,-0.272816 0,-0.1542 0,-0.343986 l 0.332117,0.33732 q -0.272816,-0.03858 -0.557494,-0.02778 -0.284677,-0.0011 -0.557493,0.04339 -0.284676,0.04638 -0.498185,0.128617 -0.213508,0.07038 -0.367708,0.19039 -0.154201,0.120017 -0.237232,0.287746 -0.07116,0.153934 -0.07116,0.367442 v 0.249093 q 0,0.213507 0.05931,0.346183 0.07117,0.130743 0.260954,0.206575 0.201647,0.07389 0.593078,0.128737 l 1.126849,0.160384 q 0.557493,0.07523 0.925201,0.216962 0.367708,0.141734 0.581216,0.367902 0.213508,0.214304 0.296539,0.532899 0.09489,0.304801 0.09489,0.719956 v 0.569355 q 0,0.699831 -0.37957,1.271723 -0.379569,0.571892 -1.091262,0.960666 -0.699833,0.37498 -1.696203,0.537323 -0.569355,0.09277 -1.079402,0.10471 -0.498185,0.01003 -0.877754,-0.07049 -0.367709,-0.08244 -0.569355,-0.239357 -0.03559,-0.02979 -0.05931,-0.06151 -0.0118,-0.04553 -0.0118,-0.16413 0,-0.22537 0,-0.450739 0,-0.225371 0,-0.474463 0,-0.249093 0,-0.521909 l 0.237236,-0.03865 q 0.53377,0.257017 1.114986,0.34024 0.581217,0.07137 1.375941,-0.05813 0.699832,-0.114026 0.996371,-0.36399 0.296539,-0.261823 0.296539,-0.510916 v -0.438878 q 0,-0.166062 -0.05931,-0.275014 -0.04744,-0.110891 -0.237232,-0.186716 -0.177923,-0.08963 -0.593077,-0.1406 l -1.114987,-0.162316 q -0.593078,-0.08129 -0.972648,-0.256678 -0.379569,-0.175386 -0.593077,-0.401553 -0.201647,-0.23996 -0.284679,-0.522971 -0.08303,-0.294872 -0.08303,-0.615134 v -0.604942 q 0,-0.486325 0.201646,-0.922472 0.213508,-0.449942 0.60494,-0.82212 0.403293,-0.37411 0.960786,-0.631007 0.557493,-0.256896 1.257326,-0.370922 z"
           id="path9030-5"
           inkscape:label="S"
           style="fill:#bbbbbb;fill-opacity:1;stroke-width:1.22664" />
        <rect
           style="fill:#bbbbbb;fill-opacity:1;stroke-width:0.382585"
           id="rect33-3"
           width="1.9093158"
           height="11.020293"
           x="23.098679"
           y="39.172577"
           inkscape:label="I"
           transform="matrix(0.9774913,-0.21097571,0,1,0,0)" />
      </g>
    </g>
  </g>
</svg>
